G04 MADE WITH FRITZING*
G04 WWW.FRITZING.ORG*
G04 DOUBLE SIDED*
G04 HOLES PLATED*
G04 CONTOUR ON CENTER OF CONTOUR VECTOR*
%ASAXBY*%
%FSLAX23Y23*%
%MOIN*%
%OFA0B0*%
%SFA1.0B1.0*%
%ADD10C,0.080000*%
%ADD11C,0.062000*%
%ADD12C,0.088000*%
%ADD13C,0.070000*%
%ADD14C,0.140000*%
%ADD15C,0.049370*%
%ADD16C,0.148425*%
%ADD17C,0.076000*%
%ADD18R,0.001000X0.001000*%
%LNMASK1*%
G90*
G70*
G54D10*
X851Y987D03*
X751Y987D03*
X851Y1088D03*
X751Y1088D03*
X851Y1188D03*
X751Y1188D03*
X1101Y837D03*
X1001Y837D03*
X1401Y837D03*
X1301Y837D03*
G54D11*
X1001Y937D03*
X1101Y937D03*
X1201Y937D03*
X1301Y937D03*
X1401Y937D03*
X1501Y937D03*
X1601Y937D03*
X1701Y937D03*
X1701Y1238D03*
X1601Y1238D03*
X1501Y1238D03*
X1401Y1238D03*
X1301Y1238D03*
X1201Y1238D03*
X1101Y1238D03*
X1001Y1238D03*
X1001Y937D03*
X1101Y937D03*
X1201Y937D03*
X1301Y937D03*
X1401Y937D03*
X1501Y937D03*
X1601Y937D03*
X1701Y937D03*
X1701Y1238D03*
X1601Y1238D03*
X1501Y1238D03*
X1401Y1238D03*
X1301Y1238D03*
X1201Y1238D03*
X1101Y1238D03*
X1001Y1238D03*
G54D12*
X351Y1488D03*
X451Y1488D03*
X551Y1488D03*
X651Y1488D03*
X751Y1488D03*
X851Y1488D03*
X951Y1488D03*
X1051Y1488D03*
X1151Y1488D03*
X1251Y1488D03*
X1351Y1488D03*
X1451Y1488D03*
X1551Y1488D03*
X1651Y1488D03*
X1751Y1488D03*
X1851Y1488D03*
X351Y687D03*
X451Y687D03*
X551Y687D03*
X651Y687D03*
X751Y687D03*
X851Y687D03*
X951Y687D03*
X1051Y687D03*
X1151Y687D03*
X1251Y687D03*
X1351Y687D03*
X1451Y687D03*
X1551Y687D03*
X1651Y687D03*
X1751Y687D03*
X1851Y687D03*
G54D13*
X1739Y487D03*
X1630Y487D03*
X1522Y487D03*
X1413Y487D03*
X1304Y487D03*
X1196Y487D03*
X1087Y487D03*
X978Y487D03*
X870Y487D03*
X761Y487D03*
X652Y487D03*
X544Y487D03*
X435Y487D03*
X1685Y387D03*
X1576Y387D03*
X1467Y387D03*
X1359Y387D03*
X1250Y387D03*
X1141Y387D03*
X1033Y387D03*
X924Y387D03*
X815Y387D03*
X707Y387D03*
X598Y387D03*
X489Y387D03*
G54D14*
X2013Y437D03*
X161Y437D03*
G54D13*
X1739Y487D03*
X1630Y487D03*
X1522Y487D03*
X1413Y487D03*
X1304Y487D03*
X1196Y487D03*
X1087Y487D03*
X978Y487D03*
X870Y487D03*
X761Y487D03*
X652Y487D03*
X544Y487D03*
X435Y487D03*
X1685Y387D03*
X1576Y387D03*
X1467Y387D03*
X1359Y387D03*
X1250Y387D03*
X1141Y387D03*
X1033Y387D03*
X924Y387D03*
X815Y387D03*
X707Y387D03*
X598Y387D03*
X489Y387D03*
G54D14*
X2013Y437D03*
X161Y437D03*
G54D15*
X1352Y1387D03*
G54D16*
X201Y737D03*
G54D17*
X1851Y687D03*
X1751Y687D03*
X1651Y687D03*
X1551Y687D03*
X1451Y687D03*
X1351Y687D03*
G54D16*
X201Y1438D03*
G54D17*
X751Y687D03*
X651Y687D03*
X451Y687D03*
X351Y687D03*
X751Y1488D03*
X851Y1488D03*
X951Y1488D03*
X1051Y1488D03*
X1151Y1488D03*
X1251Y1488D03*
X1351Y1488D03*
X1451Y1488D03*
X1551Y1488D03*
X1651Y1488D03*
X1751Y1488D03*
X1851Y1488D03*
G54D18*
X998Y1295D02*
X1004Y1295D01*
X1098Y1295D02*
X1104Y1295D01*
X1198Y1295D02*
X1204Y1295D01*
X1298Y1295D02*
X1304Y1295D01*
X1398Y1295D02*
X1404Y1295D01*
X1498Y1295D02*
X1504Y1295D01*
X1598Y1295D02*
X1604Y1295D01*
X1698Y1295D02*
X1704Y1295D01*
X993Y1294D02*
X1009Y1294D01*
X1093Y1294D02*
X1109Y1294D01*
X1193Y1294D02*
X1209Y1294D01*
X1293Y1294D02*
X1309Y1294D01*
X1393Y1294D02*
X1409Y1294D01*
X1493Y1294D02*
X1509Y1294D01*
X1593Y1294D02*
X1609Y1294D01*
X1693Y1294D02*
X1709Y1294D01*
X990Y1293D02*
X1012Y1293D01*
X1090Y1293D02*
X1112Y1293D01*
X1190Y1293D02*
X1212Y1293D01*
X1290Y1293D02*
X1312Y1293D01*
X1390Y1293D02*
X1412Y1293D01*
X1490Y1293D02*
X1512Y1293D01*
X1590Y1293D02*
X1612Y1293D01*
X1690Y1293D02*
X1712Y1293D01*
X988Y1292D02*
X1014Y1292D01*
X1088Y1292D02*
X1114Y1292D01*
X1188Y1292D02*
X1214Y1292D01*
X1288Y1292D02*
X1314Y1292D01*
X1388Y1292D02*
X1414Y1292D01*
X1488Y1292D02*
X1514Y1292D01*
X1588Y1292D02*
X1614Y1292D01*
X1688Y1292D02*
X1714Y1292D01*
X986Y1291D02*
X1016Y1291D01*
X1086Y1291D02*
X1116Y1291D01*
X1186Y1291D02*
X1216Y1291D01*
X1286Y1291D02*
X1316Y1291D01*
X1386Y1291D02*
X1416Y1291D01*
X1486Y1291D02*
X1516Y1291D01*
X1586Y1291D02*
X1616Y1291D01*
X1686Y1291D02*
X1716Y1291D01*
X984Y1290D02*
X1018Y1290D01*
X1084Y1290D02*
X1118Y1290D01*
X1184Y1290D02*
X1218Y1290D01*
X1284Y1290D02*
X1318Y1290D01*
X1384Y1290D02*
X1418Y1290D01*
X1484Y1290D02*
X1518Y1290D01*
X1584Y1290D02*
X1618Y1290D01*
X1684Y1290D02*
X1718Y1290D01*
X983Y1289D02*
X1019Y1289D01*
X1083Y1289D02*
X1119Y1289D01*
X1183Y1289D02*
X1219Y1289D01*
X1283Y1289D02*
X1319Y1289D01*
X1383Y1289D02*
X1419Y1289D01*
X1483Y1289D02*
X1519Y1289D01*
X1583Y1289D02*
X1619Y1289D01*
X1683Y1289D02*
X1719Y1289D01*
X981Y1288D02*
X1020Y1288D01*
X1081Y1288D02*
X1120Y1288D01*
X1181Y1288D02*
X1220Y1288D01*
X1281Y1288D02*
X1320Y1288D01*
X1381Y1288D02*
X1420Y1288D01*
X1481Y1288D02*
X1520Y1288D01*
X1581Y1288D02*
X1620Y1288D01*
X1681Y1288D02*
X1720Y1288D01*
X980Y1287D02*
X1021Y1287D01*
X1080Y1287D02*
X1121Y1287D01*
X1180Y1287D02*
X1221Y1287D01*
X1280Y1287D02*
X1321Y1287D01*
X1380Y1287D02*
X1421Y1287D01*
X1480Y1287D02*
X1521Y1287D01*
X1580Y1287D02*
X1621Y1287D01*
X1680Y1287D02*
X1721Y1287D01*
X979Y1286D02*
X1022Y1286D01*
X1079Y1286D02*
X1122Y1286D01*
X1179Y1286D02*
X1222Y1286D01*
X1279Y1286D02*
X1322Y1286D01*
X1379Y1286D02*
X1422Y1286D01*
X1479Y1286D02*
X1522Y1286D01*
X1579Y1286D02*
X1622Y1286D01*
X1679Y1286D02*
X1722Y1286D01*
X978Y1285D02*
X1023Y1285D01*
X1078Y1285D02*
X1123Y1285D01*
X1178Y1285D02*
X1223Y1285D01*
X1278Y1285D02*
X1323Y1285D01*
X1378Y1285D02*
X1423Y1285D01*
X1478Y1285D02*
X1523Y1285D01*
X1578Y1285D02*
X1623Y1285D01*
X1678Y1285D02*
X1723Y1285D01*
X977Y1284D02*
X1024Y1284D01*
X1077Y1284D02*
X1124Y1284D01*
X1177Y1284D02*
X1224Y1284D01*
X1277Y1284D02*
X1324Y1284D01*
X1377Y1284D02*
X1424Y1284D01*
X1477Y1284D02*
X1524Y1284D01*
X1577Y1284D02*
X1624Y1284D01*
X1677Y1284D02*
X1724Y1284D01*
X977Y1283D02*
X1025Y1283D01*
X1077Y1283D02*
X1125Y1283D01*
X1177Y1283D02*
X1225Y1283D01*
X1277Y1283D02*
X1325Y1283D01*
X1377Y1283D02*
X1425Y1283D01*
X1477Y1283D02*
X1525Y1283D01*
X1577Y1283D02*
X1625Y1283D01*
X1677Y1283D02*
X1725Y1283D01*
X976Y1282D02*
X1026Y1282D01*
X1076Y1282D02*
X1126Y1282D01*
X1176Y1282D02*
X1226Y1282D01*
X1276Y1282D02*
X1326Y1282D01*
X1376Y1282D02*
X1426Y1282D01*
X1476Y1282D02*
X1526Y1282D01*
X1576Y1282D02*
X1626Y1282D01*
X1676Y1282D02*
X1726Y1282D01*
X975Y1281D02*
X1026Y1281D01*
X1075Y1281D02*
X1126Y1281D01*
X1175Y1281D02*
X1226Y1281D01*
X1275Y1281D02*
X1326Y1281D01*
X1375Y1281D02*
X1426Y1281D01*
X1475Y1281D02*
X1526Y1281D01*
X1575Y1281D02*
X1626Y1281D01*
X1675Y1281D02*
X1726Y1281D01*
X975Y1280D02*
X1027Y1280D01*
X1075Y1280D02*
X1127Y1280D01*
X1175Y1280D02*
X1227Y1280D01*
X1275Y1280D02*
X1327Y1280D01*
X1375Y1280D02*
X1427Y1280D01*
X1475Y1280D02*
X1527Y1280D01*
X1575Y1280D02*
X1627Y1280D01*
X1675Y1280D02*
X1727Y1280D01*
X974Y1279D02*
X1028Y1279D01*
X1074Y1279D02*
X1128Y1279D01*
X1174Y1279D02*
X1228Y1279D01*
X1274Y1279D02*
X1328Y1279D01*
X1374Y1279D02*
X1428Y1279D01*
X1474Y1279D02*
X1528Y1279D01*
X1574Y1279D02*
X1628Y1279D01*
X1674Y1279D02*
X1728Y1279D01*
X974Y1278D02*
X1028Y1278D01*
X1074Y1278D02*
X1128Y1278D01*
X1174Y1278D02*
X1228Y1278D01*
X1274Y1278D02*
X1328Y1278D01*
X1374Y1278D02*
X1428Y1278D01*
X1474Y1278D02*
X1528Y1278D01*
X1574Y1278D02*
X1628Y1278D01*
X1674Y1278D02*
X1728Y1278D01*
X973Y1277D02*
X1029Y1277D01*
X1073Y1277D02*
X1129Y1277D01*
X1173Y1277D02*
X1229Y1277D01*
X1273Y1277D02*
X1329Y1277D01*
X1373Y1277D02*
X1429Y1277D01*
X1473Y1277D02*
X1529Y1277D01*
X1573Y1277D02*
X1629Y1277D01*
X1673Y1277D02*
X1729Y1277D01*
X973Y1276D02*
X1029Y1276D01*
X1073Y1276D02*
X1129Y1276D01*
X1173Y1276D02*
X1229Y1276D01*
X1273Y1276D02*
X1329Y1276D01*
X1373Y1276D02*
X1429Y1276D01*
X1473Y1276D02*
X1529Y1276D01*
X1573Y1276D02*
X1629Y1276D01*
X1673Y1276D02*
X1729Y1276D01*
X972Y1275D02*
X1029Y1275D01*
X1072Y1275D02*
X1129Y1275D01*
X1172Y1275D02*
X1229Y1275D01*
X1272Y1275D02*
X1329Y1275D01*
X1372Y1275D02*
X1429Y1275D01*
X1472Y1275D02*
X1529Y1275D01*
X1572Y1275D02*
X1629Y1275D01*
X1672Y1275D02*
X1729Y1275D01*
X972Y1274D02*
X1030Y1274D01*
X1072Y1274D02*
X1130Y1274D01*
X1172Y1274D02*
X1230Y1274D01*
X1272Y1274D02*
X1330Y1274D01*
X1372Y1274D02*
X1430Y1274D01*
X1472Y1274D02*
X1530Y1274D01*
X1572Y1274D02*
X1630Y1274D01*
X1672Y1274D02*
X1730Y1274D01*
X972Y1273D02*
X1030Y1273D01*
X1072Y1273D02*
X1130Y1273D01*
X1172Y1273D02*
X1230Y1273D01*
X1272Y1273D02*
X1330Y1273D01*
X1372Y1273D02*
X1430Y1273D01*
X1472Y1273D02*
X1530Y1273D01*
X1572Y1273D02*
X1630Y1273D01*
X1672Y1273D02*
X1730Y1273D01*
X971Y1272D02*
X1030Y1272D01*
X1071Y1272D02*
X1130Y1272D01*
X1171Y1272D02*
X1230Y1272D01*
X1271Y1272D02*
X1330Y1272D01*
X1371Y1272D02*
X1430Y1272D01*
X1471Y1272D02*
X1530Y1272D01*
X1571Y1272D02*
X1630Y1272D01*
X1671Y1272D02*
X1730Y1272D01*
X971Y1271D02*
X1031Y1271D01*
X1071Y1271D02*
X1131Y1271D01*
X1171Y1271D02*
X1231Y1271D01*
X1271Y1271D02*
X1331Y1271D01*
X1371Y1271D02*
X1431Y1271D01*
X1471Y1271D02*
X1531Y1271D01*
X1571Y1271D02*
X1631Y1271D01*
X1671Y1271D02*
X1731Y1271D01*
X971Y1270D02*
X1031Y1270D01*
X1071Y1270D02*
X1131Y1270D01*
X1171Y1270D02*
X1231Y1270D01*
X1271Y1270D02*
X1331Y1270D01*
X1371Y1270D02*
X1431Y1270D01*
X1471Y1270D02*
X1531Y1270D01*
X1571Y1270D02*
X1631Y1270D01*
X1671Y1270D02*
X1731Y1270D01*
X971Y1269D02*
X1031Y1269D01*
X1071Y1269D02*
X1131Y1269D01*
X1171Y1269D02*
X1231Y1269D01*
X1271Y1269D02*
X1331Y1269D01*
X1371Y1269D02*
X1431Y1269D01*
X1471Y1269D02*
X1531Y1269D01*
X1571Y1269D02*
X1631Y1269D01*
X1671Y1269D02*
X1731Y1269D01*
X971Y1268D02*
X1031Y1268D01*
X1071Y1268D02*
X1131Y1268D01*
X1171Y1268D02*
X1231Y1268D01*
X1271Y1268D02*
X1331Y1268D01*
X1371Y1268D02*
X1431Y1268D01*
X1471Y1268D02*
X1531Y1268D01*
X1571Y1268D02*
X1631Y1268D01*
X1671Y1268D02*
X1731Y1268D01*
X971Y1267D02*
X1031Y1267D01*
X1071Y1267D02*
X1131Y1267D01*
X1171Y1267D02*
X1231Y1267D01*
X1271Y1267D02*
X1331Y1267D01*
X1371Y1267D02*
X1431Y1267D01*
X1471Y1267D02*
X1531Y1267D01*
X1571Y1267D02*
X1631Y1267D01*
X1671Y1267D02*
X1731Y1267D01*
X970Y1266D02*
X1031Y1266D01*
X1070Y1266D02*
X1131Y1266D01*
X1170Y1266D02*
X1231Y1266D01*
X1270Y1266D02*
X1331Y1266D01*
X1370Y1266D02*
X1431Y1266D01*
X1470Y1266D02*
X1531Y1266D01*
X1570Y1266D02*
X1631Y1266D01*
X1670Y1266D02*
X1731Y1266D01*
X970Y1265D02*
X1031Y1265D01*
X1070Y1265D02*
X1131Y1265D01*
X1170Y1265D02*
X1231Y1265D01*
X1270Y1265D02*
X1331Y1265D01*
X1370Y1265D02*
X1431Y1265D01*
X1470Y1265D02*
X1531Y1265D01*
X1570Y1265D02*
X1631Y1265D01*
X1670Y1265D02*
X1731Y1265D01*
X970Y1264D02*
X1031Y1264D01*
X1070Y1264D02*
X1131Y1264D01*
X1170Y1264D02*
X1231Y1264D01*
X1270Y1264D02*
X1331Y1264D01*
X1370Y1264D02*
X1431Y1264D01*
X1470Y1264D02*
X1531Y1264D01*
X1570Y1264D02*
X1631Y1264D01*
X1670Y1264D02*
X1731Y1264D01*
X970Y1263D02*
X1031Y1263D01*
X1070Y1263D02*
X1131Y1263D01*
X1170Y1263D02*
X1231Y1263D01*
X1270Y1263D02*
X1331Y1263D01*
X1370Y1263D02*
X1431Y1263D01*
X1470Y1263D02*
X1531Y1263D01*
X1570Y1263D02*
X1631Y1263D01*
X1670Y1263D02*
X1731Y1263D01*
X970Y1262D02*
X1031Y1262D01*
X1070Y1262D02*
X1131Y1262D01*
X1170Y1262D02*
X1231Y1262D01*
X1270Y1262D02*
X1331Y1262D01*
X1370Y1262D02*
X1431Y1262D01*
X1470Y1262D02*
X1531Y1262D01*
X1570Y1262D02*
X1631Y1262D01*
X1670Y1262D02*
X1731Y1262D01*
X970Y1261D02*
X1031Y1261D01*
X1070Y1261D02*
X1131Y1261D01*
X1170Y1261D02*
X1231Y1261D01*
X1270Y1261D02*
X1331Y1261D01*
X1370Y1261D02*
X1431Y1261D01*
X1470Y1261D02*
X1531Y1261D01*
X1570Y1261D02*
X1631Y1261D01*
X1670Y1261D02*
X1731Y1261D01*
X970Y1260D02*
X1031Y1260D01*
X1070Y1260D02*
X1131Y1260D01*
X1170Y1260D02*
X1231Y1260D01*
X1270Y1260D02*
X1331Y1260D01*
X1370Y1260D02*
X1431Y1260D01*
X1470Y1260D02*
X1531Y1260D01*
X1570Y1260D02*
X1631Y1260D01*
X1670Y1260D02*
X1731Y1260D01*
X970Y1259D02*
X1031Y1259D01*
X1070Y1259D02*
X1131Y1259D01*
X1170Y1259D02*
X1231Y1259D01*
X1270Y1259D02*
X1331Y1259D01*
X1370Y1259D02*
X1431Y1259D01*
X1470Y1259D02*
X1531Y1259D01*
X1570Y1259D02*
X1631Y1259D01*
X1670Y1259D02*
X1731Y1259D01*
X970Y1258D02*
X1031Y1258D01*
X1070Y1258D02*
X1131Y1258D01*
X1170Y1258D02*
X1231Y1258D01*
X1270Y1258D02*
X1331Y1258D01*
X1370Y1258D02*
X1431Y1258D01*
X1470Y1258D02*
X1531Y1258D01*
X1570Y1258D02*
X1631Y1258D01*
X1670Y1258D02*
X1731Y1258D01*
X970Y1257D02*
X1031Y1257D01*
X1070Y1257D02*
X1131Y1257D01*
X1170Y1257D02*
X1231Y1257D01*
X1270Y1257D02*
X1331Y1257D01*
X1370Y1257D02*
X1431Y1257D01*
X1470Y1257D02*
X1531Y1257D01*
X1570Y1257D02*
X1631Y1257D01*
X1670Y1257D02*
X1731Y1257D01*
X970Y1256D02*
X1031Y1256D01*
X1070Y1256D02*
X1131Y1256D01*
X1170Y1256D02*
X1231Y1256D01*
X1270Y1256D02*
X1331Y1256D01*
X1370Y1256D02*
X1431Y1256D01*
X1470Y1256D02*
X1531Y1256D01*
X1570Y1256D02*
X1631Y1256D01*
X1670Y1256D02*
X1731Y1256D01*
X970Y1255D02*
X1031Y1255D01*
X1070Y1255D02*
X1131Y1255D01*
X1170Y1255D02*
X1231Y1255D01*
X1270Y1255D02*
X1331Y1255D01*
X1370Y1255D02*
X1431Y1255D01*
X1470Y1255D02*
X1531Y1255D01*
X1570Y1255D02*
X1631Y1255D01*
X1670Y1255D02*
X1731Y1255D01*
X970Y1254D02*
X1031Y1254D01*
X1070Y1254D02*
X1131Y1254D01*
X1170Y1254D02*
X1231Y1254D01*
X1270Y1254D02*
X1331Y1254D01*
X1370Y1254D02*
X1431Y1254D01*
X1470Y1254D02*
X1531Y1254D01*
X1570Y1254D02*
X1631Y1254D01*
X1670Y1254D02*
X1731Y1254D01*
X970Y1253D02*
X1031Y1253D01*
X1070Y1253D02*
X1131Y1253D01*
X1170Y1253D02*
X1231Y1253D01*
X1270Y1253D02*
X1331Y1253D01*
X1370Y1253D02*
X1431Y1253D01*
X1470Y1253D02*
X1531Y1253D01*
X1570Y1253D02*
X1631Y1253D01*
X1670Y1253D02*
X1731Y1253D01*
X970Y1252D02*
X1031Y1252D01*
X1070Y1252D02*
X1131Y1252D01*
X1170Y1252D02*
X1231Y1252D01*
X1270Y1252D02*
X1331Y1252D01*
X1370Y1252D02*
X1431Y1252D01*
X1470Y1252D02*
X1531Y1252D01*
X1570Y1252D02*
X1631Y1252D01*
X1670Y1252D02*
X1731Y1252D01*
X970Y1251D02*
X1031Y1251D01*
X1070Y1251D02*
X1131Y1251D01*
X1170Y1251D02*
X1231Y1251D01*
X1270Y1251D02*
X1331Y1251D01*
X1370Y1251D02*
X1431Y1251D01*
X1470Y1251D02*
X1531Y1251D01*
X1570Y1251D02*
X1631Y1251D01*
X1670Y1251D02*
X1731Y1251D01*
X970Y1250D02*
X1031Y1250D01*
X1070Y1250D02*
X1131Y1250D01*
X1170Y1250D02*
X1231Y1250D01*
X1270Y1250D02*
X1331Y1250D01*
X1370Y1250D02*
X1431Y1250D01*
X1470Y1250D02*
X1531Y1250D01*
X1570Y1250D02*
X1631Y1250D01*
X1670Y1250D02*
X1731Y1250D01*
X970Y1249D02*
X998Y1249D01*
X1004Y1249D02*
X1031Y1249D01*
X1070Y1249D02*
X1098Y1249D01*
X1104Y1249D02*
X1131Y1249D01*
X1170Y1249D02*
X1198Y1249D01*
X1204Y1249D02*
X1231Y1249D01*
X1270Y1249D02*
X1298Y1249D01*
X1304Y1249D02*
X1331Y1249D01*
X1370Y1249D02*
X1398Y1249D01*
X1404Y1249D02*
X1431Y1249D01*
X1470Y1249D02*
X1498Y1249D01*
X1504Y1249D02*
X1531Y1249D01*
X1570Y1249D02*
X1598Y1249D01*
X1604Y1249D02*
X1631Y1249D01*
X1670Y1249D02*
X1698Y1249D01*
X1704Y1249D02*
X1731Y1249D01*
X970Y1248D02*
X995Y1248D01*
X1007Y1248D02*
X1031Y1248D01*
X1070Y1248D02*
X1095Y1248D01*
X1107Y1248D02*
X1131Y1248D01*
X1170Y1248D02*
X1195Y1248D01*
X1207Y1248D02*
X1231Y1248D01*
X1270Y1248D02*
X1295Y1248D01*
X1307Y1248D02*
X1331Y1248D01*
X1370Y1248D02*
X1395Y1248D01*
X1407Y1248D02*
X1431Y1248D01*
X1470Y1248D02*
X1495Y1248D01*
X1507Y1248D02*
X1531Y1248D01*
X1570Y1248D02*
X1595Y1248D01*
X1607Y1248D02*
X1631Y1248D01*
X1670Y1248D02*
X1695Y1248D01*
X1707Y1248D02*
X1731Y1248D01*
X970Y1247D02*
X994Y1247D01*
X1008Y1247D02*
X1031Y1247D01*
X1070Y1247D02*
X1094Y1247D01*
X1108Y1247D02*
X1131Y1247D01*
X1170Y1247D02*
X1194Y1247D01*
X1208Y1247D02*
X1231Y1247D01*
X1270Y1247D02*
X1294Y1247D01*
X1308Y1247D02*
X1331Y1247D01*
X1370Y1247D02*
X1394Y1247D01*
X1408Y1247D02*
X1431Y1247D01*
X1470Y1247D02*
X1494Y1247D01*
X1508Y1247D02*
X1531Y1247D01*
X1570Y1247D02*
X1594Y1247D01*
X1608Y1247D02*
X1631Y1247D01*
X1670Y1247D02*
X1694Y1247D01*
X1708Y1247D02*
X1731Y1247D01*
X970Y1246D02*
X993Y1246D01*
X1009Y1246D02*
X1031Y1246D01*
X1070Y1246D02*
X1093Y1246D01*
X1109Y1246D02*
X1131Y1246D01*
X1170Y1246D02*
X1193Y1246D01*
X1209Y1246D02*
X1231Y1246D01*
X1270Y1246D02*
X1293Y1246D01*
X1309Y1246D02*
X1331Y1246D01*
X1370Y1246D02*
X1393Y1246D01*
X1409Y1246D02*
X1431Y1246D01*
X1470Y1246D02*
X1493Y1246D01*
X1509Y1246D02*
X1531Y1246D01*
X1570Y1246D02*
X1593Y1246D01*
X1609Y1246D02*
X1631Y1246D01*
X1670Y1246D02*
X1693Y1246D01*
X1709Y1246D02*
X1731Y1246D01*
X970Y1245D02*
X992Y1245D01*
X1010Y1245D02*
X1031Y1245D01*
X1070Y1245D02*
X1092Y1245D01*
X1110Y1245D02*
X1131Y1245D01*
X1170Y1245D02*
X1192Y1245D01*
X1210Y1245D02*
X1231Y1245D01*
X1270Y1245D02*
X1292Y1245D01*
X1310Y1245D02*
X1331Y1245D01*
X1370Y1245D02*
X1392Y1245D01*
X1410Y1245D02*
X1431Y1245D01*
X1470Y1245D02*
X1492Y1245D01*
X1510Y1245D02*
X1531Y1245D01*
X1570Y1245D02*
X1592Y1245D01*
X1610Y1245D02*
X1631Y1245D01*
X1670Y1245D02*
X1692Y1245D01*
X1710Y1245D02*
X1731Y1245D01*
X970Y1244D02*
X991Y1244D01*
X1011Y1244D02*
X1031Y1244D01*
X1070Y1244D02*
X1091Y1244D01*
X1111Y1244D02*
X1131Y1244D01*
X1170Y1244D02*
X1191Y1244D01*
X1211Y1244D02*
X1231Y1244D01*
X1270Y1244D02*
X1291Y1244D01*
X1311Y1244D02*
X1331Y1244D01*
X1370Y1244D02*
X1391Y1244D01*
X1411Y1244D02*
X1431Y1244D01*
X1470Y1244D02*
X1491Y1244D01*
X1511Y1244D02*
X1531Y1244D01*
X1570Y1244D02*
X1591Y1244D01*
X1611Y1244D02*
X1631Y1244D01*
X1670Y1244D02*
X1691Y1244D01*
X1711Y1244D02*
X1731Y1244D01*
X970Y1243D02*
X990Y1243D01*
X1011Y1243D02*
X1031Y1243D01*
X1070Y1243D02*
X1090Y1243D01*
X1111Y1243D02*
X1131Y1243D01*
X1170Y1243D02*
X1190Y1243D01*
X1211Y1243D02*
X1231Y1243D01*
X1270Y1243D02*
X1290Y1243D01*
X1311Y1243D02*
X1331Y1243D01*
X1370Y1243D02*
X1390Y1243D01*
X1411Y1243D02*
X1431Y1243D01*
X1470Y1243D02*
X1490Y1243D01*
X1511Y1243D02*
X1531Y1243D01*
X1570Y1243D02*
X1590Y1243D01*
X1611Y1243D02*
X1631Y1243D01*
X1670Y1243D02*
X1690Y1243D01*
X1711Y1243D02*
X1731Y1243D01*
X970Y1242D02*
X990Y1242D01*
X1012Y1242D02*
X1031Y1242D01*
X1070Y1242D02*
X1090Y1242D01*
X1112Y1242D02*
X1131Y1242D01*
X1170Y1242D02*
X1190Y1242D01*
X1212Y1242D02*
X1231Y1242D01*
X1270Y1242D02*
X1290Y1242D01*
X1312Y1242D02*
X1331Y1242D01*
X1370Y1242D02*
X1390Y1242D01*
X1412Y1242D02*
X1431Y1242D01*
X1470Y1242D02*
X1490Y1242D01*
X1512Y1242D02*
X1531Y1242D01*
X1570Y1242D02*
X1590Y1242D01*
X1612Y1242D02*
X1631Y1242D01*
X1670Y1242D02*
X1690Y1242D01*
X1712Y1242D02*
X1731Y1242D01*
X970Y1241D02*
X990Y1241D01*
X1012Y1241D02*
X1031Y1241D01*
X1070Y1241D02*
X1090Y1241D01*
X1112Y1241D02*
X1131Y1241D01*
X1170Y1241D02*
X1190Y1241D01*
X1212Y1241D02*
X1231Y1241D01*
X1270Y1241D02*
X1290Y1241D01*
X1312Y1241D02*
X1331Y1241D01*
X1370Y1241D02*
X1390Y1241D01*
X1412Y1241D02*
X1431Y1241D01*
X1470Y1241D02*
X1490Y1241D01*
X1512Y1241D02*
X1531Y1241D01*
X1570Y1241D02*
X1590Y1241D01*
X1612Y1241D02*
X1631Y1241D01*
X1670Y1241D02*
X1690Y1241D01*
X1712Y1241D02*
X1731Y1241D01*
X970Y1240D02*
X990Y1240D01*
X1012Y1240D02*
X1031Y1240D01*
X1070Y1240D02*
X1090Y1240D01*
X1112Y1240D02*
X1131Y1240D01*
X1170Y1240D02*
X1190Y1240D01*
X1212Y1240D02*
X1231Y1240D01*
X1270Y1240D02*
X1290Y1240D01*
X1312Y1240D02*
X1331Y1240D01*
X1370Y1240D02*
X1390Y1240D01*
X1412Y1240D02*
X1431Y1240D01*
X1470Y1240D02*
X1489Y1240D01*
X1512Y1240D02*
X1531Y1240D01*
X1570Y1240D02*
X1589Y1240D01*
X1612Y1240D02*
X1631Y1240D01*
X1670Y1240D02*
X1689Y1240D01*
X1712Y1240D02*
X1731Y1240D01*
X970Y1239D02*
X989Y1239D01*
X1012Y1239D02*
X1031Y1239D01*
X1070Y1239D02*
X1089Y1239D01*
X1112Y1239D02*
X1131Y1239D01*
X1170Y1239D02*
X1189Y1239D01*
X1212Y1239D02*
X1231Y1239D01*
X1270Y1239D02*
X1289Y1239D01*
X1312Y1239D02*
X1331Y1239D01*
X1370Y1239D02*
X1389Y1239D01*
X1412Y1239D02*
X1431Y1239D01*
X1470Y1239D02*
X1489Y1239D01*
X1512Y1239D02*
X1531Y1239D01*
X1570Y1239D02*
X1589Y1239D01*
X1612Y1239D02*
X1631Y1239D01*
X1670Y1239D02*
X1689Y1239D01*
X1712Y1239D02*
X1731Y1239D01*
X970Y1238D02*
X989Y1238D01*
X1012Y1238D02*
X1031Y1238D01*
X1070Y1238D02*
X1089Y1238D01*
X1112Y1238D02*
X1131Y1238D01*
X1170Y1238D02*
X1189Y1238D01*
X1212Y1238D02*
X1231Y1238D01*
X1270Y1238D02*
X1289Y1238D01*
X1312Y1238D02*
X1331Y1238D01*
X1370Y1238D02*
X1389Y1238D01*
X1412Y1238D02*
X1431Y1238D01*
X1470Y1238D02*
X1489Y1238D01*
X1512Y1238D02*
X1531Y1238D01*
X1570Y1238D02*
X1589Y1238D01*
X1612Y1238D02*
X1631Y1238D01*
X1670Y1238D02*
X1689Y1238D01*
X1712Y1238D02*
X1731Y1238D01*
X970Y1237D02*
X989Y1237D01*
X1012Y1237D02*
X1031Y1237D01*
X1070Y1237D02*
X1089Y1237D01*
X1112Y1237D02*
X1131Y1237D01*
X1170Y1237D02*
X1189Y1237D01*
X1212Y1237D02*
X1231Y1237D01*
X1270Y1237D02*
X1289Y1237D01*
X1312Y1237D02*
X1331Y1237D01*
X1370Y1237D02*
X1389Y1237D01*
X1412Y1237D02*
X1431Y1237D01*
X1470Y1237D02*
X1489Y1237D01*
X1512Y1237D02*
X1531Y1237D01*
X1570Y1237D02*
X1589Y1237D01*
X1612Y1237D02*
X1631Y1237D01*
X1670Y1237D02*
X1689Y1237D01*
X1712Y1237D02*
X1731Y1237D01*
X970Y1236D02*
X990Y1236D01*
X1012Y1236D02*
X1031Y1236D01*
X1070Y1236D02*
X1090Y1236D01*
X1112Y1236D02*
X1131Y1236D01*
X1170Y1236D02*
X1190Y1236D01*
X1212Y1236D02*
X1231Y1236D01*
X1270Y1236D02*
X1290Y1236D01*
X1312Y1236D02*
X1331Y1236D01*
X1370Y1236D02*
X1390Y1236D01*
X1412Y1236D02*
X1431Y1236D01*
X1470Y1236D02*
X1490Y1236D01*
X1512Y1236D02*
X1531Y1236D01*
X1570Y1236D02*
X1590Y1236D01*
X1612Y1236D02*
X1631Y1236D01*
X1670Y1236D02*
X1690Y1236D01*
X1712Y1236D02*
X1731Y1236D01*
X970Y1235D02*
X990Y1235D01*
X1012Y1235D02*
X1031Y1235D01*
X1070Y1235D02*
X1090Y1235D01*
X1112Y1235D02*
X1131Y1235D01*
X1170Y1235D02*
X1190Y1235D01*
X1212Y1235D02*
X1231Y1235D01*
X1270Y1235D02*
X1290Y1235D01*
X1312Y1235D02*
X1331Y1235D01*
X1370Y1235D02*
X1390Y1235D01*
X1412Y1235D02*
X1431Y1235D01*
X1470Y1235D02*
X1490Y1235D01*
X1512Y1235D02*
X1531Y1235D01*
X1570Y1235D02*
X1590Y1235D01*
X1612Y1235D02*
X1631Y1235D01*
X1670Y1235D02*
X1690Y1235D01*
X1712Y1235D02*
X1731Y1235D01*
X970Y1234D02*
X990Y1234D01*
X1012Y1234D02*
X1031Y1234D01*
X1070Y1234D02*
X1090Y1234D01*
X1112Y1234D02*
X1131Y1234D01*
X1170Y1234D02*
X1190Y1234D01*
X1212Y1234D02*
X1231Y1234D01*
X1270Y1234D02*
X1290Y1234D01*
X1312Y1234D02*
X1331Y1234D01*
X1370Y1234D02*
X1390Y1234D01*
X1412Y1234D02*
X1431Y1234D01*
X1470Y1234D02*
X1490Y1234D01*
X1512Y1234D02*
X1531Y1234D01*
X1570Y1234D02*
X1590Y1234D01*
X1612Y1234D02*
X1631Y1234D01*
X1670Y1234D02*
X1690Y1234D01*
X1712Y1234D02*
X1731Y1234D01*
X970Y1233D02*
X991Y1233D01*
X1011Y1233D02*
X1031Y1233D01*
X1070Y1233D02*
X1091Y1233D01*
X1111Y1233D02*
X1131Y1233D01*
X1170Y1233D02*
X1191Y1233D01*
X1211Y1233D02*
X1231Y1233D01*
X1270Y1233D02*
X1291Y1233D01*
X1311Y1233D02*
X1331Y1233D01*
X1370Y1233D02*
X1391Y1233D01*
X1411Y1233D02*
X1431Y1233D01*
X1470Y1233D02*
X1491Y1233D01*
X1511Y1233D02*
X1531Y1233D01*
X1570Y1233D02*
X1591Y1233D01*
X1611Y1233D02*
X1631Y1233D01*
X1670Y1233D02*
X1691Y1233D01*
X1711Y1233D02*
X1731Y1233D01*
X970Y1232D02*
X991Y1232D01*
X1010Y1232D02*
X1031Y1232D01*
X1070Y1232D02*
X1091Y1232D01*
X1110Y1232D02*
X1131Y1232D01*
X1170Y1232D02*
X1191Y1232D01*
X1210Y1232D02*
X1231Y1232D01*
X1270Y1232D02*
X1291Y1232D01*
X1310Y1232D02*
X1331Y1232D01*
X1370Y1232D02*
X1391Y1232D01*
X1410Y1232D02*
X1431Y1232D01*
X1470Y1232D02*
X1491Y1232D01*
X1510Y1232D02*
X1531Y1232D01*
X1570Y1232D02*
X1591Y1232D01*
X1610Y1232D02*
X1631Y1232D01*
X1670Y1232D02*
X1691Y1232D01*
X1710Y1232D02*
X1731Y1232D01*
X970Y1231D02*
X992Y1231D01*
X1010Y1231D02*
X1031Y1231D01*
X1070Y1231D02*
X1092Y1231D01*
X1110Y1231D02*
X1131Y1231D01*
X1170Y1231D02*
X1192Y1231D01*
X1210Y1231D02*
X1231Y1231D01*
X1270Y1231D02*
X1292Y1231D01*
X1310Y1231D02*
X1331Y1231D01*
X1370Y1231D02*
X1392Y1231D01*
X1410Y1231D02*
X1431Y1231D01*
X1470Y1231D02*
X1492Y1231D01*
X1510Y1231D02*
X1531Y1231D01*
X1570Y1231D02*
X1592Y1231D01*
X1610Y1231D02*
X1631Y1231D01*
X1670Y1231D02*
X1692Y1231D01*
X1710Y1231D02*
X1731Y1231D01*
X970Y1230D02*
X993Y1230D01*
X1009Y1230D02*
X1031Y1230D01*
X1070Y1230D02*
X1093Y1230D01*
X1109Y1230D02*
X1131Y1230D01*
X1170Y1230D02*
X1193Y1230D01*
X1209Y1230D02*
X1231Y1230D01*
X1270Y1230D02*
X1293Y1230D01*
X1309Y1230D02*
X1331Y1230D01*
X1370Y1230D02*
X1393Y1230D01*
X1408Y1230D02*
X1431Y1230D01*
X1470Y1230D02*
X1493Y1230D01*
X1508Y1230D02*
X1531Y1230D01*
X1570Y1230D02*
X1593Y1230D01*
X1608Y1230D02*
X1631Y1230D01*
X1670Y1230D02*
X1693Y1230D01*
X1708Y1230D02*
X1731Y1230D01*
X970Y1229D02*
X994Y1229D01*
X1007Y1229D02*
X1031Y1229D01*
X1070Y1229D02*
X1094Y1229D01*
X1107Y1229D02*
X1131Y1229D01*
X1170Y1229D02*
X1194Y1229D01*
X1207Y1229D02*
X1231Y1229D01*
X1270Y1229D02*
X1294Y1229D01*
X1307Y1229D02*
X1331Y1229D01*
X1370Y1229D02*
X1394Y1229D01*
X1407Y1229D02*
X1431Y1229D01*
X1470Y1229D02*
X1494Y1229D01*
X1507Y1229D02*
X1531Y1229D01*
X1570Y1229D02*
X1594Y1229D01*
X1607Y1229D02*
X1631Y1229D01*
X1670Y1229D02*
X1694Y1229D01*
X1707Y1229D02*
X1731Y1229D01*
X970Y1228D02*
X996Y1228D01*
X1005Y1228D02*
X1031Y1228D01*
X1070Y1228D02*
X1096Y1228D01*
X1105Y1228D02*
X1131Y1228D01*
X1170Y1228D02*
X1196Y1228D01*
X1205Y1228D02*
X1231Y1228D01*
X1270Y1228D02*
X1296Y1228D01*
X1305Y1228D02*
X1331Y1228D01*
X1370Y1228D02*
X1396Y1228D01*
X1405Y1228D02*
X1431Y1228D01*
X1470Y1228D02*
X1496Y1228D01*
X1505Y1228D02*
X1531Y1228D01*
X1570Y1228D02*
X1596Y1228D01*
X1605Y1228D02*
X1631Y1228D01*
X1670Y1228D02*
X1696Y1228D01*
X1705Y1228D02*
X1731Y1228D01*
X970Y1227D02*
X1031Y1227D01*
X1070Y1227D02*
X1131Y1227D01*
X1170Y1227D02*
X1231Y1227D01*
X1270Y1227D02*
X1331Y1227D01*
X1370Y1227D02*
X1431Y1227D01*
X1470Y1227D02*
X1531Y1227D01*
X1570Y1227D02*
X1631Y1227D01*
X1670Y1227D02*
X1731Y1227D01*
X970Y1226D02*
X1031Y1226D01*
X1070Y1226D02*
X1131Y1226D01*
X1170Y1226D02*
X1231Y1226D01*
X1270Y1226D02*
X1331Y1226D01*
X1370Y1226D02*
X1431Y1226D01*
X1470Y1226D02*
X1531Y1226D01*
X1570Y1226D02*
X1631Y1226D01*
X1670Y1226D02*
X1731Y1226D01*
X970Y1225D02*
X1031Y1225D01*
X1070Y1225D02*
X1131Y1225D01*
X1170Y1225D02*
X1231Y1225D01*
X1270Y1225D02*
X1331Y1225D01*
X1370Y1225D02*
X1431Y1225D01*
X1470Y1225D02*
X1531Y1225D01*
X1570Y1225D02*
X1631Y1225D01*
X1670Y1225D02*
X1731Y1225D01*
X970Y1224D02*
X1031Y1224D01*
X1070Y1224D02*
X1131Y1224D01*
X1170Y1224D02*
X1231Y1224D01*
X1270Y1224D02*
X1331Y1224D01*
X1370Y1224D02*
X1431Y1224D01*
X1470Y1224D02*
X1531Y1224D01*
X1570Y1224D02*
X1631Y1224D01*
X1670Y1224D02*
X1731Y1224D01*
X970Y1223D02*
X1031Y1223D01*
X1070Y1223D02*
X1131Y1223D01*
X1170Y1223D02*
X1231Y1223D01*
X1270Y1223D02*
X1331Y1223D01*
X1370Y1223D02*
X1431Y1223D01*
X1470Y1223D02*
X1531Y1223D01*
X1570Y1223D02*
X1631Y1223D01*
X1670Y1223D02*
X1731Y1223D01*
X970Y1222D02*
X1031Y1222D01*
X1070Y1222D02*
X1131Y1222D01*
X1170Y1222D02*
X1231Y1222D01*
X1270Y1222D02*
X1331Y1222D01*
X1370Y1222D02*
X1431Y1222D01*
X1470Y1222D02*
X1531Y1222D01*
X1570Y1222D02*
X1631Y1222D01*
X1670Y1222D02*
X1731Y1222D01*
X970Y1221D02*
X1031Y1221D01*
X1070Y1221D02*
X1131Y1221D01*
X1170Y1221D02*
X1231Y1221D01*
X1270Y1221D02*
X1331Y1221D01*
X1370Y1221D02*
X1431Y1221D01*
X1470Y1221D02*
X1531Y1221D01*
X1570Y1221D02*
X1631Y1221D01*
X1670Y1221D02*
X1731Y1221D01*
X970Y1220D02*
X1031Y1220D01*
X1070Y1220D02*
X1131Y1220D01*
X1170Y1220D02*
X1231Y1220D01*
X1270Y1220D02*
X1331Y1220D01*
X1370Y1220D02*
X1431Y1220D01*
X1470Y1220D02*
X1531Y1220D01*
X1570Y1220D02*
X1631Y1220D01*
X1670Y1220D02*
X1731Y1220D01*
X970Y1219D02*
X1031Y1219D01*
X1070Y1219D02*
X1131Y1219D01*
X1170Y1219D02*
X1231Y1219D01*
X1270Y1219D02*
X1331Y1219D01*
X1370Y1219D02*
X1431Y1219D01*
X1470Y1219D02*
X1531Y1219D01*
X1570Y1219D02*
X1631Y1219D01*
X1670Y1219D02*
X1731Y1219D01*
X970Y1218D02*
X1031Y1218D01*
X1070Y1218D02*
X1131Y1218D01*
X1170Y1218D02*
X1231Y1218D01*
X1270Y1218D02*
X1331Y1218D01*
X1370Y1218D02*
X1431Y1218D01*
X1470Y1218D02*
X1531Y1218D01*
X1570Y1218D02*
X1631Y1218D01*
X1670Y1218D02*
X1731Y1218D01*
X970Y1217D02*
X1031Y1217D01*
X1070Y1217D02*
X1131Y1217D01*
X1170Y1217D02*
X1231Y1217D01*
X1270Y1217D02*
X1331Y1217D01*
X1370Y1217D02*
X1431Y1217D01*
X1470Y1217D02*
X1531Y1217D01*
X1570Y1217D02*
X1631Y1217D01*
X1670Y1217D02*
X1731Y1217D01*
X970Y1216D02*
X1031Y1216D01*
X1070Y1216D02*
X1131Y1216D01*
X1170Y1216D02*
X1231Y1216D01*
X1270Y1216D02*
X1331Y1216D01*
X1370Y1216D02*
X1431Y1216D01*
X1470Y1216D02*
X1531Y1216D01*
X1570Y1216D02*
X1631Y1216D01*
X1670Y1216D02*
X1731Y1216D01*
X970Y1215D02*
X1031Y1215D01*
X1070Y1215D02*
X1131Y1215D01*
X1170Y1215D02*
X1231Y1215D01*
X1270Y1215D02*
X1331Y1215D01*
X1370Y1215D02*
X1431Y1215D01*
X1470Y1215D02*
X1531Y1215D01*
X1570Y1215D02*
X1631Y1215D01*
X1670Y1215D02*
X1731Y1215D01*
X970Y1214D02*
X1031Y1214D01*
X1070Y1214D02*
X1131Y1214D01*
X1170Y1214D02*
X1231Y1214D01*
X1270Y1214D02*
X1331Y1214D01*
X1370Y1214D02*
X1431Y1214D01*
X1470Y1214D02*
X1531Y1214D01*
X1570Y1214D02*
X1631Y1214D01*
X1670Y1214D02*
X1731Y1214D01*
X970Y1213D02*
X1031Y1213D01*
X1070Y1213D02*
X1131Y1213D01*
X1170Y1213D02*
X1231Y1213D01*
X1270Y1213D02*
X1331Y1213D01*
X1370Y1213D02*
X1431Y1213D01*
X1470Y1213D02*
X1531Y1213D01*
X1570Y1213D02*
X1631Y1213D01*
X1670Y1213D02*
X1731Y1213D01*
X970Y1212D02*
X1031Y1212D01*
X1070Y1212D02*
X1131Y1212D01*
X1170Y1212D02*
X1231Y1212D01*
X1270Y1212D02*
X1331Y1212D01*
X1370Y1212D02*
X1431Y1212D01*
X1470Y1212D02*
X1531Y1212D01*
X1570Y1212D02*
X1631Y1212D01*
X1670Y1212D02*
X1731Y1212D01*
X970Y1211D02*
X1031Y1211D01*
X1070Y1211D02*
X1131Y1211D01*
X1170Y1211D02*
X1231Y1211D01*
X1270Y1211D02*
X1331Y1211D01*
X1370Y1211D02*
X1431Y1211D01*
X1470Y1211D02*
X1531Y1211D01*
X1570Y1211D02*
X1631Y1211D01*
X1670Y1211D02*
X1731Y1211D01*
X971Y1210D02*
X1031Y1210D01*
X1071Y1210D02*
X1131Y1210D01*
X1171Y1210D02*
X1231Y1210D01*
X1271Y1210D02*
X1331Y1210D01*
X1371Y1210D02*
X1431Y1210D01*
X1470Y1210D02*
X1531Y1210D01*
X1570Y1210D02*
X1631Y1210D01*
X1670Y1210D02*
X1731Y1210D01*
X971Y1209D02*
X1031Y1209D01*
X1071Y1209D02*
X1131Y1209D01*
X1171Y1209D02*
X1231Y1209D01*
X1271Y1209D02*
X1331Y1209D01*
X1371Y1209D02*
X1431Y1209D01*
X1471Y1209D02*
X1531Y1209D01*
X1571Y1209D02*
X1631Y1209D01*
X1671Y1209D02*
X1731Y1209D01*
X971Y1208D02*
X1031Y1208D01*
X1071Y1208D02*
X1131Y1208D01*
X1171Y1208D02*
X1231Y1208D01*
X1271Y1208D02*
X1331Y1208D01*
X1371Y1208D02*
X1431Y1208D01*
X1471Y1208D02*
X1531Y1208D01*
X1571Y1208D02*
X1631Y1208D01*
X1671Y1208D02*
X1731Y1208D01*
X971Y1207D02*
X1031Y1207D01*
X1071Y1207D02*
X1131Y1207D01*
X1171Y1207D02*
X1231Y1207D01*
X1271Y1207D02*
X1331Y1207D01*
X1371Y1207D02*
X1431Y1207D01*
X1471Y1207D02*
X1531Y1207D01*
X1571Y1207D02*
X1631Y1207D01*
X1671Y1207D02*
X1731Y1207D01*
X971Y1206D02*
X1031Y1206D01*
X1071Y1206D02*
X1131Y1206D01*
X1171Y1206D02*
X1231Y1206D01*
X1271Y1206D02*
X1331Y1206D01*
X1371Y1206D02*
X1431Y1206D01*
X1471Y1206D02*
X1531Y1206D01*
X1571Y1206D02*
X1631Y1206D01*
X1671Y1206D02*
X1731Y1206D01*
X971Y1205D02*
X1030Y1205D01*
X1071Y1205D02*
X1130Y1205D01*
X1171Y1205D02*
X1230Y1205D01*
X1271Y1205D02*
X1330Y1205D01*
X1371Y1205D02*
X1430Y1205D01*
X1471Y1205D02*
X1530Y1205D01*
X1571Y1205D02*
X1630Y1205D01*
X1671Y1205D02*
X1730Y1205D01*
X972Y1204D02*
X1030Y1204D01*
X1072Y1204D02*
X1130Y1204D01*
X1172Y1204D02*
X1230Y1204D01*
X1272Y1204D02*
X1330Y1204D01*
X1372Y1204D02*
X1430Y1204D01*
X1472Y1204D02*
X1530Y1204D01*
X1572Y1204D02*
X1630Y1204D01*
X1672Y1204D02*
X1730Y1204D01*
X972Y1203D02*
X1030Y1203D01*
X1072Y1203D02*
X1130Y1203D01*
X1172Y1203D02*
X1230Y1203D01*
X1272Y1203D02*
X1330Y1203D01*
X1372Y1203D02*
X1430Y1203D01*
X1472Y1203D02*
X1530Y1203D01*
X1572Y1203D02*
X1630Y1203D01*
X1672Y1203D02*
X1730Y1203D01*
X972Y1202D02*
X1029Y1202D01*
X1072Y1202D02*
X1129Y1202D01*
X1172Y1202D02*
X1229Y1202D01*
X1272Y1202D02*
X1329Y1202D01*
X1372Y1202D02*
X1429Y1202D01*
X1472Y1202D02*
X1529Y1202D01*
X1572Y1202D02*
X1629Y1202D01*
X1672Y1202D02*
X1729Y1202D01*
X973Y1201D02*
X1029Y1201D01*
X1073Y1201D02*
X1129Y1201D01*
X1173Y1201D02*
X1229Y1201D01*
X1273Y1201D02*
X1329Y1201D01*
X1373Y1201D02*
X1429Y1201D01*
X1473Y1201D02*
X1529Y1201D01*
X1573Y1201D02*
X1629Y1201D01*
X1673Y1201D02*
X1729Y1201D01*
X973Y1200D02*
X1029Y1200D01*
X1073Y1200D02*
X1129Y1200D01*
X1173Y1200D02*
X1229Y1200D01*
X1273Y1200D02*
X1329Y1200D01*
X1373Y1200D02*
X1429Y1200D01*
X1473Y1200D02*
X1529Y1200D01*
X1573Y1200D02*
X1629Y1200D01*
X1673Y1200D02*
X1729Y1200D01*
X974Y1199D02*
X1028Y1199D01*
X1074Y1199D02*
X1128Y1199D01*
X1174Y1199D02*
X1228Y1199D01*
X1274Y1199D02*
X1328Y1199D01*
X1374Y1199D02*
X1428Y1199D01*
X1474Y1199D02*
X1528Y1199D01*
X1574Y1199D02*
X1628Y1199D01*
X1674Y1199D02*
X1728Y1199D01*
X974Y1198D02*
X1028Y1198D01*
X1074Y1198D02*
X1128Y1198D01*
X1174Y1198D02*
X1228Y1198D01*
X1274Y1198D02*
X1328Y1198D01*
X1374Y1198D02*
X1428Y1198D01*
X1474Y1198D02*
X1528Y1198D01*
X1574Y1198D02*
X1628Y1198D01*
X1674Y1198D02*
X1728Y1198D01*
X975Y1197D02*
X1027Y1197D01*
X1075Y1197D02*
X1127Y1197D01*
X1175Y1197D02*
X1227Y1197D01*
X1275Y1197D02*
X1327Y1197D01*
X1375Y1197D02*
X1427Y1197D01*
X1475Y1197D02*
X1527Y1197D01*
X1575Y1197D02*
X1627Y1197D01*
X1675Y1197D02*
X1727Y1197D01*
X975Y1196D02*
X1027Y1196D01*
X1075Y1196D02*
X1127Y1196D01*
X1175Y1196D02*
X1227Y1196D01*
X1275Y1196D02*
X1327Y1196D01*
X1375Y1196D02*
X1427Y1196D01*
X1475Y1196D02*
X1527Y1196D01*
X1575Y1196D02*
X1627Y1196D01*
X1675Y1196D02*
X1727Y1196D01*
X976Y1195D02*
X1026Y1195D01*
X1076Y1195D02*
X1126Y1195D01*
X1176Y1195D02*
X1226Y1195D01*
X1276Y1195D02*
X1326Y1195D01*
X1376Y1195D02*
X1426Y1195D01*
X1476Y1195D02*
X1526Y1195D01*
X1576Y1195D02*
X1626Y1195D01*
X1676Y1195D02*
X1726Y1195D01*
X976Y1194D02*
X1025Y1194D01*
X1076Y1194D02*
X1125Y1194D01*
X1176Y1194D02*
X1225Y1194D01*
X1276Y1194D02*
X1325Y1194D01*
X1376Y1194D02*
X1425Y1194D01*
X1476Y1194D02*
X1525Y1194D01*
X1576Y1194D02*
X1625Y1194D01*
X1676Y1194D02*
X1725Y1194D01*
X977Y1193D02*
X1025Y1193D01*
X1077Y1193D02*
X1125Y1193D01*
X1177Y1193D02*
X1225Y1193D01*
X1277Y1193D02*
X1325Y1193D01*
X1377Y1193D02*
X1425Y1193D01*
X1477Y1193D02*
X1525Y1193D01*
X1577Y1193D02*
X1625Y1193D01*
X1677Y1193D02*
X1725Y1193D01*
X978Y1192D02*
X1024Y1192D01*
X1078Y1192D02*
X1124Y1192D01*
X1178Y1192D02*
X1224Y1192D01*
X1278Y1192D02*
X1324Y1192D01*
X1378Y1192D02*
X1424Y1192D01*
X1478Y1192D02*
X1524Y1192D01*
X1578Y1192D02*
X1624Y1192D01*
X1678Y1192D02*
X1724Y1192D01*
X979Y1191D02*
X1023Y1191D01*
X1079Y1191D02*
X1123Y1191D01*
X1179Y1191D02*
X1223Y1191D01*
X1279Y1191D02*
X1323Y1191D01*
X1379Y1191D02*
X1423Y1191D01*
X1479Y1191D02*
X1523Y1191D01*
X1579Y1191D02*
X1623Y1191D01*
X1679Y1191D02*
X1723Y1191D01*
X980Y1190D02*
X1022Y1190D01*
X1080Y1190D02*
X1122Y1190D01*
X1180Y1190D02*
X1222Y1190D01*
X1280Y1190D02*
X1322Y1190D01*
X1380Y1190D02*
X1422Y1190D01*
X1480Y1190D02*
X1522Y1190D01*
X1580Y1190D02*
X1622Y1190D01*
X1680Y1190D02*
X1722Y1190D01*
X981Y1189D02*
X1021Y1189D01*
X1081Y1189D02*
X1121Y1189D01*
X1181Y1189D02*
X1221Y1189D01*
X1281Y1189D02*
X1321Y1189D01*
X1381Y1189D02*
X1421Y1189D01*
X1481Y1189D02*
X1521Y1189D01*
X1581Y1189D02*
X1621Y1189D01*
X1681Y1189D02*
X1721Y1189D01*
X982Y1188D02*
X1019Y1188D01*
X1082Y1188D02*
X1119Y1188D01*
X1182Y1188D02*
X1219Y1188D01*
X1282Y1188D02*
X1319Y1188D01*
X1382Y1188D02*
X1419Y1188D01*
X1482Y1188D02*
X1519Y1188D01*
X1582Y1188D02*
X1619Y1188D01*
X1682Y1188D02*
X1719Y1188D01*
X984Y1187D02*
X1018Y1187D01*
X1084Y1187D02*
X1118Y1187D01*
X1184Y1187D02*
X1218Y1187D01*
X1284Y1187D02*
X1318Y1187D01*
X1384Y1187D02*
X1418Y1187D01*
X1484Y1187D02*
X1518Y1187D01*
X1584Y1187D02*
X1618Y1187D01*
X1684Y1187D02*
X1718Y1187D01*
X985Y1186D02*
X1017Y1186D01*
X1085Y1186D02*
X1117Y1186D01*
X1185Y1186D02*
X1217Y1186D01*
X1285Y1186D02*
X1317Y1186D01*
X1385Y1186D02*
X1417Y1186D01*
X1485Y1186D02*
X1517Y1186D01*
X1585Y1186D02*
X1616Y1186D01*
X1685Y1186D02*
X1716Y1186D01*
X987Y1185D02*
X1015Y1185D01*
X1087Y1185D02*
X1115Y1185D01*
X1187Y1185D02*
X1215Y1185D01*
X1287Y1185D02*
X1315Y1185D01*
X1387Y1185D02*
X1415Y1185D01*
X1487Y1185D02*
X1515Y1185D01*
X1587Y1185D02*
X1615Y1185D01*
X1687Y1185D02*
X1715Y1185D01*
X989Y1184D02*
X1013Y1184D01*
X1089Y1184D02*
X1113Y1184D01*
X1189Y1184D02*
X1213Y1184D01*
X1289Y1184D02*
X1313Y1184D01*
X1389Y1184D02*
X1413Y1184D01*
X1489Y1184D02*
X1513Y1184D01*
X1589Y1184D02*
X1613Y1184D01*
X1689Y1184D02*
X1713Y1184D01*
X992Y1183D02*
X1010Y1183D01*
X1092Y1183D02*
X1110Y1183D01*
X1192Y1183D02*
X1210Y1183D01*
X1292Y1183D02*
X1310Y1183D01*
X1392Y1183D02*
X1410Y1183D01*
X1492Y1183D02*
X1510Y1183D01*
X1592Y1183D02*
X1610Y1183D01*
X1692Y1183D02*
X1710Y1183D01*
X995Y1182D02*
X1006Y1182D01*
X1095Y1182D02*
X1106Y1182D01*
X1195Y1182D02*
X1206Y1182D01*
X1295Y1182D02*
X1306Y1182D01*
X1395Y1182D02*
X1406Y1182D01*
X1495Y1182D02*
X1506Y1182D01*
X1595Y1182D02*
X1606Y1182D01*
X1695Y1182D02*
X1706Y1182D01*
X997Y995D02*
X1005Y995D01*
X1097Y995D02*
X1105Y995D01*
X1197Y995D02*
X1205Y995D01*
X1297Y995D02*
X1305Y995D01*
X1397Y995D02*
X1405Y995D01*
X1497Y995D02*
X1505Y995D01*
X1597Y995D02*
X1605Y995D01*
X1697Y995D02*
X1705Y995D01*
X992Y994D02*
X1009Y994D01*
X1092Y994D02*
X1109Y994D01*
X1192Y994D02*
X1209Y994D01*
X1292Y994D02*
X1309Y994D01*
X1392Y994D02*
X1409Y994D01*
X1492Y994D02*
X1509Y994D01*
X1592Y994D02*
X1609Y994D01*
X1692Y994D02*
X1709Y994D01*
X990Y993D02*
X1012Y993D01*
X1090Y993D02*
X1112Y993D01*
X1190Y993D02*
X1212Y993D01*
X1290Y993D02*
X1312Y993D01*
X1390Y993D02*
X1412Y993D01*
X1490Y993D02*
X1512Y993D01*
X1590Y993D02*
X1612Y993D01*
X1690Y993D02*
X1712Y993D01*
X987Y992D02*
X1014Y992D01*
X1087Y992D02*
X1114Y992D01*
X1187Y992D02*
X1214Y992D01*
X1287Y992D02*
X1314Y992D01*
X1387Y992D02*
X1414Y992D01*
X1487Y992D02*
X1514Y992D01*
X1587Y992D02*
X1614Y992D01*
X1687Y992D02*
X1714Y992D01*
X986Y991D02*
X1016Y991D01*
X1086Y991D02*
X1116Y991D01*
X1186Y991D02*
X1216Y991D01*
X1286Y991D02*
X1316Y991D01*
X1386Y991D02*
X1416Y991D01*
X1486Y991D02*
X1516Y991D01*
X1586Y991D02*
X1616Y991D01*
X1686Y991D02*
X1716Y991D01*
X984Y990D02*
X1018Y990D01*
X1084Y990D02*
X1118Y990D01*
X1184Y990D02*
X1218Y990D01*
X1284Y990D02*
X1318Y990D01*
X1384Y990D02*
X1418Y990D01*
X1484Y990D02*
X1518Y990D01*
X1584Y990D02*
X1618Y990D01*
X1684Y990D02*
X1718Y990D01*
X983Y989D02*
X1019Y989D01*
X1083Y989D02*
X1119Y989D01*
X1183Y989D02*
X1219Y989D01*
X1283Y989D02*
X1319Y989D01*
X1383Y989D02*
X1419Y989D01*
X1483Y989D02*
X1519Y989D01*
X1583Y989D02*
X1619Y989D01*
X1683Y989D02*
X1719Y989D01*
X981Y988D02*
X1020Y988D01*
X1081Y988D02*
X1120Y988D01*
X1181Y988D02*
X1220Y988D01*
X1281Y988D02*
X1320Y988D01*
X1381Y988D02*
X1420Y988D01*
X1481Y988D02*
X1520Y988D01*
X1581Y988D02*
X1620Y988D01*
X1681Y988D02*
X1720Y988D01*
X980Y987D02*
X1022Y987D01*
X1080Y987D02*
X1122Y987D01*
X1180Y987D02*
X1222Y987D01*
X1280Y987D02*
X1322Y987D01*
X1380Y987D02*
X1422Y987D01*
X1480Y987D02*
X1522Y987D01*
X1580Y987D02*
X1622Y987D01*
X1680Y987D02*
X1722Y987D01*
X979Y986D02*
X1023Y986D01*
X1079Y986D02*
X1123Y986D01*
X1179Y986D02*
X1223Y986D01*
X1279Y986D02*
X1323Y986D01*
X1379Y986D02*
X1423Y986D01*
X1479Y986D02*
X1523Y986D01*
X1579Y986D02*
X1623Y986D01*
X1679Y986D02*
X1723Y986D01*
X978Y985D02*
X1024Y985D01*
X1078Y985D02*
X1124Y985D01*
X1178Y985D02*
X1224Y985D01*
X1278Y985D02*
X1324Y985D01*
X1378Y985D02*
X1424Y985D01*
X1478Y985D02*
X1524Y985D01*
X1578Y985D02*
X1624Y985D01*
X1678Y985D02*
X1724Y985D01*
X977Y984D02*
X1024Y984D01*
X1077Y984D02*
X1124Y984D01*
X1177Y984D02*
X1224Y984D01*
X1277Y984D02*
X1324Y984D01*
X1377Y984D02*
X1424Y984D01*
X1477Y984D02*
X1524Y984D01*
X1577Y984D02*
X1624Y984D01*
X1677Y984D02*
X1724Y984D01*
X977Y983D02*
X1025Y983D01*
X1077Y983D02*
X1125Y983D01*
X1177Y983D02*
X1225Y983D01*
X1277Y983D02*
X1325Y983D01*
X1377Y983D02*
X1425Y983D01*
X1477Y983D02*
X1525Y983D01*
X1577Y983D02*
X1625Y983D01*
X1677Y983D02*
X1725Y983D01*
X976Y982D02*
X1026Y982D01*
X1076Y982D02*
X1126Y982D01*
X1176Y982D02*
X1226Y982D01*
X1276Y982D02*
X1326Y982D01*
X1376Y982D02*
X1426Y982D01*
X1476Y982D02*
X1526Y982D01*
X1576Y982D02*
X1626Y982D01*
X1676Y982D02*
X1726Y982D01*
X975Y981D02*
X1026Y981D01*
X1075Y981D02*
X1126Y981D01*
X1175Y981D02*
X1226Y981D01*
X1275Y981D02*
X1326Y981D01*
X1375Y981D02*
X1426Y981D01*
X1475Y981D02*
X1526Y981D01*
X1575Y981D02*
X1626Y981D01*
X1675Y981D02*
X1726Y981D01*
X975Y980D02*
X1027Y980D01*
X1075Y980D02*
X1127Y980D01*
X1175Y980D02*
X1227Y980D01*
X1275Y980D02*
X1327Y980D01*
X1375Y980D02*
X1427Y980D01*
X1475Y980D02*
X1527Y980D01*
X1575Y980D02*
X1627Y980D01*
X1675Y980D02*
X1727Y980D01*
X974Y979D02*
X1028Y979D01*
X1074Y979D02*
X1128Y979D01*
X1174Y979D02*
X1228Y979D01*
X1274Y979D02*
X1328Y979D01*
X1374Y979D02*
X1428Y979D01*
X1474Y979D02*
X1528Y979D01*
X1574Y979D02*
X1628Y979D01*
X1674Y979D02*
X1728Y979D01*
X974Y978D02*
X1028Y978D01*
X1074Y978D02*
X1128Y978D01*
X1174Y978D02*
X1228Y978D01*
X1274Y978D02*
X1328Y978D01*
X1374Y978D02*
X1428Y978D01*
X1474Y978D02*
X1528Y978D01*
X1574Y978D02*
X1628Y978D01*
X1674Y978D02*
X1728Y978D01*
X973Y977D02*
X1029Y977D01*
X1073Y977D02*
X1129Y977D01*
X1173Y977D02*
X1229Y977D01*
X1273Y977D02*
X1329Y977D01*
X1373Y977D02*
X1429Y977D01*
X1473Y977D02*
X1529Y977D01*
X1573Y977D02*
X1629Y977D01*
X1673Y977D02*
X1729Y977D01*
X973Y976D02*
X1029Y976D01*
X1073Y976D02*
X1129Y976D01*
X1173Y976D02*
X1229Y976D01*
X1273Y976D02*
X1329Y976D01*
X1373Y976D02*
X1429Y976D01*
X1473Y976D02*
X1529Y976D01*
X1573Y976D02*
X1629Y976D01*
X1673Y976D02*
X1729Y976D01*
X972Y975D02*
X1029Y975D01*
X1072Y975D02*
X1129Y975D01*
X1172Y975D02*
X1229Y975D01*
X1272Y975D02*
X1329Y975D01*
X1372Y975D02*
X1429Y975D01*
X1472Y975D02*
X1529Y975D01*
X1572Y975D02*
X1629Y975D01*
X1672Y975D02*
X1729Y975D01*
X972Y974D02*
X1030Y974D01*
X1072Y974D02*
X1130Y974D01*
X1172Y974D02*
X1230Y974D01*
X1272Y974D02*
X1330Y974D01*
X1372Y974D02*
X1430Y974D01*
X1472Y974D02*
X1530Y974D01*
X1572Y974D02*
X1630Y974D01*
X1672Y974D02*
X1730Y974D01*
X972Y973D02*
X1030Y973D01*
X1072Y973D02*
X1130Y973D01*
X1172Y973D02*
X1230Y973D01*
X1272Y973D02*
X1330Y973D01*
X1372Y973D02*
X1430Y973D01*
X1472Y973D02*
X1530Y973D01*
X1572Y973D02*
X1630Y973D01*
X1672Y973D02*
X1730Y973D01*
X971Y972D02*
X1030Y972D01*
X1071Y972D02*
X1130Y972D01*
X1171Y972D02*
X1230Y972D01*
X1271Y972D02*
X1330Y972D01*
X1371Y972D02*
X1430Y972D01*
X1471Y972D02*
X1530Y972D01*
X1571Y972D02*
X1630Y972D01*
X1671Y972D02*
X1730Y972D01*
X971Y971D02*
X1031Y971D01*
X1071Y971D02*
X1131Y971D01*
X1171Y971D02*
X1231Y971D01*
X1271Y971D02*
X1331Y971D01*
X1371Y971D02*
X1431Y971D01*
X1471Y971D02*
X1531Y971D01*
X1571Y971D02*
X1631Y971D01*
X1671Y971D02*
X1731Y971D01*
X971Y970D02*
X1031Y970D01*
X1071Y970D02*
X1131Y970D01*
X1171Y970D02*
X1231Y970D01*
X1271Y970D02*
X1331Y970D01*
X1371Y970D02*
X1431Y970D01*
X1471Y970D02*
X1531Y970D01*
X1571Y970D02*
X1631Y970D01*
X1671Y970D02*
X1731Y970D01*
X971Y969D02*
X1031Y969D01*
X1071Y969D02*
X1131Y969D01*
X1171Y969D02*
X1231Y969D01*
X1271Y969D02*
X1331Y969D01*
X1371Y969D02*
X1431Y969D01*
X1471Y969D02*
X1531Y969D01*
X1571Y969D02*
X1631Y969D01*
X1671Y969D02*
X1731Y969D01*
X971Y968D02*
X1031Y968D01*
X1071Y968D02*
X1131Y968D01*
X1171Y968D02*
X1231Y968D01*
X1271Y968D02*
X1331Y968D01*
X1371Y968D02*
X1431Y968D01*
X1471Y968D02*
X1531Y968D01*
X1571Y968D02*
X1631Y968D01*
X1671Y968D02*
X1731Y968D01*
X971Y967D02*
X1031Y967D01*
X1071Y967D02*
X1131Y967D01*
X1171Y967D02*
X1231Y967D01*
X1271Y967D02*
X1331Y967D01*
X1371Y967D02*
X1431Y967D01*
X1470Y967D02*
X1531Y967D01*
X1570Y967D02*
X1631Y967D01*
X1670Y967D02*
X1731Y967D01*
X970Y966D02*
X1031Y966D01*
X1070Y966D02*
X1131Y966D01*
X1170Y966D02*
X1231Y966D01*
X1270Y966D02*
X1331Y966D01*
X1370Y966D02*
X1431Y966D01*
X1470Y966D02*
X1531Y966D01*
X1570Y966D02*
X1631Y966D01*
X1670Y966D02*
X1731Y966D01*
X970Y965D02*
X1031Y965D01*
X1070Y965D02*
X1131Y965D01*
X1170Y965D02*
X1231Y965D01*
X1270Y965D02*
X1331Y965D01*
X1370Y965D02*
X1431Y965D01*
X1470Y965D02*
X1531Y965D01*
X1570Y965D02*
X1631Y965D01*
X1670Y965D02*
X1731Y965D01*
X970Y964D02*
X1031Y964D01*
X1070Y964D02*
X1131Y964D01*
X1170Y964D02*
X1231Y964D01*
X1270Y964D02*
X1331Y964D01*
X1370Y964D02*
X1431Y964D01*
X1470Y964D02*
X1531Y964D01*
X1570Y964D02*
X1631Y964D01*
X1670Y964D02*
X1731Y964D01*
X970Y963D02*
X1031Y963D01*
X1070Y963D02*
X1131Y963D01*
X1170Y963D02*
X1231Y963D01*
X1270Y963D02*
X1331Y963D01*
X1370Y963D02*
X1431Y963D01*
X1470Y963D02*
X1531Y963D01*
X1570Y963D02*
X1631Y963D01*
X1670Y963D02*
X1731Y963D01*
X970Y962D02*
X1031Y962D01*
X1070Y962D02*
X1131Y962D01*
X1170Y962D02*
X1231Y962D01*
X1270Y962D02*
X1331Y962D01*
X1370Y962D02*
X1431Y962D01*
X1470Y962D02*
X1531Y962D01*
X1570Y962D02*
X1631Y962D01*
X1670Y962D02*
X1731Y962D01*
X970Y961D02*
X1031Y961D01*
X1070Y961D02*
X1131Y961D01*
X1170Y961D02*
X1231Y961D01*
X1270Y961D02*
X1331Y961D01*
X1370Y961D02*
X1431Y961D01*
X1470Y961D02*
X1531Y961D01*
X1570Y961D02*
X1631Y961D01*
X1670Y961D02*
X1731Y961D01*
X970Y960D02*
X1031Y960D01*
X1070Y960D02*
X1131Y960D01*
X1170Y960D02*
X1231Y960D01*
X1270Y960D02*
X1331Y960D01*
X1370Y960D02*
X1431Y960D01*
X1470Y960D02*
X1531Y960D01*
X1570Y960D02*
X1631Y960D01*
X1670Y960D02*
X1731Y960D01*
X970Y959D02*
X1031Y959D01*
X1070Y959D02*
X1131Y959D01*
X1170Y959D02*
X1231Y959D01*
X1270Y959D02*
X1331Y959D01*
X1370Y959D02*
X1431Y959D01*
X1470Y959D02*
X1531Y959D01*
X1570Y959D02*
X1631Y959D01*
X1670Y959D02*
X1731Y959D01*
X970Y958D02*
X1031Y958D01*
X1070Y958D02*
X1131Y958D01*
X1170Y958D02*
X1231Y958D01*
X1270Y958D02*
X1331Y958D01*
X1370Y958D02*
X1431Y958D01*
X1470Y958D02*
X1531Y958D01*
X1570Y958D02*
X1631Y958D01*
X1670Y958D02*
X1731Y958D01*
X970Y957D02*
X1031Y957D01*
X1070Y957D02*
X1131Y957D01*
X1170Y957D02*
X1231Y957D01*
X1270Y957D02*
X1331Y957D01*
X1370Y957D02*
X1431Y957D01*
X1470Y957D02*
X1531Y957D01*
X1570Y957D02*
X1631Y957D01*
X1670Y957D02*
X1731Y957D01*
X970Y956D02*
X1031Y956D01*
X1070Y956D02*
X1131Y956D01*
X1170Y956D02*
X1231Y956D01*
X1270Y956D02*
X1331Y956D01*
X1370Y956D02*
X1431Y956D01*
X1470Y956D02*
X1531Y956D01*
X1570Y956D02*
X1631Y956D01*
X1670Y956D02*
X1731Y956D01*
X970Y955D02*
X1031Y955D01*
X1070Y955D02*
X1131Y955D01*
X1170Y955D02*
X1231Y955D01*
X1270Y955D02*
X1331Y955D01*
X1370Y955D02*
X1431Y955D01*
X1470Y955D02*
X1531Y955D01*
X1570Y955D02*
X1631Y955D01*
X1670Y955D02*
X1731Y955D01*
X970Y954D02*
X1031Y954D01*
X1070Y954D02*
X1131Y954D01*
X1170Y954D02*
X1231Y954D01*
X1270Y954D02*
X1331Y954D01*
X1370Y954D02*
X1431Y954D01*
X1470Y954D02*
X1531Y954D01*
X1570Y954D02*
X1631Y954D01*
X1670Y954D02*
X1731Y954D01*
X970Y953D02*
X1031Y953D01*
X1070Y953D02*
X1131Y953D01*
X1170Y953D02*
X1231Y953D01*
X1270Y953D02*
X1331Y953D01*
X1370Y953D02*
X1431Y953D01*
X1470Y953D02*
X1531Y953D01*
X1570Y953D02*
X1631Y953D01*
X1670Y953D02*
X1731Y953D01*
X970Y952D02*
X1031Y952D01*
X1070Y952D02*
X1131Y952D01*
X1170Y952D02*
X1231Y952D01*
X1270Y952D02*
X1331Y952D01*
X1370Y952D02*
X1431Y952D01*
X1470Y952D02*
X1531Y952D01*
X1570Y952D02*
X1631Y952D01*
X1670Y952D02*
X1731Y952D01*
X970Y951D02*
X1031Y951D01*
X1070Y951D02*
X1131Y951D01*
X1170Y951D02*
X1231Y951D01*
X1270Y951D02*
X1331Y951D01*
X1370Y951D02*
X1431Y951D01*
X1470Y951D02*
X1531Y951D01*
X1570Y951D02*
X1631Y951D01*
X1670Y951D02*
X1731Y951D01*
X970Y950D02*
X1031Y950D01*
X1070Y950D02*
X1131Y950D01*
X1170Y950D02*
X1231Y950D01*
X1270Y950D02*
X1331Y950D01*
X1370Y950D02*
X1431Y950D01*
X1470Y950D02*
X1531Y950D01*
X1570Y950D02*
X1631Y950D01*
X1670Y950D02*
X1731Y950D01*
X970Y949D02*
X997Y949D01*
X1005Y949D02*
X1031Y949D01*
X1070Y949D02*
X1097Y949D01*
X1105Y949D02*
X1131Y949D01*
X1170Y949D02*
X1197Y949D01*
X1205Y949D02*
X1231Y949D01*
X1270Y949D02*
X1297Y949D01*
X1305Y949D02*
X1331Y949D01*
X1370Y949D02*
X1397Y949D01*
X1405Y949D02*
X1431Y949D01*
X1470Y949D02*
X1497Y949D01*
X1505Y949D02*
X1531Y949D01*
X1570Y949D02*
X1597Y949D01*
X1605Y949D02*
X1631Y949D01*
X1670Y949D02*
X1697Y949D01*
X1705Y949D02*
X1731Y949D01*
X970Y948D02*
X995Y948D01*
X1007Y948D02*
X1031Y948D01*
X1070Y948D02*
X1095Y948D01*
X1107Y948D02*
X1131Y948D01*
X1170Y948D02*
X1195Y948D01*
X1207Y948D02*
X1231Y948D01*
X1270Y948D02*
X1295Y948D01*
X1307Y948D02*
X1331Y948D01*
X1370Y948D02*
X1395Y948D01*
X1407Y948D02*
X1431Y948D01*
X1470Y948D02*
X1495Y948D01*
X1507Y948D02*
X1531Y948D01*
X1570Y948D02*
X1595Y948D01*
X1607Y948D02*
X1631Y948D01*
X1670Y948D02*
X1695Y948D01*
X1707Y948D02*
X1731Y948D01*
X970Y947D02*
X993Y947D01*
X1008Y947D02*
X1031Y947D01*
X1070Y947D02*
X1093Y947D01*
X1108Y947D02*
X1131Y947D01*
X1170Y947D02*
X1193Y947D01*
X1208Y947D02*
X1231Y947D01*
X1270Y947D02*
X1293Y947D01*
X1308Y947D02*
X1331Y947D01*
X1370Y947D02*
X1393Y947D01*
X1408Y947D02*
X1431Y947D01*
X1470Y947D02*
X1493Y947D01*
X1508Y947D02*
X1531Y947D01*
X1570Y947D02*
X1593Y947D01*
X1608Y947D02*
X1631Y947D01*
X1670Y947D02*
X1693Y947D01*
X1708Y947D02*
X1731Y947D01*
X970Y946D02*
X992Y946D01*
X1009Y946D02*
X1031Y946D01*
X1070Y946D02*
X1092Y946D01*
X1109Y946D02*
X1131Y946D01*
X1170Y946D02*
X1192Y946D01*
X1209Y946D02*
X1231Y946D01*
X1270Y946D02*
X1292Y946D01*
X1309Y946D02*
X1331Y946D01*
X1370Y946D02*
X1392Y946D01*
X1409Y946D02*
X1431Y946D01*
X1470Y946D02*
X1492Y946D01*
X1509Y946D02*
X1531Y946D01*
X1570Y946D02*
X1592Y946D01*
X1609Y946D02*
X1631Y946D01*
X1670Y946D02*
X1692Y946D01*
X1709Y946D02*
X1731Y946D01*
X970Y945D02*
X992Y945D01*
X1010Y945D02*
X1031Y945D01*
X1070Y945D02*
X1092Y945D01*
X1110Y945D02*
X1131Y945D01*
X1170Y945D02*
X1192Y945D01*
X1210Y945D02*
X1231Y945D01*
X1270Y945D02*
X1292Y945D01*
X1310Y945D02*
X1331Y945D01*
X1370Y945D02*
X1392Y945D01*
X1410Y945D02*
X1431Y945D01*
X1470Y945D02*
X1492Y945D01*
X1510Y945D02*
X1531Y945D01*
X1570Y945D02*
X1592Y945D01*
X1610Y945D02*
X1631Y945D01*
X1670Y945D02*
X1692Y945D01*
X1710Y945D02*
X1731Y945D01*
X970Y944D02*
X991Y944D01*
X1011Y944D02*
X1031Y944D01*
X1070Y944D02*
X1091Y944D01*
X1111Y944D02*
X1131Y944D01*
X1170Y944D02*
X1191Y944D01*
X1211Y944D02*
X1231Y944D01*
X1270Y944D02*
X1291Y944D01*
X1311Y944D02*
X1331Y944D01*
X1370Y944D02*
X1391Y944D01*
X1411Y944D02*
X1431Y944D01*
X1470Y944D02*
X1491Y944D01*
X1511Y944D02*
X1531Y944D01*
X1570Y944D02*
X1591Y944D01*
X1611Y944D02*
X1631Y944D01*
X1670Y944D02*
X1691Y944D01*
X1711Y944D02*
X1731Y944D01*
X970Y943D02*
X990Y943D01*
X1011Y943D02*
X1031Y943D01*
X1070Y943D02*
X1090Y943D01*
X1111Y943D02*
X1131Y943D01*
X1170Y943D02*
X1190Y943D01*
X1211Y943D02*
X1231Y943D01*
X1270Y943D02*
X1290Y943D01*
X1311Y943D02*
X1331Y943D01*
X1370Y943D02*
X1390Y943D01*
X1411Y943D02*
X1431Y943D01*
X1470Y943D02*
X1490Y943D01*
X1511Y943D02*
X1531Y943D01*
X1570Y943D02*
X1590Y943D01*
X1611Y943D02*
X1631Y943D01*
X1670Y943D02*
X1690Y943D01*
X1711Y943D02*
X1731Y943D01*
X970Y942D02*
X990Y942D01*
X1012Y942D02*
X1031Y942D01*
X1070Y942D02*
X1090Y942D01*
X1112Y942D02*
X1131Y942D01*
X1170Y942D02*
X1190Y942D01*
X1212Y942D02*
X1231Y942D01*
X1270Y942D02*
X1290Y942D01*
X1312Y942D02*
X1331Y942D01*
X1370Y942D02*
X1390Y942D01*
X1412Y942D02*
X1431Y942D01*
X1470Y942D02*
X1490Y942D01*
X1512Y942D02*
X1531Y942D01*
X1570Y942D02*
X1590Y942D01*
X1612Y942D02*
X1631Y942D01*
X1670Y942D02*
X1690Y942D01*
X1712Y942D02*
X1731Y942D01*
X970Y941D02*
X990Y941D01*
X1012Y941D02*
X1031Y941D01*
X1070Y941D02*
X1090Y941D01*
X1112Y941D02*
X1131Y941D01*
X1170Y941D02*
X1190Y941D01*
X1212Y941D02*
X1231Y941D01*
X1270Y941D02*
X1290Y941D01*
X1312Y941D02*
X1331Y941D01*
X1370Y941D02*
X1390Y941D01*
X1412Y941D02*
X1431Y941D01*
X1470Y941D02*
X1490Y941D01*
X1512Y941D02*
X1531Y941D01*
X1570Y941D02*
X1590Y941D01*
X1612Y941D02*
X1631Y941D01*
X1670Y941D02*
X1690Y941D01*
X1712Y941D02*
X1731Y941D01*
X970Y940D02*
X989Y940D01*
X1012Y940D02*
X1031Y940D01*
X1070Y940D02*
X1089Y940D01*
X1112Y940D02*
X1131Y940D01*
X1170Y940D02*
X1189Y940D01*
X1212Y940D02*
X1231Y940D01*
X1270Y940D02*
X1289Y940D01*
X1312Y940D02*
X1331Y940D01*
X1370Y940D02*
X1389Y940D01*
X1412Y940D02*
X1431Y940D01*
X1470Y940D02*
X1489Y940D01*
X1512Y940D02*
X1531Y940D01*
X1570Y940D02*
X1589Y940D01*
X1612Y940D02*
X1631Y940D01*
X1670Y940D02*
X1689Y940D01*
X1712Y940D02*
X1731Y940D01*
X970Y939D02*
X989Y939D01*
X1012Y939D02*
X1031Y939D01*
X1070Y939D02*
X1089Y939D01*
X1112Y939D02*
X1131Y939D01*
X1170Y939D02*
X1189Y939D01*
X1212Y939D02*
X1231Y939D01*
X1270Y939D02*
X1289Y939D01*
X1312Y939D02*
X1331Y939D01*
X1370Y939D02*
X1389Y939D01*
X1412Y939D02*
X1431Y939D01*
X1470Y939D02*
X1489Y939D01*
X1512Y939D02*
X1531Y939D01*
X1570Y939D02*
X1589Y939D01*
X1612Y939D02*
X1631Y939D01*
X1670Y939D02*
X1689Y939D01*
X1712Y939D02*
X1731Y939D01*
X970Y938D02*
X989Y938D01*
X1012Y938D02*
X1031Y938D01*
X1070Y938D02*
X1089Y938D01*
X1112Y938D02*
X1131Y938D01*
X1170Y938D02*
X1189Y938D01*
X1212Y938D02*
X1231Y938D01*
X1270Y938D02*
X1289Y938D01*
X1312Y938D02*
X1331Y938D01*
X1370Y938D02*
X1389Y938D01*
X1412Y938D02*
X1431Y938D01*
X1470Y938D02*
X1489Y938D01*
X1512Y938D02*
X1531Y938D01*
X1570Y938D02*
X1589Y938D01*
X1612Y938D02*
X1631Y938D01*
X1670Y938D02*
X1689Y938D01*
X1712Y938D02*
X1731Y938D01*
X970Y937D02*
X989Y937D01*
X1012Y937D02*
X1031Y937D01*
X1070Y937D02*
X1089Y937D01*
X1112Y937D02*
X1131Y937D01*
X1170Y937D02*
X1189Y937D01*
X1212Y937D02*
X1231Y937D01*
X1270Y937D02*
X1289Y937D01*
X1312Y937D02*
X1331Y937D01*
X1370Y937D02*
X1389Y937D01*
X1412Y937D02*
X1431Y937D01*
X1470Y937D02*
X1489Y937D01*
X1512Y937D02*
X1531Y937D01*
X1570Y937D02*
X1589Y937D01*
X1612Y937D02*
X1631Y937D01*
X1670Y937D02*
X1689Y937D01*
X1712Y937D02*
X1731Y937D01*
X970Y936D02*
X990Y936D01*
X1012Y936D02*
X1031Y936D01*
X1070Y936D02*
X1090Y936D01*
X1112Y936D02*
X1131Y936D01*
X1170Y936D02*
X1190Y936D01*
X1212Y936D02*
X1231Y936D01*
X1270Y936D02*
X1290Y936D01*
X1312Y936D02*
X1331Y936D01*
X1370Y936D02*
X1390Y936D01*
X1412Y936D02*
X1431Y936D01*
X1470Y936D02*
X1490Y936D01*
X1512Y936D02*
X1531Y936D01*
X1570Y936D02*
X1590Y936D01*
X1612Y936D02*
X1631Y936D01*
X1670Y936D02*
X1690Y936D01*
X1712Y936D02*
X1731Y936D01*
X970Y935D02*
X990Y935D01*
X1012Y935D02*
X1031Y935D01*
X1070Y935D02*
X1090Y935D01*
X1112Y935D02*
X1131Y935D01*
X1170Y935D02*
X1190Y935D01*
X1212Y935D02*
X1231Y935D01*
X1270Y935D02*
X1290Y935D01*
X1312Y935D02*
X1331Y935D01*
X1370Y935D02*
X1390Y935D01*
X1412Y935D02*
X1431Y935D01*
X1470Y935D02*
X1490Y935D01*
X1512Y935D02*
X1531Y935D01*
X1570Y935D02*
X1590Y935D01*
X1612Y935D02*
X1631Y935D01*
X1670Y935D02*
X1690Y935D01*
X1712Y935D02*
X1731Y935D01*
X970Y934D02*
X990Y934D01*
X1011Y934D02*
X1031Y934D01*
X1070Y934D02*
X1090Y934D01*
X1111Y934D02*
X1131Y934D01*
X1170Y934D02*
X1190Y934D01*
X1211Y934D02*
X1231Y934D01*
X1270Y934D02*
X1290Y934D01*
X1311Y934D02*
X1331Y934D01*
X1370Y934D02*
X1390Y934D01*
X1411Y934D02*
X1431Y934D01*
X1470Y934D02*
X1490Y934D01*
X1511Y934D02*
X1531Y934D01*
X1570Y934D02*
X1590Y934D01*
X1611Y934D02*
X1631Y934D01*
X1670Y934D02*
X1690Y934D01*
X1711Y934D02*
X1731Y934D01*
X970Y933D02*
X991Y933D01*
X1011Y933D02*
X1031Y933D01*
X1070Y933D02*
X1091Y933D01*
X1111Y933D02*
X1131Y933D01*
X1170Y933D02*
X1191Y933D01*
X1211Y933D02*
X1231Y933D01*
X1270Y933D02*
X1291Y933D01*
X1311Y933D02*
X1331Y933D01*
X1370Y933D02*
X1391Y933D01*
X1411Y933D02*
X1431Y933D01*
X1470Y933D02*
X1491Y933D01*
X1511Y933D02*
X1531Y933D01*
X1570Y933D02*
X1591Y933D01*
X1611Y933D02*
X1631Y933D01*
X1670Y933D02*
X1691Y933D01*
X1711Y933D02*
X1731Y933D01*
X970Y932D02*
X992Y932D01*
X1010Y932D02*
X1031Y932D01*
X1070Y932D02*
X1092Y932D01*
X1110Y932D02*
X1131Y932D01*
X1170Y932D02*
X1191Y932D01*
X1210Y932D02*
X1231Y932D01*
X1270Y932D02*
X1291Y932D01*
X1310Y932D02*
X1331Y932D01*
X1370Y932D02*
X1391Y932D01*
X1410Y932D02*
X1431Y932D01*
X1470Y932D02*
X1491Y932D01*
X1510Y932D02*
X1531Y932D01*
X1570Y932D02*
X1591Y932D01*
X1610Y932D02*
X1631Y932D01*
X1670Y932D02*
X1691Y932D01*
X1710Y932D02*
X1731Y932D01*
X970Y931D02*
X992Y931D01*
X1009Y931D02*
X1031Y931D01*
X1070Y931D02*
X1092Y931D01*
X1109Y931D02*
X1131Y931D01*
X1170Y931D02*
X1192Y931D01*
X1209Y931D02*
X1231Y931D01*
X1270Y931D02*
X1292Y931D01*
X1309Y931D02*
X1331Y931D01*
X1370Y931D02*
X1392Y931D01*
X1409Y931D02*
X1431Y931D01*
X1470Y931D02*
X1492Y931D01*
X1509Y931D02*
X1531Y931D01*
X1570Y931D02*
X1592Y931D01*
X1609Y931D02*
X1631Y931D01*
X1670Y931D02*
X1692Y931D01*
X1709Y931D02*
X1731Y931D01*
X970Y930D02*
X993Y930D01*
X1008Y930D02*
X1031Y930D01*
X1070Y930D02*
X1093Y930D01*
X1108Y930D02*
X1131Y930D01*
X1170Y930D02*
X1193Y930D01*
X1208Y930D02*
X1231Y930D01*
X1270Y930D02*
X1293Y930D01*
X1308Y930D02*
X1331Y930D01*
X1370Y930D02*
X1393Y930D01*
X1408Y930D02*
X1431Y930D01*
X1470Y930D02*
X1493Y930D01*
X1508Y930D02*
X1531Y930D01*
X1570Y930D02*
X1593Y930D01*
X1608Y930D02*
X1631Y930D01*
X1670Y930D02*
X1693Y930D01*
X1708Y930D02*
X1731Y930D01*
X970Y929D02*
X995Y929D01*
X1007Y929D02*
X1031Y929D01*
X1070Y929D02*
X1095Y929D01*
X1107Y929D02*
X1131Y929D01*
X1170Y929D02*
X1195Y929D01*
X1207Y929D02*
X1231Y929D01*
X1270Y929D02*
X1295Y929D01*
X1307Y929D02*
X1331Y929D01*
X1370Y929D02*
X1395Y929D01*
X1407Y929D02*
X1431Y929D01*
X1470Y929D02*
X1495Y929D01*
X1507Y929D02*
X1531Y929D01*
X1570Y929D02*
X1595Y929D01*
X1607Y929D02*
X1631Y929D01*
X1670Y929D02*
X1695Y929D01*
X1707Y929D02*
X1731Y929D01*
X970Y928D02*
X997Y928D01*
X1005Y928D02*
X1031Y928D01*
X1070Y928D02*
X1097Y928D01*
X1105Y928D02*
X1131Y928D01*
X1170Y928D02*
X1197Y928D01*
X1205Y928D02*
X1231Y928D01*
X1270Y928D02*
X1297Y928D01*
X1305Y928D02*
X1331Y928D01*
X1370Y928D02*
X1397Y928D01*
X1405Y928D02*
X1431Y928D01*
X1470Y928D02*
X1497Y928D01*
X1505Y928D02*
X1531Y928D01*
X1570Y928D02*
X1597Y928D01*
X1605Y928D02*
X1631Y928D01*
X1670Y928D02*
X1697Y928D01*
X1705Y928D02*
X1731Y928D01*
X970Y927D02*
X1031Y927D01*
X1070Y927D02*
X1131Y927D01*
X1170Y927D02*
X1231Y927D01*
X1270Y927D02*
X1331Y927D01*
X1370Y927D02*
X1431Y927D01*
X1470Y927D02*
X1531Y927D01*
X1570Y927D02*
X1631Y927D01*
X1670Y927D02*
X1731Y927D01*
X970Y926D02*
X1031Y926D01*
X1070Y926D02*
X1131Y926D01*
X1170Y926D02*
X1231Y926D01*
X1270Y926D02*
X1331Y926D01*
X1370Y926D02*
X1431Y926D01*
X1470Y926D02*
X1531Y926D01*
X1570Y926D02*
X1631Y926D01*
X1670Y926D02*
X1731Y926D01*
X970Y925D02*
X1031Y925D01*
X1070Y925D02*
X1131Y925D01*
X1170Y925D02*
X1231Y925D01*
X1270Y925D02*
X1331Y925D01*
X1370Y925D02*
X1431Y925D01*
X1470Y925D02*
X1531Y925D01*
X1570Y925D02*
X1631Y925D01*
X1670Y925D02*
X1731Y925D01*
X970Y924D02*
X1031Y924D01*
X1070Y924D02*
X1131Y924D01*
X1170Y924D02*
X1231Y924D01*
X1270Y924D02*
X1331Y924D01*
X1370Y924D02*
X1431Y924D01*
X1470Y924D02*
X1531Y924D01*
X1570Y924D02*
X1631Y924D01*
X1670Y924D02*
X1731Y924D01*
X970Y923D02*
X1031Y923D01*
X1070Y923D02*
X1131Y923D01*
X1170Y923D02*
X1231Y923D01*
X1270Y923D02*
X1331Y923D01*
X1370Y923D02*
X1431Y923D01*
X1470Y923D02*
X1531Y923D01*
X1570Y923D02*
X1631Y923D01*
X1670Y923D02*
X1731Y923D01*
X970Y922D02*
X1031Y922D01*
X1070Y922D02*
X1131Y922D01*
X1170Y922D02*
X1231Y922D01*
X1270Y922D02*
X1331Y922D01*
X1370Y922D02*
X1431Y922D01*
X1470Y922D02*
X1531Y922D01*
X1570Y922D02*
X1631Y922D01*
X1670Y922D02*
X1731Y922D01*
X970Y921D02*
X1031Y921D01*
X1070Y921D02*
X1131Y921D01*
X1170Y921D02*
X1231Y921D01*
X1270Y921D02*
X1331Y921D01*
X1370Y921D02*
X1431Y921D01*
X1470Y921D02*
X1531Y921D01*
X1570Y921D02*
X1631Y921D01*
X1670Y921D02*
X1731Y921D01*
X970Y920D02*
X1031Y920D01*
X1070Y920D02*
X1131Y920D01*
X1170Y920D02*
X1231Y920D01*
X1270Y920D02*
X1331Y920D01*
X1370Y920D02*
X1431Y920D01*
X1470Y920D02*
X1531Y920D01*
X1570Y920D02*
X1631Y920D01*
X1670Y920D02*
X1731Y920D01*
X970Y919D02*
X1031Y919D01*
X1070Y919D02*
X1131Y919D01*
X1170Y919D02*
X1231Y919D01*
X1270Y919D02*
X1331Y919D01*
X1370Y919D02*
X1431Y919D01*
X1470Y919D02*
X1531Y919D01*
X1570Y919D02*
X1631Y919D01*
X1670Y919D02*
X1731Y919D01*
X970Y918D02*
X1031Y918D01*
X1070Y918D02*
X1131Y918D01*
X1170Y918D02*
X1231Y918D01*
X1270Y918D02*
X1331Y918D01*
X1370Y918D02*
X1431Y918D01*
X1470Y918D02*
X1531Y918D01*
X1570Y918D02*
X1631Y918D01*
X1670Y918D02*
X1731Y918D01*
X970Y917D02*
X1031Y917D01*
X1070Y917D02*
X1131Y917D01*
X1170Y917D02*
X1231Y917D01*
X1270Y917D02*
X1331Y917D01*
X1370Y917D02*
X1431Y917D01*
X1470Y917D02*
X1531Y917D01*
X1570Y917D02*
X1631Y917D01*
X1670Y917D02*
X1731Y917D01*
X970Y916D02*
X1031Y916D01*
X1070Y916D02*
X1131Y916D01*
X1170Y916D02*
X1231Y916D01*
X1270Y916D02*
X1331Y916D01*
X1370Y916D02*
X1431Y916D01*
X1470Y916D02*
X1531Y916D01*
X1570Y916D02*
X1631Y916D01*
X1670Y916D02*
X1731Y916D01*
X970Y915D02*
X1031Y915D01*
X1070Y915D02*
X1131Y915D01*
X1170Y915D02*
X1231Y915D01*
X1270Y915D02*
X1331Y915D01*
X1370Y915D02*
X1431Y915D01*
X1470Y915D02*
X1531Y915D01*
X1570Y915D02*
X1631Y915D01*
X1670Y915D02*
X1731Y915D01*
X970Y914D02*
X1031Y914D01*
X1070Y914D02*
X1131Y914D01*
X1170Y914D02*
X1231Y914D01*
X1270Y914D02*
X1331Y914D01*
X1370Y914D02*
X1431Y914D01*
X1470Y914D02*
X1531Y914D01*
X1570Y914D02*
X1631Y914D01*
X1670Y914D02*
X1731Y914D01*
X970Y913D02*
X1031Y913D01*
X1070Y913D02*
X1131Y913D01*
X1170Y913D02*
X1231Y913D01*
X1270Y913D02*
X1331Y913D01*
X1370Y913D02*
X1431Y913D01*
X1470Y913D02*
X1531Y913D01*
X1570Y913D02*
X1631Y913D01*
X1670Y913D02*
X1731Y913D01*
X970Y912D02*
X1031Y912D01*
X1070Y912D02*
X1131Y912D01*
X1170Y912D02*
X1231Y912D01*
X1270Y912D02*
X1331Y912D01*
X1370Y912D02*
X1431Y912D01*
X1470Y912D02*
X1531Y912D01*
X1570Y912D02*
X1631Y912D01*
X1670Y912D02*
X1731Y912D01*
X970Y911D02*
X1031Y911D01*
X1070Y911D02*
X1131Y911D01*
X1170Y911D02*
X1231Y911D01*
X1270Y911D02*
X1331Y911D01*
X1370Y911D02*
X1431Y911D01*
X1470Y911D02*
X1531Y911D01*
X1570Y911D02*
X1631Y911D01*
X1670Y911D02*
X1731Y911D01*
X971Y910D02*
X1031Y910D01*
X1071Y910D02*
X1131Y910D01*
X1171Y910D02*
X1231Y910D01*
X1271Y910D02*
X1331Y910D01*
X1371Y910D02*
X1431Y910D01*
X1470Y910D02*
X1531Y910D01*
X1570Y910D02*
X1631Y910D01*
X1670Y910D02*
X1731Y910D01*
X971Y909D02*
X1031Y909D01*
X1071Y909D02*
X1131Y909D01*
X1171Y909D02*
X1231Y909D01*
X1271Y909D02*
X1331Y909D01*
X1371Y909D02*
X1431Y909D01*
X1471Y909D02*
X1531Y909D01*
X1571Y909D02*
X1631Y909D01*
X1671Y909D02*
X1731Y909D01*
X971Y908D02*
X1031Y908D01*
X1071Y908D02*
X1131Y908D01*
X1171Y908D02*
X1231Y908D01*
X1271Y908D02*
X1331Y908D01*
X1371Y908D02*
X1431Y908D01*
X1471Y908D02*
X1531Y908D01*
X1571Y908D02*
X1631Y908D01*
X1671Y908D02*
X1731Y908D01*
X971Y907D02*
X1031Y907D01*
X1071Y907D02*
X1131Y907D01*
X1171Y907D02*
X1231Y907D01*
X1271Y907D02*
X1331Y907D01*
X1371Y907D02*
X1431Y907D01*
X1471Y907D02*
X1531Y907D01*
X1571Y907D02*
X1631Y907D01*
X1671Y907D02*
X1731Y907D01*
X971Y906D02*
X1031Y906D01*
X1071Y906D02*
X1131Y906D01*
X1171Y906D02*
X1231Y906D01*
X1271Y906D02*
X1331Y906D01*
X1371Y906D02*
X1431Y906D01*
X1471Y906D02*
X1531Y906D01*
X1571Y906D02*
X1631Y906D01*
X1671Y906D02*
X1731Y906D01*
X971Y905D02*
X1030Y905D01*
X1071Y905D02*
X1130Y905D01*
X1171Y905D02*
X1230Y905D01*
X1271Y905D02*
X1330Y905D01*
X1371Y905D02*
X1430Y905D01*
X1471Y905D02*
X1530Y905D01*
X1571Y905D02*
X1630Y905D01*
X1671Y905D02*
X1730Y905D01*
X972Y904D02*
X1030Y904D01*
X1072Y904D02*
X1130Y904D01*
X1172Y904D02*
X1230Y904D01*
X1272Y904D02*
X1330Y904D01*
X1372Y904D02*
X1430Y904D01*
X1472Y904D02*
X1530Y904D01*
X1572Y904D02*
X1630Y904D01*
X1672Y904D02*
X1730Y904D01*
X972Y903D02*
X1030Y903D01*
X1072Y903D02*
X1130Y903D01*
X1172Y903D02*
X1230Y903D01*
X1272Y903D02*
X1330Y903D01*
X1372Y903D02*
X1430Y903D01*
X1472Y903D02*
X1530Y903D01*
X1572Y903D02*
X1630Y903D01*
X1672Y903D02*
X1730Y903D01*
X972Y902D02*
X1029Y902D01*
X1072Y902D02*
X1129Y902D01*
X1172Y902D02*
X1229Y902D01*
X1272Y902D02*
X1329Y902D01*
X1372Y902D02*
X1429Y902D01*
X1472Y902D02*
X1529Y902D01*
X1572Y902D02*
X1629Y902D01*
X1672Y902D02*
X1729Y902D01*
X973Y901D02*
X1029Y901D01*
X1073Y901D02*
X1129Y901D01*
X1173Y901D02*
X1229Y901D01*
X1273Y901D02*
X1329Y901D01*
X1373Y901D02*
X1429Y901D01*
X1473Y901D02*
X1529Y901D01*
X1573Y901D02*
X1629Y901D01*
X1673Y901D02*
X1729Y901D01*
X973Y900D02*
X1029Y900D01*
X1073Y900D02*
X1129Y900D01*
X1173Y900D02*
X1229Y900D01*
X1273Y900D02*
X1329Y900D01*
X1373Y900D02*
X1429Y900D01*
X1473Y900D02*
X1529Y900D01*
X1573Y900D02*
X1629Y900D01*
X1673Y900D02*
X1729Y900D01*
X974Y899D02*
X1028Y899D01*
X1074Y899D02*
X1128Y899D01*
X1174Y899D02*
X1228Y899D01*
X1274Y899D02*
X1328Y899D01*
X1374Y899D02*
X1428Y899D01*
X1474Y899D02*
X1528Y899D01*
X1574Y899D02*
X1628Y899D01*
X1674Y899D02*
X1728Y899D01*
X974Y898D02*
X1028Y898D01*
X1074Y898D02*
X1128Y898D01*
X1174Y898D02*
X1228Y898D01*
X1274Y898D02*
X1328Y898D01*
X1374Y898D02*
X1428Y898D01*
X1474Y898D02*
X1528Y898D01*
X1574Y898D02*
X1628Y898D01*
X1674Y898D02*
X1728Y898D01*
X975Y897D02*
X1027Y897D01*
X1075Y897D02*
X1127Y897D01*
X1175Y897D02*
X1227Y897D01*
X1275Y897D02*
X1327Y897D01*
X1375Y897D02*
X1427Y897D01*
X1475Y897D02*
X1527Y897D01*
X1575Y897D02*
X1627Y897D01*
X1675Y897D02*
X1727Y897D01*
X975Y896D02*
X1027Y896D01*
X1075Y896D02*
X1127Y896D01*
X1175Y896D02*
X1227Y896D01*
X1275Y896D02*
X1327Y896D01*
X1375Y896D02*
X1427Y896D01*
X1475Y896D02*
X1527Y896D01*
X1575Y896D02*
X1626Y896D01*
X1675Y896D02*
X1726Y896D01*
X976Y895D02*
X1026Y895D01*
X1076Y895D02*
X1126Y895D01*
X1176Y895D02*
X1226Y895D01*
X1276Y895D02*
X1326Y895D01*
X1376Y895D02*
X1426Y895D01*
X1476Y895D02*
X1526Y895D01*
X1576Y895D02*
X1626Y895D01*
X1676Y895D02*
X1726Y895D01*
X977Y894D02*
X1025Y894D01*
X1077Y894D02*
X1125Y894D01*
X1177Y894D02*
X1225Y894D01*
X1277Y894D02*
X1325Y894D01*
X1377Y894D02*
X1425Y894D01*
X1477Y894D02*
X1525Y894D01*
X1577Y894D02*
X1625Y894D01*
X1677Y894D02*
X1725Y894D01*
X977Y893D02*
X1024Y893D01*
X1077Y893D02*
X1124Y893D01*
X1177Y893D02*
X1224Y893D01*
X1277Y893D02*
X1324Y893D01*
X1377Y893D02*
X1424Y893D01*
X1477Y893D02*
X1524Y893D01*
X1577Y893D02*
X1624Y893D01*
X1677Y893D02*
X1724Y893D01*
X978Y892D02*
X1024Y892D01*
X1078Y892D02*
X1124Y892D01*
X1178Y892D02*
X1224Y892D01*
X1278Y892D02*
X1324Y892D01*
X1378Y892D02*
X1424Y892D01*
X1478Y892D02*
X1524Y892D01*
X1578Y892D02*
X1624Y892D01*
X1678Y892D02*
X1724Y892D01*
X979Y891D02*
X1023Y891D01*
X1079Y891D02*
X1123Y891D01*
X1179Y891D02*
X1223Y891D01*
X1279Y891D02*
X1323Y891D01*
X1379Y891D02*
X1423Y891D01*
X1479Y891D02*
X1523Y891D01*
X1579Y891D02*
X1623Y891D01*
X1679Y891D02*
X1723Y891D01*
X980Y890D02*
X1022Y890D01*
X1080Y890D02*
X1122Y890D01*
X1180Y890D02*
X1222Y890D01*
X1280Y890D02*
X1322Y890D01*
X1380Y890D02*
X1422Y890D01*
X1480Y890D02*
X1522Y890D01*
X1580Y890D02*
X1622Y890D01*
X1680Y890D02*
X1722Y890D01*
X981Y889D02*
X1021Y889D01*
X1081Y889D02*
X1121Y889D01*
X1181Y889D02*
X1221Y889D01*
X1281Y889D02*
X1321Y889D01*
X1381Y889D02*
X1421Y889D01*
X1481Y889D02*
X1521Y889D01*
X1581Y889D02*
X1621Y889D01*
X1681Y889D02*
X1721Y889D01*
X982Y888D02*
X1019Y888D01*
X1082Y888D02*
X1119Y888D01*
X1182Y888D02*
X1219Y888D01*
X1282Y888D02*
X1319Y888D01*
X1382Y888D02*
X1419Y888D01*
X1482Y888D02*
X1519Y888D01*
X1582Y888D02*
X1619Y888D01*
X1682Y888D02*
X1719Y888D01*
X984Y887D02*
X1018Y887D01*
X1084Y887D02*
X1118Y887D01*
X1184Y887D02*
X1218Y887D01*
X1284Y887D02*
X1318Y887D01*
X1384Y887D02*
X1418Y887D01*
X1484Y887D02*
X1518Y887D01*
X1584Y887D02*
X1618Y887D01*
X1684Y887D02*
X1718Y887D01*
X985Y886D02*
X1016Y886D01*
X1085Y886D02*
X1116Y886D01*
X1185Y886D02*
X1216Y886D01*
X1285Y886D02*
X1316Y886D01*
X1385Y886D02*
X1416Y886D01*
X1485Y886D02*
X1516Y886D01*
X1585Y886D02*
X1616Y886D01*
X1685Y886D02*
X1716Y886D01*
X987Y885D02*
X1014Y885D01*
X1087Y885D02*
X1114Y885D01*
X1187Y885D02*
X1214Y885D01*
X1287Y885D02*
X1314Y885D01*
X1387Y885D02*
X1414Y885D01*
X1487Y885D02*
X1514Y885D01*
X1587Y885D02*
X1614Y885D01*
X1687Y885D02*
X1714Y885D01*
X989Y884D02*
X1012Y884D01*
X1089Y884D02*
X1112Y884D01*
X1189Y884D02*
X1212Y884D01*
X1289Y884D02*
X1312Y884D01*
X1389Y884D02*
X1412Y884D01*
X1489Y884D02*
X1512Y884D01*
X1589Y884D02*
X1612Y884D01*
X1689Y884D02*
X1712Y884D01*
X992Y883D02*
X1010Y883D01*
X1092Y883D02*
X1110Y883D01*
X1192Y883D02*
X1210Y883D01*
X1292Y883D02*
X1310Y883D01*
X1392Y883D02*
X1410Y883D01*
X1492Y883D02*
X1510Y883D01*
X1592Y883D02*
X1610Y883D01*
X1692Y883D02*
X1710Y883D01*
X996Y882D02*
X1005Y882D01*
X1096Y882D02*
X1105Y882D01*
X1196Y882D02*
X1205Y882D01*
X1296Y882D02*
X1305Y882D01*
X1396Y882D02*
X1405Y882D01*
X1496Y882D02*
X1505Y882D01*
X1596Y882D02*
X1605Y882D01*
X1696Y882D02*
X1705Y882D01*
D02*
G04 End of Mask1*
M02*