; NON-PLATED HOLES START AT T1
; THROUGH (PLATED) HOLES START AT T100
M48
INCH
T1C0.130000
T100C0.039370
T101C0.030000
T102C0.032000
T103C0.098425
T104C0.040000
T105C0.015748
T106C0.038000
%
T1
X001605Y004374
X020125Y004374
T100
X018514Y014875
X018514Y006874
X017514Y014875
X012514Y014875
X006514Y006874
X011514Y014875
X016514Y014875
X016514Y006874
X014514Y006874
X003514Y006874
X015514Y006874
X010514Y014875
X007514Y006874
X004514Y006874
X008514Y014875
X017514Y006874
X009514Y014875
X014514Y014875
X015514Y014875
X013514Y014875
X007514Y014875
X013514Y006874
T101
X007512Y010875
X010012Y008374
X011014Y008374
X013012Y008374
X014014Y008374
X008514Y009874
X007512Y011875
X008514Y011875
X008514Y010875
X007512Y009874
T102
X015014Y012375
X010014Y012375
X012014Y009374
X015014Y009374
X011014Y012375
X012014Y012375
X010014Y009374
X017014Y012375
X011014Y009374
X013014Y012375
X016014Y009374
X017014Y009374
X014014Y012375
X016014Y012375
X014014Y009374
X013014Y009374
T103
X002014Y007374
X002014Y014375
T104
X004345Y004874
X017385Y004874
X011955Y004874
X015215Y004874
X013585Y003874
X010325Y003874
X008145Y003874
X013035Y004874
X007605Y004874
X006515Y004874
X014665Y003874
X009775Y004874
X007065Y003874
X015755Y003874
X008695Y004874
X011405Y003874
X012495Y003874
X016295Y004874
X005435Y004874
X014125Y004874
X010865Y004874
X009235Y003874
X016845Y003874
X005975Y003874
X004885Y003874
T105
X013517Y013873
T106
X018514Y006874
X018514Y014875
X005514Y014875
X008514Y006874
X017514Y014875
X006514Y006874
X012514Y014875
X005514Y006874
X011514Y014875
X016514Y014875
X016514Y006874
X014514Y006874
X011514Y006874
X003514Y006874
X015514Y006874
X010514Y014875
X003514Y014875
X012514Y006874
X007514Y006874
X004514Y006874
X008514Y014875
X004514Y014875
X017514Y006874
X006514Y014875
X009514Y014875
X010514Y006874
X014514Y014875
X015514Y014875
X013514Y014875
X007514Y014875
X009514Y006874
X013514Y006874
T00
M30
