G04 MADE WITH FRITZING*
G04 WWW.FRITZING.ORG*
G04 DOUBLE SIDED*
G04 HOLES PLATED*
G04 CONTOUR ON CENTER OF CONTOUR VECTOR*
%ASAXBY*%
%FSLAX23Y23*%
%MOIN*%
%OFA0B0*%
%SFA1.0B1.0*%
%ADD10R,2.169070X1.595880X2.153070X1.579880*%
%ADD11C,0.008000*%
%ADD12R,0.001000X0.001000*%
%LNSILK0*%
G90*
G70*
G54D11*
X4Y1592D02*
X2165Y1592D01*
X2165Y4D01*
X4Y4D01*
X4Y1592D01*
D02*
G54D12*
X389Y1397D02*
X396Y1397D01*
X456Y1397D02*
X463Y1397D01*
X495Y1397D02*
X531Y1397D01*
X568Y1397D02*
X589Y1397D01*
X634Y1397D02*
X668Y1397D01*
X700Y1397D02*
X727Y1397D01*
X760Y1397D02*
X803Y1397D01*
X895Y1397D02*
X897Y1397D01*
X932Y1397D02*
X934Y1397D01*
X981Y1397D02*
X983Y1397D01*
X1026Y1397D02*
X1069Y1397D01*
X1094Y1397D02*
X1136Y1397D01*
X1164Y1397D02*
X1166Y1397D01*
X1201Y1397D02*
X1203Y1397D01*
X1231Y1397D02*
X1233Y1397D01*
X1268Y1397D02*
X1270Y1397D01*
X1537Y1397D02*
X1539Y1397D01*
X1769Y1397D02*
X1811Y1397D01*
X388Y1396D02*
X398Y1396D01*
X455Y1396D02*
X465Y1396D01*
X493Y1396D02*
X532Y1396D01*
X566Y1396D02*
X590Y1396D01*
X631Y1396D02*
X668Y1396D01*
X697Y1396D02*
X730Y1396D01*
X759Y1396D02*
X803Y1396D01*
X893Y1396D02*
X899Y1396D01*
X930Y1396D02*
X936Y1396D01*
X979Y1396D02*
X984Y1396D01*
X1026Y1396D02*
X1070Y1396D01*
X1093Y1396D02*
X1137Y1396D01*
X1162Y1396D02*
X1168Y1396D01*
X1199Y1396D02*
X1205Y1396D01*
X1229Y1396D02*
X1235Y1396D01*
X1267Y1396D02*
X1272Y1396D01*
X1536Y1396D02*
X1541Y1396D01*
X1767Y1396D02*
X1811Y1396D01*
X387Y1395D02*
X398Y1395D01*
X454Y1395D02*
X466Y1395D01*
X492Y1395D02*
X533Y1395D01*
X566Y1395D02*
X591Y1395D01*
X629Y1395D02*
X668Y1395D01*
X695Y1395D02*
X731Y1395D01*
X758Y1395D02*
X803Y1395D01*
X892Y1395D02*
X899Y1395D01*
X929Y1395D02*
X936Y1395D01*
X978Y1395D02*
X985Y1395D01*
X1026Y1395D02*
X1071Y1395D01*
X1093Y1395D02*
X1138Y1395D01*
X1161Y1395D02*
X1168Y1395D01*
X1198Y1395D02*
X1205Y1395D01*
X1229Y1395D02*
X1236Y1395D01*
X1266Y1395D02*
X1273Y1395D01*
X1535Y1395D02*
X1542Y1395D01*
X1767Y1395D02*
X1811Y1395D01*
X386Y1394D02*
X399Y1394D01*
X454Y1394D02*
X466Y1394D01*
X491Y1394D02*
X533Y1394D01*
X565Y1394D02*
X591Y1394D01*
X628Y1394D02*
X668Y1394D01*
X694Y1394D02*
X733Y1394D01*
X757Y1394D02*
X803Y1394D01*
X892Y1394D02*
X900Y1394D01*
X929Y1394D02*
X937Y1394D01*
X978Y1394D02*
X986Y1394D01*
X1026Y1394D02*
X1071Y1394D01*
X1093Y1394D02*
X1139Y1394D01*
X1161Y1394D02*
X1169Y1394D01*
X1198Y1394D02*
X1206Y1394D01*
X1228Y1394D02*
X1236Y1394D01*
X1265Y1394D02*
X1273Y1394D01*
X1534Y1394D02*
X1542Y1394D01*
X1766Y1394D02*
X1811Y1394D01*
X386Y1393D02*
X399Y1393D01*
X454Y1393D02*
X466Y1393D01*
X490Y1393D02*
X534Y1393D01*
X565Y1393D02*
X592Y1393D01*
X627Y1393D02*
X668Y1393D01*
X693Y1393D02*
X733Y1393D01*
X757Y1393D02*
X803Y1393D01*
X892Y1393D02*
X900Y1393D01*
X929Y1393D02*
X937Y1393D01*
X977Y1393D02*
X986Y1393D01*
X1026Y1393D02*
X1072Y1393D01*
X1093Y1393D02*
X1139Y1393D01*
X1161Y1393D02*
X1169Y1393D01*
X1198Y1393D02*
X1206Y1393D01*
X1228Y1393D02*
X1236Y1393D01*
X1265Y1393D02*
X1273Y1393D01*
X1534Y1393D02*
X1542Y1393D01*
X1595Y1393D02*
X1598Y1393D01*
X1766Y1393D02*
X1811Y1393D01*
X386Y1392D02*
X399Y1392D01*
X454Y1392D02*
X466Y1392D01*
X489Y1392D02*
X534Y1392D01*
X565Y1392D02*
X592Y1392D01*
X626Y1392D02*
X668Y1392D01*
X692Y1392D02*
X734Y1392D01*
X757Y1392D02*
X803Y1392D01*
X892Y1392D02*
X900Y1392D01*
X929Y1392D02*
X937Y1392D01*
X977Y1392D02*
X986Y1392D01*
X1026Y1392D02*
X1072Y1392D01*
X1093Y1392D02*
X1139Y1392D01*
X1161Y1392D02*
X1169Y1392D01*
X1198Y1392D02*
X1206Y1392D01*
X1228Y1392D02*
X1236Y1392D01*
X1265Y1392D02*
X1273Y1392D01*
X1534Y1392D02*
X1542Y1392D01*
X1593Y1392D02*
X1599Y1392D01*
X1766Y1392D02*
X1811Y1392D01*
X387Y1391D02*
X399Y1391D01*
X454Y1391D02*
X466Y1391D01*
X489Y1391D02*
X533Y1391D01*
X565Y1391D02*
X592Y1391D01*
X625Y1391D02*
X668Y1391D01*
X692Y1391D02*
X735Y1391D01*
X758Y1391D02*
X803Y1391D01*
X892Y1391D02*
X900Y1391D01*
X929Y1391D02*
X937Y1391D01*
X977Y1391D02*
X987Y1391D01*
X1026Y1391D02*
X1071Y1391D01*
X1094Y1391D02*
X1139Y1391D01*
X1161Y1391D02*
X1169Y1391D01*
X1198Y1391D02*
X1206Y1391D01*
X1228Y1391D02*
X1236Y1391D01*
X1265Y1391D02*
X1273Y1391D01*
X1534Y1391D02*
X1542Y1391D01*
X1593Y1391D02*
X1600Y1391D01*
X1766Y1391D02*
X1811Y1391D01*
X387Y1390D02*
X399Y1390D01*
X454Y1390D02*
X466Y1390D01*
X488Y1390D02*
X533Y1390D01*
X565Y1390D02*
X592Y1390D01*
X624Y1390D02*
X668Y1390D01*
X691Y1390D02*
X735Y1390D01*
X758Y1390D02*
X803Y1390D01*
X892Y1390D02*
X900Y1390D01*
X929Y1390D02*
X937Y1390D01*
X977Y1390D02*
X987Y1390D01*
X1027Y1390D02*
X1071Y1390D01*
X1094Y1390D02*
X1138Y1390D01*
X1161Y1390D02*
X1169Y1390D01*
X1198Y1390D02*
X1206Y1390D01*
X1228Y1390D02*
X1236Y1390D01*
X1265Y1390D02*
X1273Y1390D01*
X1534Y1390D02*
X1542Y1390D01*
X1592Y1390D02*
X1600Y1390D01*
X1767Y1390D02*
X1811Y1390D01*
X388Y1389D02*
X399Y1389D01*
X455Y1389D02*
X466Y1389D01*
X488Y1389D02*
X532Y1389D01*
X565Y1389D02*
X592Y1389D01*
X624Y1389D02*
X668Y1389D01*
X691Y1389D02*
X735Y1389D01*
X759Y1389D02*
X803Y1389D01*
X892Y1389D02*
X900Y1389D01*
X929Y1389D02*
X937Y1389D01*
X976Y1389D02*
X987Y1389D01*
X1028Y1389D02*
X1070Y1389D01*
X1095Y1389D02*
X1137Y1389D01*
X1161Y1389D02*
X1169Y1389D01*
X1198Y1389D02*
X1206Y1389D01*
X1228Y1389D02*
X1236Y1389D01*
X1265Y1389D02*
X1273Y1389D01*
X1534Y1389D02*
X1542Y1389D01*
X1592Y1389D02*
X1600Y1389D01*
X1768Y1389D02*
X1811Y1389D01*
X390Y1388D02*
X399Y1388D01*
X458Y1388D02*
X466Y1388D01*
X488Y1388D02*
X529Y1388D01*
X565Y1388D02*
X592Y1388D01*
X624Y1388D02*
X668Y1388D01*
X690Y1388D02*
X735Y1388D01*
X762Y1388D02*
X803Y1388D01*
X892Y1388D02*
X900Y1388D01*
X929Y1388D02*
X937Y1388D01*
X976Y1388D02*
X988Y1388D01*
X1028Y1388D02*
X1067Y1388D01*
X1095Y1388D02*
X1135Y1388D01*
X1161Y1388D02*
X1169Y1388D01*
X1198Y1388D02*
X1206Y1388D01*
X1228Y1388D02*
X1236Y1388D01*
X1265Y1388D02*
X1273Y1388D01*
X1534Y1388D02*
X1542Y1388D01*
X1592Y1388D02*
X1600Y1388D01*
X1770Y1388D02*
X1811Y1388D01*
X391Y1387D02*
X399Y1387D01*
X458Y1387D02*
X466Y1387D01*
X488Y1387D02*
X497Y1387D01*
X565Y1387D02*
X573Y1387D01*
X583Y1387D02*
X592Y1387D01*
X623Y1387D02*
X633Y1387D01*
X660Y1387D02*
X668Y1387D01*
X690Y1387D02*
X699Y1387D01*
X727Y1387D02*
X735Y1387D01*
X794Y1387D02*
X803Y1387D01*
X892Y1387D02*
X900Y1387D01*
X929Y1387D02*
X937Y1387D01*
X976Y1387D02*
X988Y1387D01*
X1029Y1387D02*
X1039Y1387D01*
X1096Y1387D02*
X1106Y1387D01*
X1161Y1387D02*
X1169Y1387D01*
X1198Y1387D02*
X1206Y1387D01*
X1228Y1387D02*
X1236Y1387D01*
X1265Y1387D02*
X1273Y1387D01*
X1534Y1387D02*
X1542Y1387D01*
X1592Y1387D02*
X1600Y1387D01*
X1803Y1387D02*
X1811Y1387D01*
X391Y1386D02*
X399Y1386D01*
X458Y1386D02*
X466Y1386D01*
X488Y1386D02*
X497Y1386D01*
X565Y1386D02*
X573Y1386D01*
X583Y1386D02*
X592Y1386D01*
X623Y1386D02*
X632Y1386D01*
X660Y1386D02*
X668Y1386D01*
X690Y1386D02*
X699Y1386D01*
X727Y1386D02*
X735Y1386D01*
X794Y1386D02*
X803Y1386D01*
X892Y1386D02*
X900Y1386D01*
X929Y1386D02*
X937Y1386D01*
X975Y1386D02*
X988Y1386D01*
X1029Y1386D02*
X1039Y1386D01*
X1097Y1386D02*
X1107Y1386D01*
X1161Y1386D02*
X1169Y1386D01*
X1198Y1386D02*
X1206Y1386D01*
X1228Y1386D02*
X1236Y1386D01*
X1265Y1386D02*
X1273Y1386D01*
X1534Y1386D02*
X1542Y1386D01*
X1592Y1386D02*
X1600Y1386D01*
X1803Y1386D02*
X1811Y1386D01*
X391Y1385D02*
X399Y1385D01*
X458Y1385D02*
X466Y1385D01*
X488Y1385D02*
X497Y1385D01*
X565Y1385D02*
X573Y1385D01*
X583Y1385D02*
X592Y1385D01*
X623Y1385D02*
X632Y1385D01*
X660Y1385D02*
X668Y1385D01*
X690Y1385D02*
X698Y1385D01*
X726Y1385D02*
X735Y1385D01*
X794Y1385D02*
X803Y1385D01*
X892Y1385D02*
X900Y1385D01*
X929Y1385D02*
X937Y1385D01*
X975Y1385D02*
X988Y1385D01*
X1030Y1385D02*
X1040Y1385D01*
X1097Y1385D02*
X1107Y1385D01*
X1161Y1385D02*
X1169Y1385D01*
X1198Y1385D02*
X1206Y1385D01*
X1228Y1385D02*
X1236Y1385D01*
X1265Y1385D02*
X1273Y1385D01*
X1534Y1385D02*
X1542Y1385D01*
X1592Y1385D02*
X1600Y1385D01*
X1803Y1385D02*
X1811Y1385D01*
X391Y1384D02*
X399Y1384D01*
X458Y1384D02*
X466Y1384D01*
X488Y1384D02*
X497Y1384D01*
X565Y1384D02*
X573Y1384D01*
X583Y1384D02*
X592Y1384D01*
X623Y1384D02*
X631Y1384D01*
X660Y1384D02*
X668Y1384D01*
X690Y1384D02*
X698Y1384D01*
X725Y1384D02*
X735Y1384D01*
X794Y1384D02*
X803Y1384D01*
X892Y1384D02*
X900Y1384D01*
X929Y1384D02*
X937Y1384D01*
X975Y1384D02*
X989Y1384D01*
X1030Y1384D02*
X1040Y1384D01*
X1098Y1384D02*
X1108Y1384D01*
X1161Y1384D02*
X1169Y1384D01*
X1198Y1384D02*
X1206Y1384D01*
X1228Y1384D02*
X1236Y1384D01*
X1265Y1384D02*
X1273Y1384D01*
X1534Y1384D02*
X1542Y1384D01*
X1592Y1384D02*
X1600Y1384D01*
X1803Y1384D02*
X1811Y1384D01*
X391Y1383D02*
X399Y1383D01*
X458Y1383D02*
X466Y1383D01*
X488Y1383D02*
X497Y1383D01*
X565Y1383D02*
X573Y1383D01*
X583Y1383D02*
X592Y1383D01*
X623Y1383D02*
X631Y1383D01*
X660Y1383D02*
X668Y1383D01*
X690Y1383D02*
X698Y1383D01*
X724Y1383D02*
X735Y1383D01*
X794Y1383D02*
X803Y1383D01*
X892Y1383D02*
X900Y1383D01*
X929Y1383D02*
X937Y1383D01*
X974Y1383D02*
X989Y1383D01*
X1031Y1383D02*
X1041Y1383D01*
X1098Y1383D02*
X1108Y1383D01*
X1161Y1383D02*
X1169Y1383D01*
X1198Y1383D02*
X1206Y1383D01*
X1228Y1383D02*
X1236Y1383D01*
X1265Y1383D02*
X1273Y1383D01*
X1534Y1383D02*
X1542Y1383D01*
X1592Y1383D02*
X1600Y1383D01*
X1803Y1383D02*
X1811Y1383D01*
X391Y1382D02*
X399Y1382D01*
X458Y1382D02*
X466Y1382D01*
X488Y1382D02*
X497Y1382D01*
X565Y1382D02*
X573Y1382D01*
X583Y1382D02*
X592Y1382D01*
X623Y1382D02*
X631Y1382D01*
X660Y1382D02*
X668Y1382D01*
X691Y1382D02*
X697Y1382D01*
X724Y1382D02*
X734Y1382D01*
X794Y1382D02*
X803Y1382D01*
X892Y1382D02*
X900Y1382D01*
X929Y1382D02*
X937Y1382D01*
X974Y1382D02*
X989Y1382D01*
X1032Y1382D02*
X1042Y1382D01*
X1099Y1382D02*
X1109Y1382D01*
X1161Y1382D02*
X1169Y1382D01*
X1198Y1382D02*
X1206Y1382D01*
X1228Y1382D02*
X1236Y1382D01*
X1265Y1382D02*
X1273Y1382D01*
X1534Y1382D02*
X1542Y1382D01*
X1592Y1382D02*
X1600Y1382D01*
X1803Y1382D02*
X1811Y1382D01*
X391Y1381D02*
X399Y1381D01*
X458Y1381D02*
X466Y1381D01*
X488Y1381D02*
X497Y1381D01*
X565Y1381D02*
X573Y1381D01*
X583Y1381D02*
X592Y1381D01*
X623Y1381D02*
X631Y1381D01*
X660Y1381D02*
X668Y1381D01*
X692Y1381D02*
X696Y1381D01*
X723Y1381D02*
X734Y1381D01*
X794Y1381D02*
X803Y1381D01*
X892Y1381D02*
X900Y1381D01*
X929Y1381D02*
X937Y1381D01*
X974Y1381D02*
X990Y1381D01*
X1032Y1381D02*
X1042Y1381D01*
X1099Y1381D02*
X1109Y1381D01*
X1161Y1381D02*
X1169Y1381D01*
X1198Y1381D02*
X1206Y1381D01*
X1228Y1381D02*
X1236Y1381D01*
X1265Y1381D02*
X1273Y1381D01*
X1534Y1381D02*
X1542Y1381D01*
X1592Y1381D02*
X1600Y1381D01*
X1803Y1381D02*
X1811Y1381D01*
X391Y1380D02*
X399Y1380D01*
X458Y1380D02*
X466Y1380D01*
X488Y1380D02*
X497Y1380D01*
X565Y1380D02*
X573Y1380D01*
X583Y1380D02*
X592Y1380D01*
X623Y1380D02*
X631Y1380D01*
X660Y1380D02*
X668Y1380D01*
X722Y1380D02*
X733Y1380D01*
X794Y1380D02*
X803Y1380D01*
X892Y1380D02*
X900Y1380D01*
X929Y1380D02*
X937Y1380D01*
X974Y1380D02*
X990Y1380D01*
X1033Y1380D02*
X1043Y1380D01*
X1100Y1380D02*
X1110Y1380D01*
X1161Y1380D02*
X1169Y1380D01*
X1198Y1380D02*
X1206Y1380D01*
X1228Y1380D02*
X1236Y1380D01*
X1265Y1380D02*
X1273Y1380D01*
X1534Y1380D02*
X1542Y1380D01*
X1592Y1380D02*
X1600Y1380D01*
X1803Y1380D02*
X1811Y1380D01*
X391Y1379D02*
X399Y1379D01*
X458Y1379D02*
X466Y1379D01*
X488Y1379D02*
X497Y1379D01*
X565Y1379D02*
X573Y1379D01*
X583Y1379D02*
X592Y1379D01*
X623Y1379D02*
X631Y1379D01*
X660Y1379D02*
X668Y1379D01*
X721Y1379D02*
X732Y1379D01*
X794Y1379D02*
X803Y1379D01*
X892Y1379D02*
X900Y1379D01*
X929Y1379D02*
X937Y1379D01*
X973Y1379D02*
X990Y1379D01*
X1033Y1379D02*
X1043Y1379D01*
X1101Y1379D02*
X1111Y1379D01*
X1161Y1379D02*
X1169Y1379D01*
X1198Y1379D02*
X1206Y1379D01*
X1228Y1379D02*
X1236Y1379D01*
X1265Y1379D02*
X1273Y1379D01*
X1534Y1379D02*
X1542Y1379D01*
X1592Y1379D02*
X1600Y1379D01*
X1803Y1379D02*
X1811Y1379D01*
X391Y1378D02*
X399Y1378D01*
X458Y1378D02*
X466Y1378D01*
X488Y1378D02*
X497Y1378D01*
X565Y1378D02*
X573Y1378D01*
X583Y1378D02*
X592Y1378D01*
X623Y1378D02*
X631Y1378D01*
X660Y1378D02*
X668Y1378D01*
X721Y1378D02*
X732Y1378D01*
X794Y1378D02*
X803Y1378D01*
X892Y1378D02*
X900Y1378D01*
X929Y1378D02*
X937Y1378D01*
X973Y1378D02*
X990Y1378D01*
X1034Y1378D02*
X1044Y1378D01*
X1101Y1378D02*
X1111Y1378D01*
X1161Y1378D02*
X1169Y1378D01*
X1198Y1378D02*
X1206Y1378D01*
X1228Y1378D02*
X1236Y1378D01*
X1265Y1378D02*
X1273Y1378D01*
X1534Y1378D02*
X1542Y1378D01*
X1592Y1378D02*
X1600Y1378D01*
X1803Y1378D02*
X1811Y1378D01*
X391Y1377D02*
X399Y1377D01*
X458Y1377D02*
X466Y1377D01*
X488Y1377D02*
X497Y1377D01*
X565Y1377D02*
X573Y1377D01*
X583Y1377D02*
X592Y1377D01*
X623Y1377D02*
X631Y1377D01*
X660Y1377D02*
X668Y1377D01*
X720Y1377D02*
X731Y1377D01*
X794Y1377D02*
X803Y1377D01*
X892Y1377D02*
X900Y1377D01*
X929Y1377D02*
X937Y1377D01*
X973Y1377D02*
X991Y1377D01*
X1035Y1377D02*
X1045Y1377D01*
X1102Y1377D02*
X1112Y1377D01*
X1161Y1377D02*
X1169Y1377D01*
X1198Y1377D02*
X1206Y1377D01*
X1228Y1377D02*
X1236Y1377D01*
X1265Y1377D02*
X1273Y1377D01*
X1373Y1377D02*
X1387Y1377D01*
X1402Y1377D02*
X1405Y1377D01*
X1443Y1377D02*
X1462Y1377D01*
X1508Y1377D02*
X1520Y1377D01*
X1534Y1377D02*
X1542Y1377D01*
X1572Y1377D02*
X1607Y1377D01*
X1643Y1377D02*
X1665Y1377D01*
X1712Y1377D02*
X1731Y1377D01*
X1803Y1377D02*
X1811Y1377D01*
X391Y1376D02*
X399Y1376D01*
X458Y1376D02*
X466Y1376D01*
X488Y1376D02*
X497Y1376D01*
X565Y1376D02*
X573Y1376D01*
X583Y1376D02*
X592Y1376D01*
X623Y1376D02*
X631Y1376D01*
X660Y1376D02*
X668Y1376D01*
X719Y1376D02*
X730Y1376D01*
X794Y1376D02*
X803Y1376D01*
X892Y1376D02*
X900Y1376D01*
X929Y1376D02*
X937Y1376D01*
X972Y1376D02*
X991Y1376D01*
X1035Y1376D02*
X1045Y1376D01*
X1102Y1376D02*
X1112Y1376D01*
X1161Y1376D02*
X1169Y1376D01*
X1198Y1376D02*
X1206Y1376D01*
X1228Y1376D02*
X1236Y1376D01*
X1265Y1376D02*
X1273Y1376D01*
X1373Y1376D02*
X1388Y1376D01*
X1401Y1376D02*
X1407Y1376D01*
X1441Y1376D02*
X1464Y1376D01*
X1506Y1376D02*
X1523Y1376D01*
X1534Y1376D02*
X1542Y1376D01*
X1570Y1376D02*
X1608Y1376D01*
X1640Y1376D02*
X1666Y1376D01*
X1710Y1376D02*
X1733Y1376D01*
X1803Y1376D02*
X1811Y1376D01*
X391Y1375D02*
X399Y1375D01*
X458Y1375D02*
X466Y1375D01*
X488Y1375D02*
X497Y1375D01*
X565Y1375D02*
X573Y1375D01*
X583Y1375D02*
X592Y1375D01*
X623Y1375D02*
X631Y1375D01*
X660Y1375D02*
X668Y1375D01*
X718Y1375D02*
X729Y1375D01*
X794Y1375D02*
X803Y1375D01*
X892Y1375D02*
X900Y1375D01*
X929Y1375D02*
X937Y1375D01*
X972Y1375D02*
X991Y1375D01*
X1036Y1375D02*
X1046Y1375D01*
X1103Y1375D02*
X1113Y1375D01*
X1161Y1375D02*
X1169Y1375D01*
X1198Y1375D02*
X1206Y1375D01*
X1228Y1375D02*
X1236Y1375D01*
X1265Y1375D02*
X1273Y1375D01*
X1372Y1375D02*
X1389Y1375D01*
X1400Y1375D02*
X1407Y1375D01*
X1439Y1375D02*
X1466Y1375D01*
X1504Y1375D02*
X1525Y1375D01*
X1534Y1375D02*
X1542Y1375D01*
X1570Y1375D02*
X1609Y1375D01*
X1639Y1375D02*
X1667Y1375D01*
X1708Y1375D02*
X1735Y1375D01*
X1803Y1375D02*
X1811Y1375D01*
X391Y1374D02*
X399Y1374D01*
X458Y1374D02*
X466Y1374D01*
X488Y1374D02*
X497Y1374D01*
X565Y1374D02*
X573Y1374D01*
X583Y1374D02*
X592Y1374D01*
X623Y1374D02*
X631Y1374D01*
X660Y1374D02*
X668Y1374D01*
X717Y1374D02*
X729Y1374D01*
X794Y1374D02*
X803Y1374D01*
X892Y1374D02*
X900Y1374D01*
X929Y1374D02*
X937Y1374D01*
X972Y1374D02*
X981Y1374D01*
X983Y1374D02*
X992Y1374D01*
X1036Y1374D02*
X1046Y1374D01*
X1104Y1374D02*
X1114Y1374D01*
X1161Y1374D02*
X1169Y1374D01*
X1198Y1374D02*
X1206Y1374D01*
X1228Y1374D02*
X1236Y1374D01*
X1265Y1374D02*
X1273Y1374D01*
X1372Y1374D02*
X1391Y1374D01*
X1400Y1374D02*
X1408Y1374D01*
X1438Y1374D02*
X1467Y1374D01*
X1503Y1374D02*
X1526Y1374D01*
X1534Y1374D02*
X1542Y1374D01*
X1569Y1374D02*
X1609Y1374D01*
X1637Y1374D02*
X1667Y1374D01*
X1707Y1374D02*
X1736Y1374D01*
X1803Y1374D02*
X1811Y1374D01*
X391Y1373D02*
X399Y1373D01*
X458Y1373D02*
X466Y1373D01*
X488Y1373D02*
X497Y1373D01*
X565Y1373D02*
X573Y1373D01*
X583Y1373D02*
X592Y1373D01*
X623Y1373D02*
X631Y1373D01*
X660Y1373D02*
X668Y1373D01*
X717Y1373D02*
X728Y1373D01*
X794Y1373D02*
X803Y1373D01*
X892Y1373D02*
X900Y1373D01*
X929Y1373D02*
X937Y1373D01*
X972Y1373D02*
X980Y1373D01*
X983Y1373D02*
X992Y1373D01*
X1037Y1373D02*
X1047Y1373D01*
X1104Y1373D02*
X1114Y1373D01*
X1161Y1373D02*
X1169Y1373D01*
X1198Y1373D02*
X1206Y1373D01*
X1228Y1373D02*
X1236Y1373D01*
X1265Y1373D02*
X1273Y1373D01*
X1371Y1373D02*
X1392Y1373D01*
X1400Y1373D02*
X1408Y1373D01*
X1437Y1373D02*
X1468Y1373D01*
X1502Y1373D02*
X1528Y1373D01*
X1534Y1373D02*
X1542Y1373D01*
X1569Y1373D02*
X1610Y1373D01*
X1636Y1373D02*
X1668Y1373D01*
X1706Y1373D02*
X1737Y1373D01*
X1778Y1373D02*
X1811Y1373D01*
X391Y1372D02*
X399Y1372D01*
X458Y1372D02*
X466Y1372D01*
X488Y1372D02*
X497Y1372D01*
X565Y1372D02*
X573Y1372D01*
X583Y1372D02*
X592Y1372D01*
X623Y1372D02*
X631Y1372D01*
X660Y1372D02*
X668Y1372D01*
X716Y1372D02*
X727Y1372D01*
X794Y1372D02*
X803Y1372D01*
X892Y1372D02*
X900Y1372D01*
X929Y1372D02*
X937Y1372D01*
X971Y1372D02*
X980Y1372D01*
X983Y1372D02*
X992Y1372D01*
X1038Y1372D02*
X1047Y1372D01*
X1105Y1372D02*
X1115Y1372D01*
X1161Y1372D02*
X1169Y1372D01*
X1198Y1372D02*
X1206Y1372D01*
X1228Y1372D02*
X1236Y1372D01*
X1265Y1372D02*
X1273Y1372D01*
X1370Y1372D02*
X1393Y1372D01*
X1399Y1372D02*
X1408Y1372D01*
X1435Y1372D02*
X1469Y1372D01*
X1501Y1372D02*
X1529Y1372D01*
X1534Y1372D02*
X1542Y1372D01*
X1569Y1372D02*
X1610Y1372D01*
X1636Y1372D02*
X1668Y1372D01*
X1704Y1372D02*
X1738Y1372D01*
X1777Y1372D02*
X1811Y1372D01*
X391Y1371D02*
X399Y1371D01*
X458Y1371D02*
X466Y1371D01*
X488Y1371D02*
X497Y1371D01*
X565Y1371D02*
X573Y1371D01*
X583Y1371D02*
X592Y1371D01*
X623Y1371D02*
X631Y1371D01*
X660Y1371D02*
X668Y1371D01*
X715Y1371D02*
X726Y1371D01*
X794Y1371D02*
X803Y1371D01*
X892Y1371D02*
X900Y1371D01*
X929Y1371D02*
X937Y1371D01*
X971Y1371D02*
X980Y1371D01*
X984Y1371D02*
X992Y1371D01*
X1038Y1371D02*
X1048Y1371D01*
X1105Y1371D02*
X1115Y1371D01*
X1161Y1371D02*
X1169Y1371D01*
X1198Y1371D02*
X1206Y1371D01*
X1228Y1371D02*
X1236Y1371D01*
X1265Y1371D02*
X1273Y1371D01*
X1369Y1371D02*
X1394Y1371D01*
X1399Y1371D02*
X1408Y1371D01*
X1434Y1371D02*
X1471Y1371D01*
X1500Y1371D02*
X1531Y1371D01*
X1534Y1371D02*
X1542Y1371D01*
X1569Y1371D02*
X1609Y1371D01*
X1635Y1371D02*
X1667Y1371D01*
X1703Y1371D02*
X1740Y1371D01*
X1776Y1371D02*
X1811Y1371D01*
X391Y1370D02*
X399Y1370D01*
X458Y1370D02*
X466Y1370D01*
X488Y1370D02*
X497Y1370D01*
X565Y1370D02*
X573Y1370D01*
X583Y1370D02*
X592Y1370D01*
X623Y1370D02*
X631Y1370D01*
X660Y1370D02*
X668Y1370D01*
X714Y1370D02*
X725Y1370D01*
X794Y1370D02*
X803Y1370D01*
X892Y1370D02*
X900Y1370D01*
X929Y1370D02*
X937Y1370D01*
X971Y1370D02*
X980Y1370D01*
X984Y1370D02*
X993Y1370D01*
X1039Y1370D02*
X1049Y1370D01*
X1106Y1370D02*
X1116Y1370D01*
X1161Y1370D02*
X1169Y1370D01*
X1198Y1370D02*
X1206Y1370D01*
X1228Y1370D02*
X1236Y1370D01*
X1265Y1370D02*
X1273Y1370D01*
X1368Y1370D02*
X1395Y1370D01*
X1399Y1370D02*
X1408Y1370D01*
X1433Y1370D02*
X1472Y1370D01*
X1500Y1370D02*
X1532Y1370D01*
X1534Y1370D02*
X1542Y1370D01*
X1570Y1370D02*
X1609Y1370D01*
X1634Y1370D02*
X1667Y1370D01*
X1702Y1370D02*
X1741Y1370D01*
X1775Y1370D02*
X1811Y1370D01*
X391Y1369D02*
X399Y1369D01*
X458Y1369D02*
X466Y1369D01*
X488Y1369D02*
X497Y1369D01*
X565Y1369D02*
X573Y1369D01*
X583Y1369D02*
X592Y1369D01*
X623Y1369D02*
X631Y1369D01*
X660Y1369D02*
X668Y1369D01*
X714Y1369D02*
X725Y1369D01*
X794Y1369D02*
X803Y1369D01*
X892Y1369D02*
X900Y1369D01*
X929Y1369D02*
X937Y1369D01*
X970Y1369D02*
X979Y1369D01*
X984Y1369D02*
X993Y1369D01*
X1039Y1369D02*
X1049Y1369D01*
X1107Y1369D02*
X1116Y1369D01*
X1161Y1369D02*
X1169Y1369D01*
X1198Y1369D02*
X1206Y1369D01*
X1228Y1369D02*
X1236Y1369D01*
X1265Y1369D02*
X1273Y1369D01*
X1367Y1369D02*
X1397Y1369D01*
X1399Y1369D02*
X1408Y1369D01*
X1432Y1369D02*
X1472Y1369D01*
X1499Y1369D02*
X1542Y1369D01*
X1571Y1369D02*
X1608Y1369D01*
X1634Y1369D02*
X1666Y1369D01*
X1701Y1369D02*
X1741Y1369D01*
X1775Y1369D02*
X1811Y1369D01*
X391Y1368D02*
X399Y1368D01*
X458Y1368D02*
X466Y1368D01*
X488Y1368D02*
X497Y1368D01*
X565Y1368D02*
X573Y1368D01*
X583Y1368D02*
X592Y1368D01*
X623Y1368D02*
X631Y1368D01*
X660Y1368D02*
X668Y1368D01*
X713Y1368D02*
X724Y1368D01*
X794Y1368D02*
X803Y1368D01*
X892Y1368D02*
X900Y1368D01*
X929Y1368D02*
X937Y1368D01*
X970Y1368D02*
X979Y1368D01*
X985Y1368D02*
X993Y1368D01*
X1040Y1368D02*
X1050Y1368D01*
X1107Y1368D02*
X1117Y1368D01*
X1161Y1368D02*
X1169Y1368D01*
X1198Y1368D02*
X1206Y1368D01*
X1228Y1368D02*
X1236Y1368D01*
X1265Y1368D02*
X1273Y1368D01*
X1366Y1368D02*
X1375Y1368D01*
X1384Y1368D02*
X1408Y1368D01*
X1432Y1368D02*
X1445Y1368D01*
X1460Y1368D02*
X1473Y1368D01*
X1499Y1368D02*
X1510Y1368D01*
X1519Y1368D02*
X1542Y1368D01*
X1592Y1368D02*
X1601Y1368D01*
X1633Y1368D02*
X1645Y1368D01*
X1701Y1368D02*
X1714Y1368D01*
X1729Y1368D02*
X1742Y1368D01*
X1775Y1368D02*
X1811Y1368D01*
X391Y1367D02*
X399Y1367D01*
X458Y1367D02*
X466Y1367D01*
X488Y1367D02*
X497Y1367D01*
X565Y1367D02*
X573Y1367D01*
X583Y1367D02*
X592Y1367D01*
X623Y1367D02*
X631Y1367D01*
X660Y1367D02*
X668Y1367D01*
X712Y1367D02*
X723Y1367D01*
X794Y1367D02*
X803Y1367D01*
X892Y1367D02*
X900Y1367D01*
X929Y1367D02*
X937Y1367D01*
X970Y1367D02*
X979Y1367D01*
X985Y1367D02*
X994Y1367D01*
X1040Y1367D02*
X1050Y1367D01*
X1108Y1367D02*
X1118Y1367D01*
X1161Y1367D02*
X1169Y1367D01*
X1198Y1367D02*
X1206Y1367D01*
X1228Y1367D02*
X1236Y1367D01*
X1265Y1367D02*
X1273Y1367D01*
X1364Y1367D02*
X1373Y1367D01*
X1385Y1367D02*
X1408Y1367D01*
X1431Y1367D02*
X1443Y1367D01*
X1462Y1367D02*
X1474Y1367D01*
X1499Y1367D02*
X1508Y1367D01*
X1521Y1367D02*
X1542Y1367D01*
X1592Y1367D02*
X1600Y1367D01*
X1633Y1367D02*
X1643Y1367D01*
X1700Y1367D02*
X1712Y1367D01*
X1731Y1367D02*
X1743Y1367D01*
X1776Y1367D02*
X1811Y1367D01*
X391Y1366D02*
X399Y1366D01*
X458Y1366D02*
X466Y1366D01*
X488Y1366D02*
X497Y1366D01*
X565Y1366D02*
X573Y1366D01*
X583Y1366D02*
X592Y1366D01*
X623Y1366D02*
X631Y1366D01*
X660Y1366D02*
X668Y1366D01*
X711Y1366D02*
X722Y1366D01*
X794Y1366D02*
X803Y1366D01*
X892Y1366D02*
X900Y1366D01*
X929Y1366D02*
X937Y1366D01*
X970Y1366D02*
X978Y1366D01*
X985Y1366D02*
X994Y1366D01*
X1041Y1366D02*
X1051Y1366D01*
X1108Y1366D02*
X1118Y1366D01*
X1161Y1366D02*
X1169Y1366D01*
X1198Y1366D02*
X1206Y1366D01*
X1228Y1366D02*
X1236Y1366D01*
X1265Y1366D02*
X1273Y1366D01*
X1363Y1366D02*
X1372Y1366D01*
X1386Y1366D02*
X1408Y1366D01*
X1431Y1366D02*
X1441Y1366D01*
X1463Y1366D02*
X1474Y1366D01*
X1498Y1366D02*
X1507Y1366D01*
X1522Y1366D02*
X1542Y1366D01*
X1592Y1366D02*
X1600Y1366D01*
X1633Y1366D02*
X1642Y1366D01*
X1700Y1366D02*
X1710Y1366D01*
X1732Y1366D02*
X1743Y1366D01*
X1776Y1366D02*
X1811Y1366D01*
X391Y1365D02*
X399Y1365D01*
X458Y1365D02*
X466Y1365D01*
X488Y1365D02*
X528Y1365D01*
X561Y1365D02*
X595Y1365D01*
X623Y1365D02*
X631Y1365D01*
X660Y1365D02*
X668Y1365D01*
X710Y1365D02*
X722Y1365D01*
X778Y1365D02*
X803Y1365D01*
X892Y1365D02*
X937Y1365D01*
X969Y1365D02*
X978Y1365D01*
X985Y1365D02*
X994Y1365D01*
X1042Y1365D02*
X1052Y1365D01*
X1109Y1365D02*
X1119Y1365D01*
X1161Y1365D02*
X1169Y1365D01*
X1198Y1365D02*
X1206Y1365D01*
X1228Y1365D02*
X1273Y1365D01*
X1363Y1365D02*
X1371Y1365D01*
X1388Y1365D02*
X1408Y1365D01*
X1430Y1365D02*
X1440Y1365D01*
X1464Y1365D02*
X1474Y1365D01*
X1498Y1365D02*
X1507Y1365D01*
X1524Y1365D02*
X1542Y1365D01*
X1592Y1365D02*
X1600Y1365D01*
X1633Y1365D02*
X1642Y1365D01*
X1699Y1365D02*
X1709Y1365D01*
X1733Y1365D02*
X1743Y1365D01*
X1777Y1365D02*
X1811Y1365D01*
X391Y1364D02*
X399Y1364D01*
X458Y1364D02*
X466Y1364D01*
X488Y1364D02*
X529Y1364D01*
X560Y1364D02*
X597Y1364D01*
X623Y1364D02*
X632Y1364D01*
X660Y1364D02*
X668Y1364D01*
X710Y1364D02*
X721Y1364D01*
X777Y1364D02*
X803Y1364D01*
X892Y1364D02*
X937Y1364D01*
X969Y1364D02*
X978Y1364D01*
X986Y1364D02*
X995Y1364D01*
X1042Y1364D02*
X1052Y1364D01*
X1109Y1364D02*
X1119Y1364D01*
X1161Y1364D02*
X1169Y1364D01*
X1198Y1364D02*
X1206Y1364D01*
X1228Y1364D02*
X1273Y1364D01*
X1362Y1364D02*
X1371Y1364D01*
X1389Y1364D02*
X1408Y1364D01*
X1430Y1364D02*
X1440Y1364D01*
X1465Y1364D02*
X1475Y1364D01*
X1498Y1364D02*
X1507Y1364D01*
X1525Y1364D02*
X1542Y1364D01*
X1592Y1364D02*
X1600Y1364D01*
X1633Y1364D02*
X1641Y1364D01*
X1699Y1364D02*
X1709Y1364D01*
X1734Y1364D02*
X1744Y1364D01*
X1803Y1364D02*
X1811Y1364D01*
X391Y1363D02*
X399Y1363D01*
X458Y1363D02*
X466Y1363D01*
X489Y1363D02*
X531Y1363D01*
X558Y1363D02*
X598Y1363D01*
X623Y1363D02*
X633Y1363D01*
X660Y1363D02*
X668Y1363D01*
X709Y1363D02*
X720Y1363D01*
X776Y1363D02*
X803Y1363D01*
X892Y1363D02*
X937Y1363D01*
X969Y1363D02*
X978Y1363D01*
X986Y1363D02*
X995Y1363D01*
X1043Y1363D02*
X1053Y1363D01*
X1110Y1363D02*
X1120Y1363D01*
X1161Y1363D02*
X1169Y1363D01*
X1198Y1363D02*
X1206Y1363D01*
X1228Y1363D02*
X1273Y1363D01*
X1362Y1363D02*
X1371Y1363D01*
X1390Y1363D02*
X1408Y1363D01*
X1430Y1363D02*
X1439Y1363D01*
X1466Y1363D02*
X1475Y1363D01*
X1498Y1363D02*
X1507Y1363D01*
X1527Y1363D02*
X1542Y1363D01*
X1592Y1363D02*
X1600Y1363D01*
X1633Y1363D02*
X1641Y1363D01*
X1699Y1363D02*
X1708Y1363D01*
X1735Y1363D02*
X1744Y1363D01*
X1803Y1363D02*
X1811Y1363D01*
X391Y1362D02*
X399Y1362D01*
X458Y1362D02*
X466Y1362D01*
X489Y1362D02*
X532Y1362D01*
X558Y1362D02*
X599Y1362D01*
X623Y1362D02*
X634Y1362D01*
X660Y1362D02*
X668Y1362D01*
X708Y1362D02*
X719Y1362D01*
X776Y1362D02*
X803Y1362D01*
X892Y1362D02*
X937Y1362D01*
X968Y1362D02*
X977Y1362D01*
X986Y1362D02*
X995Y1362D01*
X1043Y1362D02*
X1053Y1362D01*
X1111Y1362D02*
X1121Y1362D01*
X1161Y1362D02*
X1169Y1362D01*
X1198Y1362D02*
X1206Y1362D01*
X1228Y1362D02*
X1273Y1362D01*
X1362Y1362D02*
X1371Y1362D01*
X1391Y1362D02*
X1408Y1362D01*
X1430Y1362D02*
X1438Y1362D01*
X1466Y1362D02*
X1475Y1362D01*
X1498Y1362D02*
X1506Y1362D01*
X1528Y1362D02*
X1542Y1362D01*
X1592Y1362D02*
X1600Y1362D01*
X1633Y1362D02*
X1641Y1362D01*
X1699Y1362D02*
X1707Y1362D01*
X1735Y1362D02*
X1744Y1362D01*
X1803Y1362D02*
X1811Y1362D01*
X391Y1361D02*
X399Y1361D01*
X458Y1361D02*
X466Y1361D01*
X490Y1361D02*
X532Y1361D01*
X557Y1361D02*
X600Y1361D01*
X624Y1361D02*
X668Y1361D01*
X707Y1361D02*
X718Y1361D01*
X776Y1361D02*
X803Y1361D01*
X892Y1361D02*
X937Y1361D01*
X968Y1361D02*
X977Y1361D01*
X987Y1361D02*
X995Y1361D01*
X1044Y1361D02*
X1054Y1361D01*
X1111Y1361D02*
X1121Y1361D01*
X1161Y1361D02*
X1169Y1361D01*
X1198Y1361D02*
X1206Y1361D01*
X1228Y1361D02*
X1273Y1361D01*
X1362Y1361D02*
X1371Y1361D01*
X1392Y1361D02*
X1408Y1361D01*
X1430Y1361D02*
X1438Y1361D01*
X1467Y1361D02*
X1475Y1361D01*
X1498Y1361D02*
X1506Y1361D01*
X1530Y1361D02*
X1542Y1361D01*
X1592Y1361D02*
X1600Y1361D01*
X1633Y1361D02*
X1641Y1361D01*
X1699Y1361D02*
X1707Y1361D01*
X1736Y1361D02*
X1744Y1361D01*
X1803Y1361D02*
X1811Y1361D01*
X391Y1360D02*
X399Y1360D01*
X458Y1360D02*
X466Y1360D01*
X490Y1360D02*
X533Y1360D01*
X556Y1360D02*
X600Y1360D01*
X624Y1360D02*
X668Y1360D01*
X707Y1360D02*
X718Y1360D01*
X776Y1360D02*
X803Y1360D01*
X892Y1360D02*
X937Y1360D01*
X968Y1360D02*
X977Y1360D01*
X987Y1360D02*
X996Y1360D01*
X1045Y1360D02*
X1055Y1360D01*
X1112Y1360D02*
X1122Y1360D01*
X1161Y1360D02*
X1169Y1360D01*
X1198Y1360D02*
X1206Y1360D01*
X1228Y1360D02*
X1273Y1360D01*
X1363Y1360D02*
X1371Y1360D01*
X1393Y1360D02*
X1408Y1360D01*
X1430Y1360D02*
X1438Y1360D01*
X1467Y1360D02*
X1475Y1360D01*
X1498Y1360D02*
X1506Y1360D01*
X1531Y1360D02*
X1542Y1360D01*
X1592Y1360D02*
X1600Y1360D01*
X1632Y1360D02*
X1641Y1360D01*
X1699Y1360D02*
X1707Y1360D01*
X1736Y1360D02*
X1744Y1360D01*
X1803Y1360D02*
X1811Y1360D01*
X391Y1359D02*
X399Y1359D01*
X458Y1359D02*
X466Y1359D01*
X491Y1359D02*
X533Y1359D01*
X556Y1359D02*
X601Y1359D01*
X625Y1359D02*
X668Y1359D01*
X706Y1359D02*
X717Y1359D01*
X776Y1359D02*
X803Y1359D01*
X892Y1359D02*
X937Y1359D01*
X967Y1359D02*
X976Y1359D01*
X987Y1359D02*
X996Y1359D01*
X1045Y1359D02*
X1055Y1359D01*
X1112Y1359D02*
X1122Y1359D01*
X1161Y1359D02*
X1169Y1359D01*
X1198Y1359D02*
X1206Y1359D01*
X1228Y1359D02*
X1273Y1359D01*
X1363Y1359D02*
X1370Y1359D01*
X1395Y1359D02*
X1408Y1359D01*
X1430Y1359D02*
X1438Y1359D01*
X1467Y1359D02*
X1475Y1359D01*
X1498Y1359D02*
X1506Y1359D01*
X1533Y1359D02*
X1542Y1359D01*
X1592Y1359D02*
X1600Y1359D01*
X1632Y1359D02*
X1641Y1359D01*
X1699Y1359D02*
X1707Y1359D01*
X1736Y1359D02*
X1744Y1359D01*
X1803Y1359D02*
X1811Y1359D01*
X391Y1358D02*
X399Y1358D01*
X458Y1358D02*
X466Y1358D01*
X492Y1358D02*
X534Y1358D01*
X556Y1358D02*
X601Y1358D01*
X626Y1358D02*
X668Y1358D01*
X705Y1358D02*
X716Y1358D01*
X777Y1358D02*
X803Y1358D01*
X892Y1358D02*
X937Y1358D01*
X967Y1358D02*
X976Y1358D01*
X987Y1358D02*
X996Y1358D01*
X1046Y1358D02*
X1056Y1358D01*
X1113Y1358D02*
X1123Y1358D01*
X1161Y1358D02*
X1169Y1358D01*
X1198Y1358D02*
X1206Y1358D01*
X1228Y1358D02*
X1273Y1358D01*
X1364Y1358D02*
X1370Y1358D01*
X1396Y1358D02*
X1408Y1358D01*
X1430Y1358D02*
X1438Y1358D01*
X1467Y1358D02*
X1475Y1358D01*
X1498Y1358D02*
X1506Y1358D01*
X1534Y1358D02*
X1542Y1358D01*
X1592Y1358D02*
X1600Y1358D01*
X1632Y1358D02*
X1641Y1358D01*
X1699Y1358D02*
X1707Y1358D01*
X1736Y1358D02*
X1744Y1358D01*
X1803Y1358D02*
X1811Y1358D01*
X356Y1357D02*
X399Y1357D01*
X423Y1357D02*
X466Y1357D01*
X494Y1357D02*
X534Y1357D01*
X556Y1357D02*
X601Y1357D01*
X626Y1357D02*
X668Y1357D01*
X704Y1357D02*
X715Y1357D01*
X778Y1357D02*
X803Y1357D01*
X892Y1357D02*
X937Y1357D01*
X967Y1357D02*
X976Y1357D01*
X988Y1357D02*
X997Y1357D01*
X1046Y1357D02*
X1056Y1357D01*
X1114Y1357D02*
X1124Y1357D01*
X1161Y1357D02*
X1169Y1357D01*
X1198Y1357D02*
X1206Y1357D01*
X1228Y1357D02*
X1273Y1357D01*
X1365Y1357D02*
X1369Y1357D01*
X1397Y1357D02*
X1408Y1357D01*
X1430Y1357D02*
X1438Y1357D01*
X1467Y1357D02*
X1475Y1357D01*
X1498Y1357D02*
X1506Y1357D01*
X1534Y1357D02*
X1542Y1357D01*
X1592Y1357D02*
X1600Y1357D01*
X1632Y1357D02*
X1667Y1357D01*
X1699Y1357D02*
X1707Y1357D01*
X1736Y1357D02*
X1744Y1357D01*
X1803Y1357D02*
X1811Y1357D01*
X355Y1356D02*
X399Y1356D01*
X422Y1356D02*
X466Y1356D01*
X525Y1356D02*
X534Y1356D01*
X555Y1356D02*
X564Y1356D01*
X592Y1356D02*
X601Y1356D01*
X627Y1356D02*
X668Y1356D01*
X703Y1356D02*
X715Y1356D01*
X794Y1356D02*
X803Y1356D01*
X892Y1356D02*
X900Y1356D01*
X929Y1356D02*
X937Y1356D01*
X967Y1356D02*
X975Y1356D01*
X988Y1356D02*
X997Y1356D01*
X1047Y1356D02*
X1057Y1356D01*
X1114Y1356D02*
X1124Y1356D01*
X1161Y1356D02*
X1169Y1356D01*
X1198Y1356D02*
X1206Y1356D01*
X1228Y1356D02*
X1236Y1356D01*
X1265Y1356D02*
X1273Y1356D01*
X1398Y1356D02*
X1408Y1356D01*
X1430Y1356D02*
X1438Y1356D01*
X1467Y1356D02*
X1475Y1356D01*
X1498Y1356D02*
X1506Y1356D01*
X1534Y1356D02*
X1542Y1356D01*
X1592Y1356D02*
X1600Y1356D01*
X1632Y1356D02*
X1670Y1356D01*
X1699Y1356D02*
X1707Y1356D01*
X1736Y1356D02*
X1744Y1356D01*
X1803Y1356D02*
X1811Y1356D01*
X354Y1355D02*
X399Y1355D01*
X421Y1355D02*
X466Y1355D01*
X525Y1355D02*
X534Y1355D01*
X555Y1355D02*
X564Y1355D01*
X593Y1355D02*
X601Y1355D01*
X629Y1355D02*
X668Y1355D01*
X703Y1355D02*
X714Y1355D01*
X794Y1355D02*
X803Y1355D01*
X892Y1355D02*
X900Y1355D01*
X929Y1355D02*
X937Y1355D01*
X966Y1355D02*
X975Y1355D01*
X988Y1355D02*
X997Y1355D01*
X1047Y1355D02*
X1057Y1355D01*
X1115Y1355D02*
X1125Y1355D01*
X1161Y1355D02*
X1169Y1355D01*
X1198Y1355D02*
X1206Y1355D01*
X1228Y1355D02*
X1236Y1355D01*
X1265Y1355D02*
X1273Y1355D01*
X1399Y1355D02*
X1408Y1355D01*
X1430Y1355D02*
X1438Y1355D01*
X1467Y1355D02*
X1475Y1355D01*
X1498Y1355D02*
X1506Y1355D01*
X1534Y1355D02*
X1542Y1355D01*
X1592Y1355D02*
X1600Y1355D01*
X1632Y1355D02*
X1671Y1355D01*
X1699Y1355D02*
X1707Y1355D01*
X1736Y1355D02*
X1744Y1355D01*
X1803Y1355D02*
X1811Y1355D01*
X354Y1354D02*
X399Y1354D01*
X421Y1354D02*
X466Y1354D01*
X525Y1354D02*
X534Y1354D01*
X555Y1354D02*
X564Y1354D01*
X593Y1354D02*
X601Y1354D01*
X630Y1354D02*
X668Y1354D01*
X702Y1354D02*
X713Y1354D01*
X794Y1354D02*
X803Y1354D01*
X892Y1354D02*
X900Y1354D01*
X929Y1354D02*
X937Y1354D01*
X966Y1354D02*
X975Y1354D01*
X989Y1354D02*
X997Y1354D01*
X1048Y1354D02*
X1058Y1354D01*
X1115Y1354D02*
X1125Y1354D01*
X1161Y1354D02*
X1169Y1354D01*
X1198Y1354D02*
X1206Y1354D01*
X1228Y1354D02*
X1236Y1354D01*
X1265Y1354D02*
X1273Y1354D01*
X1399Y1354D02*
X1408Y1354D01*
X1430Y1354D02*
X1438Y1354D01*
X1467Y1354D02*
X1475Y1354D01*
X1498Y1354D02*
X1506Y1354D01*
X1534Y1354D02*
X1542Y1354D01*
X1592Y1354D02*
X1600Y1354D01*
X1632Y1354D02*
X1672Y1354D01*
X1699Y1354D02*
X1707Y1354D01*
X1736Y1354D02*
X1744Y1354D01*
X1803Y1354D02*
X1811Y1354D01*
X354Y1353D02*
X399Y1353D01*
X421Y1353D02*
X466Y1353D01*
X525Y1353D02*
X534Y1353D01*
X555Y1353D02*
X564Y1353D01*
X593Y1353D02*
X601Y1353D01*
X633Y1353D02*
X668Y1353D01*
X701Y1353D02*
X712Y1353D01*
X794Y1353D02*
X803Y1353D01*
X892Y1353D02*
X900Y1353D01*
X929Y1353D02*
X937Y1353D01*
X966Y1353D02*
X975Y1353D01*
X989Y1353D02*
X998Y1353D01*
X1049Y1353D02*
X1059Y1353D01*
X1116Y1353D02*
X1126Y1353D01*
X1161Y1353D02*
X1169Y1353D01*
X1198Y1353D02*
X1206Y1353D01*
X1228Y1353D02*
X1236Y1353D01*
X1265Y1353D02*
X1273Y1353D01*
X1399Y1353D02*
X1408Y1353D01*
X1430Y1353D02*
X1475Y1353D01*
X1498Y1353D02*
X1506Y1353D01*
X1534Y1353D02*
X1542Y1353D01*
X1592Y1353D02*
X1600Y1353D01*
X1632Y1353D02*
X1673Y1353D01*
X1699Y1353D02*
X1744Y1353D01*
X1803Y1353D02*
X1811Y1353D01*
X354Y1352D02*
X399Y1352D01*
X421Y1352D02*
X466Y1352D01*
X525Y1352D02*
X534Y1352D01*
X555Y1352D02*
X564Y1352D01*
X593Y1352D02*
X601Y1352D01*
X660Y1352D02*
X668Y1352D01*
X700Y1352D02*
X711Y1352D01*
X794Y1352D02*
X803Y1352D01*
X892Y1352D02*
X900Y1352D01*
X929Y1352D02*
X937Y1352D01*
X965Y1352D02*
X974Y1352D01*
X989Y1352D02*
X998Y1352D01*
X1049Y1352D02*
X1059Y1352D01*
X1116Y1352D02*
X1126Y1352D01*
X1161Y1352D02*
X1169Y1352D01*
X1198Y1352D02*
X1206Y1352D01*
X1228Y1352D02*
X1236Y1352D01*
X1265Y1352D02*
X1273Y1352D01*
X1399Y1352D02*
X1408Y1352D01*
X1430Y1352D02*
X1475Y1352D01*
X1498Y1352D02*
X1506Y1352D01*
X1534Y1352D02*
X1542Y1352D01*
X1592Y1352D02*
X1600Y1352D01*
X1632Y1352D02*
X1674Y1352D01*
X1699Y1352D02*
X1744Y1352D01*
X1803Y1352D02*
X1811Y1352D01*
X354Y1351D02*
X399Y1351D01*
X421Y1351D02*
X466Y1351D01*
X525Y1351D02*
X534Y1351D01*
X555Y1351D02*
X564Y1351D01*
X593Y1351D02*
X601Y1351D01*
X660Y1351D02*
X668Y1351D01*
X699Y1351D02*
X711Y1351D01*
X794Y1351D02*
X803Y1351D01*
X892Y1351D02*
X900Y1351D01*
X929Y1351D02*
X937Y1351D01*
X965Y1351D02*
X974Y1351D01*
X989Y1351D02*
X998Y1351D01*
X1050Y1351D02*
X1060Y1351D01*
X1117Y1351D02*
X1127Y1351D01*
X1161Y1351D02*
X1169Y1351D01*
X1198Y1351D02*
X1206Y1351D01*
X1228Y1351D02*
X1236Y1351D01*
X1265Y1351D02*
X1273Y1351D01*
X1399Y1351D02*
X1408Y1351D01*
X1430Y1351D02*
X1475Y1351D01*
X1498Y1351D02*
X1506Y1351D01*
X1534Y1351D02*
X1542Y1351D01*
X1592Y1351D02*
X1600Y1351D01*
X1632Y1351D02*
X1675Y1351D01*
X1699Y1351D02*
X1744Y1351D01*
X1803Y1351D02*
X1811Y1351D01*
X354Y1350D02*
X399Y1350D01*
X421Y1350D02*
X466Y1350D01*
X525Y1350D02*
X534Y1350D01*
X555Y1350D02*
X564Y1350D01*
X593Y1350D02*
X601Y1350D01*
X660Y1350D02*
X668Y1350D01*
X699Y1350D02*
X710Y1350D01*
X794Y1350D02*
X803Y1350D01*
X892Y1350D02*
X900Y1350D01*
X929Y1350D02*
X937Y1350D01*
X965Y1350D02*
X974Y1350D01*
X989Y1350D02*
X999Y1350D01*
X1050Y1350D02*
X1060Y1350D01*
X1118Y1350D02*
X1128Y1350D01*
X1161Y1350D02*
X1169Y1350D01*
X1198Y1350D02*
X1206Y1350D01*
X1228Y1350D02*
X1236Y1350D01*
X1265Y1350D02*
X1273Y1350D01*
X1399Y1350D02*
X1408Y1350D01*
X1430Y1350D02*
X1475Y1350D01*
X1498Y1350D02*
X1506Y1350D01*
X1534Y1350D02*
X1542Y1350D01*
X1592Y1350D02*
X1600Y1350D01*
X1632Y1350D02*
X1675Y1350D01*
X1699Y1350D02*
X1744Y1350D01*
X1803Y1350D02*
X1811Y1350D01*
X354Y1349D02*
X399Y1349D01*
X421Y1349D02*
X466Y1349D01*
X525Y1349D02*
X534Y1349D01*
X555Y1349D02*
X564Y1349D01*
X593Y1349D02*
X601Y1349D01*
X660Y1349D02*
X668Y1349D01*
X698Y1349D02*
X709Y1349D01*
X794Y1349D02*
X803Y1349D01*
X892Y1349D02*
X900Y1349D01*
X929Y1349D02*
X937Y1349D01*
X965Y1349D02*
X999Y1349D01*
X1051Y1349D02*
X1061Y1349D01*
X1118Y1349D02*
X1128Y1349D01*
X1161Y1349D02*
X1169Y1349D01*
X1198Y1349D02*
X1206Y1349D01*
X1228Y1349D02*
X1236Y1349D01*
X1265Y1349D02*
X1273Y1349D01*
X1399Y1349D02*
X1408Y1349D01*
X1430Y1349D02*
X1475Y1349D01*
X1498Y1349D02*
X1506Y1349D01*
X1534Y1349D02*
X1542Y1349D01*
X1592Y1349D02*
X1600Y1349D01*
X1632Y1349D02*
X1676Y1349D01*
X1699Y1349D02*
X1744Y1349D01*
X1803Y1349D02*
X1811Y1349D01*
X354Y1348D02*
X362Y1348D01*
X391Y1348D02*
X399Y1348D01*
X421Y1348D02*
X429Y1348D01*
X458Y1348D02*
X466Y1348D01*
X525Y1348D02*
X534Y1348D01*
X555Y1348D02*
X564Y1348D01*
X593Y1348D02*
X601Y1348D01*
X660Y1348D02*
X668Y1348D01*
X697Y1348D02*
X708Y1348D01*
X794Y1348D02*
X803Y1348D01*
X892Y1348D02*
X900Y1348D01*
X929Y1348D02*
X937Y1348D01*
X964Y1348D02*
X999Y1348D01*
X1052Y1348D02*
X1062Y1348D01*
X1119Y1348D02*
X1129Y1348D01*
X1161Y1348D02*
X1169Y1348D01*
X1198Y1348D02*
X1206Y1348D01*
X1228Y1348D02*
X1236Y1348D01*
X1265Y1348D02*
X1273Y1348D01*
X1399Y1348D02*
X1408Y1348D01*
X1430Y1348D02*
X1475Y1348D01*
X1498Y1348D02*
X1506Y1348D01*
X1534Y1348D02*
X1542Y1348D01*
X1592Y1348D02*
X1600Y1348D01*
X1632Y1348D02*
X1643Y1348D01*
X1666Y1348D02*
X1676Y1348D01*
X1699Y1348D02*
X1744Y1348D01*
X1803Y1348D02*
X1811Y1348D01*
X354Y1347D02*
X362Y1347D01*
X391Y1347D02*
X399Y1347D01*
X421Y1347D02*
X429Y1347D01*
X458Y1347D02*
X466Y1347D01*
X525Y1347D02*
X534Y1347D01*
X555Y1347D02*
X564Y1347D01*
X593Y1347D02*
X601Y1347D01*
X660Y1347D02*
X668Y1347D01*
X696Y1347D02*
X708Y1347D01*
X794Y1347D02*
X803Y1347D01*
X892Y1347D02*
X900Y1347D01*
X929Y1347D02*
X937Y1347D01*
X964Y1347D02*
X1000Y1347D01*
X1052Y1347D02*
X1062Y1347D01*
X1119Y1347D02*
X1129Y1347D01*
X1161Y1347D02*
X1169Y1347D01*
X1198Y1347D02*
X1206Y1347D01*
X1228Y1347D02*
X1236Y1347D01*
X1265Y1347D02*
X1273Y1347D01*
X1399Y1347D02*
X1408Y1347D01*
X1430Y1347D02*
X1475Y1347D01*
X1498Y1347D02*
X1506Y1347D01*
X1534Y1347D02*
X1542Y1347D01*
X1592Y1347D02*
X1600Y1347D01*
X1632Y1347D02*
X1642Y1347D01*
X1667Y1347D02*
X1677Y1347D01*
X1699Y1347D02*
X1744Y1347D01*
X1803Y1347D02*
X1811Y1347D01*
X354Y1346D02*
X362Y1346D01*
X391Y1346D02*
X399Y1346D01*
X421Y1346D02*
X429Y1346D01*
X458Y1346D02*
X466Y1346D01*
X525Y1346D02*
X534Y1346D01*
X555Y1346D02*
X564Y1346D01*
X593Y1346D02*
X601Y1346D01*
X660Y1346D02*
X668Y1346D01*
X696Y1346D02*
X707Y1346D01*
X794Y1346D02*
X803Y1346D01*
X892Y1346D02*
X900Y1346D01*
X929Y1346D02*
X937Y1346D01*
X964Y1346D02*
X1000Y1346D01*
X1053Y1346D02*
X1063Y1346D01*
X1120Y1346D02*
X1130Y1346D01*
X1161Y1346D02*
X1169Y1346D01*
X1198Y1346D02*
X1206Y1346D01*
X1228Y1346D02*
X1236Y1346D01*
X1265Y1346D02*
X1273Y1346D01*
X1399Y1346D02*
X1408Y1346D01*
X1431Y1346D02*
X1475Y1346D01*
X1498Y1346D02*
X1506Y1346D01*
X1534Y1346D02*
X1542Y1346D01*
X1592Y1346D02*
X1600Y1346D01*
X1632Y1346D02*
X1641Y1346D01*
X1668Y1346D02*
X1677Y1346D01*
X1700Y1346D02*
X1744Y1346D01*
X1803Y1346D02*
X1811Y1346D01*
X354Y1345D02*
X362Y1345D01*
X391Y1345D02*
X399Y1345D01*
X421Y1345D02*
X429Y1345D01*
X458Y1345D02*
X466Y1345D01*
X525Y1345D02*
X534Y1345D01*
X555Y1345D02*
X564Y1345D01*
X593Y1345D02*
X601Y1345D01*
X660Y1345D02*
X668Y1345D01*
X695Y1345D02*
X706Y1345D01*
X794Y1345D02*
X803Y1345D01*
X892Y1345D02*
X900Y1345D01*
X929Y1345D02*
X937Y1345D01*
X963Y1345D02*
X1000Y1345D01*
X1053Y1345D02*
X1063Y1345D01*
X1121Y1345D02*
X1131Y1345D01*
X1161Y1345D02*
X1169Y1345D01*
X1198Y1345D02*
X1206Y1345D01*
X1228Y1345D02*
X1236Y1345D01*
X1265Y1345D02*
X1273Y1345D01*
X1399Y1345D02*
X1408Y1345D01*
X1432Y1345D02*
X1475Y1345D01*
X1498Y1345D02*
X1506Y1345D01*
X1534Y1345D02*
X1542Y1345D01*
X1592Y1345D02*
X1600Y1345D01*
X1632Y1345D02*
X1641Y1345D01*
X1668Y1345D02*
X1677Y1345D01*
X1701Y1345D02*
X1744Y1345D01*
X1803Y1345D02*
X1811Y1345D01*
X354Y1344D02*
X362Y1344D01*
X391Y1344D02*
X399Y1344D01*
X421Y1344D02*
X429Y1344D01*
X458Y1344D02*
X466Y1344D01*
X525Y1344D02*
X534Y1344D01*
X555Y1344D02*
X564Y1344D01*
X593Y1344D02*
X601Y1344D01*
X660Y1344D02*
X668Y1344D01*
X694Y1344D02*
X705Y1344D01*
X794Y1344D02*
X803Y1344D01*
X892Y1344D02*
X900Y1344D01*
X929Y1344D02*
X937Y1344D01*
X963Y1344D02*
X1000Y1344D01*
X1054Y1344D02*
X1064Y1344D01*
X1121Y1344D02*
X1131Y1344D01*
X1161Y1344D02*
X1169Y1344D01*
X1198Y1344D02*
X1206Y1344D01*
X1228Y1344D02*
X1236Y1344D01*
X1265Y1344D02*
X1273Y1344D01*
X1399Y1344D02*
X1408Y1344D01*
X1467Y1344D02*
X1475Y1344D01*
X1497Y1344D02*
X1506Y1344D01*
X1534Y1344D02*
X1542Y1344D01*
X1592Y1344D02*
X1600Y1344D01*
X1632Y1344D02*
X1640Y1344D01*
X1668Y1344D02*
X1677Y1344D01*
X1736Y1344D02*
X1744Y1344D01*
X1803Y1344D02*
X1811Y1344D01*
X354Y1343D02*
X362Y1343D01*
X391Y1343D02*
X399Y1343D01*
X421Y1343D02*
X429Y1343D01*
X458Y1343D02*
X466Y1343D01*
X525Y1343D02*
X534Y1343D01*
X555Y1343D02*
X564Y1343D01*
X593Y1343D02*
X601Y1343D01*
X660Y1343D02*
X668Y1343D01*
X693Y1343D02*
X704Y1343D01*
X794Y1343D02*
X803Y1343D01*
X892Y1343D02*
X900Y1343D01*
X929Y1343D02*
X937Y1343D01*
X963Y1343D02*
X1001Y1343D01*
X1055Y1343D02*
X1064Y1343D01*
X1122Y1343D02*
X1132Y1343D01*
X1161Y1343D02*
X1169Y1343D01*
X1198Y1343D02*
X1206Y1343D01*
X1228Y1343D02*
X1236Y1343D01*
X1265Y1343D02*
X1273Y1343D01*
X1399Y1343D02*
X1408Y1343D01*
X1467Y1343D02*
X1475Y1343D01*
X1497Y1343D02*
X1506Y1343D01*
X1534Y1343D02*
X1542Y1343D01*
X1592Y1343D02*
X1600Y1343D01*
X1632Y1343D02*
X1640Y1343D01*
X1668Y1343D02*
X1677Y1343D01*
X1736Y1343D02*
X1744Y1343D01*
X1803Y1343D02*
X1811Y1343D01*
X354Y1342D02*
X362Y1342D01*
X391Y1342D02*
X399Y1342D01*
X421Y1342D02*
X429Y1342D01*
X458Y1342D02*
X466Y1342D01*
X525Y1342D02*
X534Y1342D01*
X555Y1342D02*
X564Y1342D01*
X593Y1342D02*
X601Y1342D01*
X660Y1342D02*
X668Y1342D01*
X692Y1342D02*
X704Y1342D01*
X794Y1342D02*
X803Y1342D01*
X892Y1342D02*
X900Y1342D01*
X929Y1342D02*
X937Y1342D01*
X963Y1342D02*
X1001Y1342D01*
X1055Y1342D02*
X1065Y1342D01*
X1122Y1342D02*
X1132Y1342D01*
X1161Y1342D02*
X1169Y1342D01*
X1198Y1342D02*
X1206Y1342D01*
X1228Y1342D02*
X1236Y1342D01*
X1265Y1342D02*
X1273Y1342D01*
X1399Y1342D02*
X1408Y1342D01*
X1467Y1342D02*
X1475Y1342D01*
X1497Y1342D02*
X1506Y1342D01*
X1534Y1342D02*
X1542Y1342D01*
X1592Y1342D02*
X1600Y1342D01*
X1632Y1342D02*
X1640Y1342D01*
X1668Y1342D02*
X1677Y1342D01*
X1736Y1342D02*
X1744Y1342D01*
X1803Y1342D02*
X1811Y1342D01*
X354Y1341D02*
X362Y1341D01*
X391Y1341D02*
X399Y1341D01*
X421Y1341D02*
X429Y1341D01*
X458Y1341D02*
X466Y1341D01*
X525Y1341D02*
X534Y1341D01*
X555Y1341D02*
X564Y1341D01*
X593Y1341D02*
X601Y1341D01*
X660Y1341D02*
X668Y1341D01*
X692Y1341D02*
X703Y1341D01*
X729Y1341D02*
X733Y1341D01*
X794Y1341D02*
X803Y1341D01*
X892Y1341D02*
X900Y1341D01*
X929Y1341D02*
X937Y1341D01*
X962Y1341D02*
X1001Y1341D01*
X1056Y1341D02*
X1066Y1341D01*
X1123Y1341D02*
X1133Y1341D01*
X1161Y1341D02*
X1169Y1341D01*
X1198Y1341D02*
X1206Y1341D01*
X1228Y1341D02*
X1236Y1341D01*
X1265Y1341D02*
X1273Y1341D01*
X1399Y1341D02*
X1408Y1341D01*
X1467Y1341D02*
X1475Y1341D01*
X1497Y1341D02*
X1506Y1341D01*
X1534Y1341D02*
X1542Y1341D01*
X1566Y1341D02*
X1570Y1341D01*
X1592Y1341D02*
X1600Y1341D01*
X1632Y1341D02*
X1640Y1341D01*
X1668Y1341D02*
X1677Y1341D01*
X1736Y1341D02*
X1744Y1341D01*
X1803Y1341D02*
X1811Y1341D01*
X354Y1340D02*
X362Y1340D01*
X391Y1340D02*
X399Y1340D01*
X421Y1340D02*
X429Y1340D01*
X458Y1340D02*
X466Y1340D01*
X525Y1340D02*
X534Y1340D01*
X555Y1340D02*
X564Y1340D01*
X593Y1340D02*
X601Y1340D01*
X660Y1340D02*
X668Y1340D01*
X691Y1340D02*
X702Y1340D01*
X728Y1340D02*
X734Y1340D01*
X794Y1340D02*
X803Y1340D01*
X892Y1340D02*
X900Y1340D01*
X929Y1340D02*
X937Y1340D01*
X962Y1340D02*
X971Y1340D01*
X993Y1340D02*
X1002Y1340D01*
X1056Y1340D02*
X1066Y1340D01*
X1124Y1340D02*
X1133Y1340D01*
X1161Y1340D02*
X1169Y1340D01*
X1198Y1340D02*
X1206Y1340D01*
X1228Y1340D02*
X1236Y1340D01*
X1265Y1340D02*
X1273Y1340D01*
X1399Y1340D02*
X1408Y1340D01*
X1466Y1340D02*
X1475Y1340D01*
X1497Y1340D02*
X1506Y1340D01*
X1534Y1340D02*
X1542Y1340D01*
X1565Y1340D02*
X1571Y1340D01*
X1592Y1340D02*
X1600Y1340D01*
X1632Y1340D02*
X1641Y1340D01*
X1668Y1340D02*
X1677Y1340D01*
X1735Y1340D02*
X1744Y1340D01*
X1803Y1340D02*
X1811Y1340D01*
X354Y1339D02*
X362Y1339D01*
X391Y1339D02*
X399Y1339D01*
X421Y1339D02*
X429Y1339D01*
X458Y1339D02*
X466Y1339D01*
X525Y1339D02*
X534Y1339D01*
X555Y1339D02*
X564Y1339D01*
X593Y1339D02*
X601Y1339D01*
X660Y1339D02*
X668Y1339D01*
X691Y1339D02*
X701Y1339D01*
X727Y1339D02*
X735Y1339D01*
X794Y1339D02*
X803Y1339D01*
X892Y1339D02*
X900Y1339D01*
X929Y1339D02*
X937Y1339D01*
X962Y1339D02*
X970Y1339D01*
X993Y1339D02*
X1002Y1339D01*
X1057Y1339D02*
X1067Y1339D01*
X1124Y1339D02*
X1134Y1339D01*
X1161Y1339D02*
X1169Y1339D01*
X1198Y1339D02*
X1206Y1339D01*
X1228Y1339D02*
X1236Y1339D01*
X1265Y1339D02*
X1273Y1339D01*
X1399Y1339D02*
X1408Y1339D01*
X1466Y1339D02*
X1475Y1339D01*
X1497Y1339D02*
X1506Y1339D01*
X1534Y1339D02*
X1542Y1339D01*
X1565Y1339D02*
X1572Y1339D01*
X1592Y1339D02*
X1600Y1339D01*
X1632Y1339D02*
X1642Y1339D01*
X1668Y1339D02*
X1677Y1339D01*
X1735Y1339D02*
X1744Y1339D01*
X1803Y1339D02*
X1811Y1339D01*
X354Y1338D02*
X362Y1338D01*
X391Y1338D02*
X399Y1338D01*
X421Y1338D02*
X429Y1338D01*
X458Y1338D02*
X466Y1338D01*
X525Y1338D02*
X534Y1338D01*
X555Y1338D02*
X564Y1338D01*
X593Y1338D02*
X601Y1338D01*
X660Y1338D02*
X668Y1338D01*
X690Y1338D02*
X701Y1338D01*
X727Y1338D02*
X735Y1338D01*
X794Y1338D02*
X803Y1338D01*
X892Y1338D02*
X900Y1338D01*
X929Y1338D02*
X937Y1338D01*
X961Y1338D02*
X970Y1338D01*
X993Y1338D02*
X1002Y1338D01*
X1057Y1338D02*
X1067Y1338D01*
X1125Y1338D02*
X1135Y1338D01*
X1161Y1338D02*
X1169Y1338D01*
X1198Y1338D02*
X1206Y1338D01*
X1228Y1338D02*
X1236Y1338D01*
X1265Y1338D02*
X1273Y1338D01*
X1399Y1338D02*
X1408Y1338D01*
X1465Y1338D02*
X1475Y1338D01*
X1497Y1338D02*
X1506Y1338D01*
X1534Y1338D02*
X1542Y1338D01*
X1564Y1338D02*
X1573Y1338D01*
X1592Y1338D02*
X1600Y1338D01*
X1632Y1338D02*
X1644Y1338D01*
X1668Y1338D02*
X1677Y1338D01*
X1734Y1338D02*
X1744Y1338D01*
X1803Y1338D02*
X1811Y1338D01*
X354Y1337D02*
X362Y1337D01*
X391Y1337D02*
X399Y1337D01*
X421Y1337D02*
X429Y1337D01*
X458Y1337D02*
X466Y1337D01*
X525Y1337D02*
X534Y1337D01*
X555Y1337D02*
X564Y1337D01*
X593Y1337D02*
X601Y1337D01*
X660Y1337D02*
X668Y1337D01*
X690Y1337D02*
X700Y1337D01*
X727Y1337D02*
X735Y1337D01*
X794Y1337D02*
X803Y1337D01*
X892Y1337D02*
X900Y1337D01*
X929Y1337D02*
X937Y1337D01*
X961Y1337D02*
X970Y1337D01*
X994Y1337D02*
X1002Y1337D01*
X1058Y1337D02*
X1068Y1337D01*
X1125Y1337D02*
X1135Y1337D01*
X1161Y1337D02*
X1169Y1337D01*
X1197Y1337D02*
X1206Y1337D01*
X1228Y1337D02*
X1236Y1337D01*
X1265Y1337D02*
X1273Y1337D01*
X1399Y1337D02*
X1408Y1337D01*
X1464Y1337D02*
X1474Y1337D01*
X1497Y1337D02*
X1506Y1337D01*
X1534Y1337D02*
X1542Y1337D01*
X1564Y1337D02*
X1573Y1337D01*
X1592Y1337D02*
X1600Y1337D01*
X1632Y1337D02*
X1645Y1337D01*
X1668Y1337D02*
X1677Y1337D01*
X1733Y1337D02*
X1743Y1337D01*
X1803Y1337D02*
X1811Y1337D01*
X354Y1336D02*
X362Y1336D01*
X391Y1336D02*
X399Y1336D01*
X421Y1336D02*
X429Y1336D01*
X458Y1336D02*
X466Y1336D01*
X525Y1336D02*
X534Y1336D01*
X555Y1336D02*
X564Y1336D01*
X593Y1336D02*
X601Y1336D01*
X660Y1336D02*
X668Y1336D01*
X690Y1336D02*
X699Y1336D01*
X727Y1336D02*
X735Y1336D01*
X794Y1336D02*
X803Y1336D01*
X892Y1336D02*
X900Y1336D01*
X929Y1336D02*
X937Y1336D01*
X961Y1336D02*
X970Y1336D01*
X994Y1336D02*
X1003Y1336D01*
X1059Y1336D02*
X1069Y1336D01*
X1126Y1336D02*
X1136Y1336D01*
X1161Y1336D02*
X1170Y1336D01*
X1197Y1336D02*
X1206Y1336D01*
X1228Y1336D02*
X1236Y1336D01*
X1265Y1336D02*
X1273Y1336D01*
X1399Y1336D02*
X1408Y1336D01*
X1463Y1336D02*
X1474Y1336D01*
X1497Y1336D02*
X1506Y1336D01*
X1534Y1336D02*
X1542Y1336D01*
X1564Y1336D02*
X1574Y1336D01*
X1591Y1336D02*
X1600Y1336D01*
X1632Y1336D02*
X1647Y1336D01*
X1668Y1336D02*
X1677Y1336D01*
X1732Y1336D02*
X1743Y1336D01*
X1803Y1336D02*
X1811Y1336D01*
X354Y1335D02*
X362Y1335D01*
X391Y1335D02*
X399Y1335D01*
X421Y1335D02*
X429Y1335D01*
X458Y1335D02*
X466Y1335D01*
X525Y1335D02*
X534Y1335D01*
X555Y1335D02*
X564Y1335D01*
X593Y1335D02*
X601Y1335D01*
X660Y1335D02*
X668Y1335D01*
X690Y1335D02*
X698Y1335D01*
X726Y1335D02*
X735Y1335D01*
X794Y1335D02*
X803Y1335D01*
X892Y1335D02*
X900Y1335D01*
X929Y1335D02*
X937Y1335D01*
X960Y1335D02*
X969Y1335D01*
X994Y1335D02*
X1003Y1335D01*
X1059Y1335D02*
X1069Y1335D01*
X1126Y1335D02*
X1136Y1335D01*
X1161Y1335D02*
X1171Y1335D01*
X1196Y1335D02*
X1206Y1335D01*
X1228Y1335D02*
X1236Y1335D01*
X1265Y1335D02*
X1273Y1335D01*
X1399Y1335D02*
X1408Y1335D01*
X1462Y1335D02*
X1474Y1335D01*
X1497Y1335D02*
X1506Y1335D01*
X1534Y1335D02*
X1542Y1335D01*
X1565Y1335D02*
X1574Y1335D01*
X1590Y1335D02*
X1600Y1335D01*
X1632Y1335D02*
X1649Y1335D01*
X1667Y1335D02*
X1676Y1335D01*
X1731Y1335D02*
X1743Y1335D01*
X1803Y1335D02*
X1811Y1335D01*
X354Y1334D02*
X363Y1334D01*
X390Y1334D02*
X399Y1334D01*
X421Y1334D02*
X430Y1334D01*
X458Y1334D02*
X466Y1334D01*
X525Y1334D02*
X534Y1334D01*
X555Y1334D02*
X564Y1334D01*
X592Y1334D02*
X601Y1334D01*
X660Y1334D02*
X668Y1334D01*
X690Y1334D02*
X700Y1334D01*
X724Y1334D02*
X735Y1334D01*
X794Y1334D02*
X803Y1334D01*
X892Y1334D02*
X900Y1334D01*
X929Y1334D02*
X937Y1334D01*
X960Y1334D02*
X969Y1334D01*
X995Y1334D02*
X1003Y1334D01*
X1059Y1334D02*
X1070Y1334D01*
X1126Y1334D02*
X1137Y1334D01*
X1161Y1334D02*
X1174Y1334D01*
X1193Y1334D02*
X1205Y1334D01*
X1228Y1334D02*
X1236Y1334D01*
X1265Y1334D02*
X1273Y1334D01*
X1399Y1334D02*
X1408Y1334D01*
X1459Y1334D02*
X1473Y1334D01*
X1497Y1334D02*
X1506Y1334D01*
X1534Y1334D02*
X1542Y1334D01*
X1565Y1334D02*
X1577Y1334D01*
X1588Y1334D02*
X1600Y1334D01*
X1632Y1334D02*
X1651Y1334D01*
X1664Y1334D02*
X1676Y1334D01*
X1728Y1334D02*
X1742Y1334D01*
X1803Y1334D02*
X1811Y1334D01*
X354Y1333D02*
X399Y1333D01*
X421Y1333D02*
X466Y1333D01*
X490Y1333D02*
X534Y1333D01*
X556Y1333D02*
X601Y1333D01*
X660Y1333D02*
X668Y1333D01*
X690Y1333D02*
X735Y1333D01*
X759Y1333D02*
X803Y1333D01*
X892Y1333D02*
X900Y1333D01*
X929Y1333D02*
X937Y1333D01*
X960Y1333D02*
X969Y1333D01*
X995Y1333D02*
X1004Y1333D01*
X1028Y1333D02*
X1070Y1333D01*
X1095Y1333D02*
X1138Y1333D01*
X1162Y1333D02*
X1205Y1333D01*
X1228Y1333D02*
X1236Y1333D01*
X1265Y1333D02*
X1273Y1333D01*
X1399Y1333D02*
X1408Y1333D01*
X1432Y1333D02*
X1472Y1333D01*
X1497Y1333D02*
X1505Y1333D01*
X1534Y1333D02*
X1542Y1333D01*
X1565Y1333D02*
X1599Y1333D01*
X1632Y1333D02*
X1676Y1333D01*
X1701Y1333D02*
X1741Y1333D01*
X1803Y1333D02*
X1811Y1333D01*
X354Y1332D02*
X399Y1332D01*
X421Y1332D02*
X466Y1332D01*
X489Y1332D02*
X534Y1332D01*
X556Y1332D02*
X601Y1332D01*
X660Y1332D02*
X668Y1332D01*
X691Y1332D02*
X734Y1332D01*
X758Y1332D02*
X803Y1332D01*
X892Y1332D02*
X900Y1332D01*
X929Y1332D02*
X937Y1332D01*
X960Y1332D02*
X968Y1332D01*
X995Y1332D02*
X1004Y1332D01*
X1027Y1332D02*
X1071Y1332D01*
X1094Y1332D02*
X1138Y1332D01*
X1162Y1332D02*
X1204Y1332D01*
X1228Y1332D02*
X1236Y1332D01*
X1265Y1332D02*
X1273Y1332D01*
X1399Y1332D02*
X1408Y1332D01*
X1431Y1332D02*
X1471Y1332D01*
X1497Y1332D02*
X1505Y1332D01*
X1534Y1332D02*
X1542Y1332D01*
X1566Y1332D02*
X1599Y1332D01*
X1632Y1332D02*
X1675Y1332D01*
X1700Y1332D02*
X1740Y1332D01*
X1803Y1332D02*
X1811Y1332D01*
X354Y1331D02*
X399Y1331D01*
X421Y1331D02*
X466Y1331D01*
X489Y1331D02*
X534Y1331D01*
X556Y1331D02*
X600Y1331D01*
X660Y1331D02*
X668Y1331D01*
X691Y1331D02*
X734Y1331D01*
X758Y1331D02*
X803Y1331D01*
X892Y1331D02*
X900Y1331D01*
X929Y1331D02*
X937Y1331D01*
X959Y1331D02*
X968Y1331D01*
X995Y1331D02*
X1004Y1331D01*
X1027Y1331D02*
X1071Y1331D01*
X1094Y1331D02*
X1139Y1331D01*
X1163Y1331D02*
X1204Y1331D01*
X1228Y1331D02*
X1236Y1331D01*
X1265Y1331D02*
X1273Y1331D01*
X1399Y1331D02*
X1408Y1331D01*
X1430Y1331D02*
X1471Y1331D01*
X1497Y1331D02*
X1505Y1331D01*
X1534Y1331D02*
X1542Y1331D01*
X1566Y1331D02*
X1598Y1331D01*
X1631Y1331D02*
X1675Y1331D01*
X1699Y1331D02*
X1740Y1331D01*
X1803Y1331D02*
X1811Y1331D01*
X354Y1330D02*
X399Y1330D01*
X421Y1330D02*
X466Y1330D01*
X488Y1330D02*
X534Y1330D01*
X556Y1330D02*
X600Y1330D01*
X660Y1330D02*
X668Y1330D01*
X691Y1330D02*
X733Y1330D01*
X757Y1330D02*
X803Y1330D01*
X892Y1330D02*
X900Y1330D01*
X929Y1330D02*
X937Y1330D01*
X959Y1330D02*
X968Y1330D01*
X996Y1330D02*
X1005Y1330D01*
X1026Y1330D02*
X1072Y1330D01*
X1094Y1330D02*
X1139Y1330D01*
X1164Y1330D02*
X1203Y1330D01*
X1228Y1330D02*
X1236Y1330D01*
X1265Y1330D02*
X1273Y1330D01*
X1399Y1330D02*
X1408Y1330D01*
X1430Y1330D02*
X1469Y1330D01*
X1497Y1330D02*
X1505Y1330D01*
X1534Y1330D02*
X1542Y1330D01*
X1567Y1330D02*
X1597Y1330D01*
X1631Y1330D02*
X1674Y1330D01*
X1699Y1330D02*
X1738Y1330D01*
X1803Y1330D02*
X1811Y1330D01*
X354Y1329D02*
X399Y1329D01*
X421Y1329D02*
X466Y1329D01*
X488Y1329D02*
X534Y1329D01*
X557Y1329D02*
X599Y1329D01*
X660Y1329D02*
X668Y1329D01*
X692Y1329D02*
X732Y1329D01*
X757Y1329D02*
X803Y1329D01*
X892Y1329D02*
X900Y1329D01*
X929Y1329D02*
X937Y1329D01*
X959Y1329D02*
X967Y1329D01*
X996Y1329D02*
X1005Y1329D01*
X1026Y1329D02*
X1072Y1329D01*
X1093Y1329D02*
X1139Y1329D01*
X1165Y1329D02*
X1202Y1329D01*
X1228Y1329D02*
X1236Y1329D01*
X1265Y1329D02*
X1273Y1329D01*
X1400Y1329D02*
X1408Y1329D01*
X1430Y1329D02*
X1468Y1329D01*
X1497Y1329D02*
X1505Y1329D01*
X1534Y1329D02*
X1542Y1329D01*
X1568Y1329D02*
X1597Y1329D01*
X1631Y1329D02*
X1673Y1329D01*
X1699Y1329D02*
X1737Y1329D01*
X1803Y1329D02*
X1811Y1329D01*
X354Y1328D02*
X399Y1328D01*
X421Y1328D02*
X466Y1328D01*
X488Y1328D02*
X534Y1328D01*
X558Y1328D02*
X599Y1328D01*
X660Y1328D02*
X668Y1328D01*
X693Y1328D02*
X731Y1328D01*
X757Y1328D02*
X803Y1328D01*
X892Y1328D02*
X900Y1328D01*
X929Y1328D02*
X937Y1328D01*
X959Y1328D02*
X967Y1328D01*
X996Y1328D02*
X1004Y1328D01*
X1026Y1328D02*
X1072Y1328D01*
X1094Y1328D02*
X1139Y1328D01*
X1166Y1328D02*
X1201Y1328D01*
X1228Y1328D02*
X1236Y1328D01*
X1265Y1328D02*
X1273Y1328D01*
X1400Y1328D02*
X1408Y1328D01*
X1430Y1328D02*
X1467Y1328D01*
X1497Y1328D02*
X1505Y1328D01*
X1534Y1328D02*
X1542Y1328D01*
X1569Y1328D02*
X1595Y1328D01*
X1632Y1328D02*
X1640Y1328D01*
X1643Y1328D02*
X1672Y1328D01*
X1699Y1328D02*
X1736Y1328D01*
X1803Y1328D02*
X1811Y1328D01*
X354Y1327D02*
X399Y1327D01*
X422Y1327D02*
X466Y1327D01*
X489Y1327D02*
X534Y1327D01*
X559Y1327D02*
X598Y1327D01*
X660Y1327D02*
X668Y1327D01*
X694Y1327D02*
X730Y1327D01*
X758Y1327D02*
X803Y1327D01*
X892Y1327D02*
X899Y1327D01*
X929Y1327D02*
X937Y1327D01*
X960Y1327D02*
X967Y1327D01*
X997Y1327D02*
X1004Y1327D01*
X1027Y1327D02*
X1072Y1327D01*
X1094Y1327D02*
X1139Y1327D01*
X1167Y1327D02*
X1200Y1327D01*
X1229Y1327D02*
X1236Y1327D01*
X1266Y1327D02*
X1273Y1327D01*
X1400Y1327D02*
X1407Y1327D01*
X1430Y1327D02*
X1466Y1327D01*
X1498Y1327D02*
X1505Y1327D01*
X1535Y1327D02*
X1542Y1327D01*
X1570Y1327D02*
X1594Y1327D01*
X1632Y1327D02*
X1639Y1327D01*
X1645Y1327D02*
X1671Y1327D01*
X1699Y1327D02*
X1735Y1327D01*
X1804Y1327D02*
X1811Y1327D01*
X355Y1326D02*
X398Y1326D01*
X422Y1326D02*
X465Y1326D01*
X490Y1326D02*
X534Y1326D01*
X560Y1326D02*
X597Y1326D01*
X661Y1326D02*
X667Y1326D01*
X695Y1326D02*
X729Y1326D01*
X759Y1326D02*
X803Y1326D01*
X893Y1326D02*
X899Y1326D01*
X930Y1326D02*
X936Y1326D01*
X960Y1326D02*
X966Y1326D01*
X997Y1326D02*
X1003Y1326D01*
X1028Y1326D02*
X1072Y1326D01*
X1095Y1326D02*
X1139Y1326D01*
X1169Y1326D02*
X1198Y1326D01*
X1229Y1326D02*
X1235Y1326D01*
X1266Y1326D02*
X1272Y1326D01*
X1401Y1326D02*
X1407Y1326D01*
X1431Y1326D02*
X1464Y1326D01*
X1498Y1326D02*
X1504Y1326D01*
X1535Y1326D02*
X1541Y1326D01*
X1572Y1326D02*
X1593Y1326D01*
X1633Y1326D02*
X1638Y1326D01*
X1646Y1326D02*
X1669Y1326D01*
X1700Y1326D02*
X1733Y1326D01*
X1804Y1326D02*
X1810Y1326D01*
X357Y1325D02*
X396Y1325D01*
X424Y1325D02*
X464Y1325D01*
X491Y1325D02*
X534Y1325D01*
X562Y1325D02*
X594Y1325D01*
X663Y1325D02*
X665Y1325D01*
X698Y1325D02*
X726Y1325D01*
X760Y1325D02*
X803Y1325D01*
X895Y1325D02*
X897Y1325D01*
X932Y1325D02*
X934Y1325D01*
X962Y1325D02*
X965Y1325D01*
X999Y1325D02*
X1002Y1325D01*
X1029Y1325D02*
X1072Y1325D01*
X1096Y1325D02*
X1139Y1325D01*
X1171Y1325D02*
X1196Y1325D01*
X1231Y1325D02*
X1234Y1325D01*
X1268Y1325D02*
X1271Y1325D01*
X1402Y1325D02*
X1405Y1325D01*
X1433Y1325D02*
X1461Y1325D01*
X1500Y1325D02*
X1503Y1325D01*
X1537Y1325D02*
X1540Y1325D01*
X1575Y1325D02*
X1590Y1325D01*
X1634Y1325D02*
X1637Y1325D01*
X1648Y1325D02*
X1666Y1325D01*
X1701Y1325D02*
X1730Y1325D01*
X1806Y1325D02*
X1809Y1325D01*
X1233Y1135D02*
X1239Y1135D01*
X1685Y1135D02*
X1691Y1135D01*
X1911Y1135D02*
X1917Y1135D01*
X1231Y1134D02*
X1241Y1134D01*
X1683Y1134D02*
X1693Y1134D01*
X1909Y1134D02*
X1919Y1134D01*
X1230Y1133D02*
X1242Y1133D01*
X1682Y1133D02*
X1694Y1133D01*
X1908Y1133D02*
X1920Y1133D01*
X1229Y1132D02*
X1243Y1132D01*
X1681Y1132D02*
X1695Y1132D01*
X1907Y1132D02*
X1921Y1132D01*
X1229Y1131D02*
X1243Y1131D01*
X1681Y1131D02*
X1695Y1131D01*
X1907Y1131D02*
X1921Y1131D01*
X284Y1130D02*
X304Y1130D01*
X659Y1130D02*
X704Y1130D01*
X1005Y1130D02*
X1025Y1130D01*
X1228Y1130D02*
X1243Y1130D01*
X1509Y1130D02*
X1560Y1130D01*
X1681Y1130D02*
X1695Y1130D01*
X1738Y1130D02*
X1786Y1130D01*
X1907Y1130D02*
X1922Y1130D01*
X1964Y1130D02*
X1968Y1130D01*
X2006Y1130D02*
X2010Y1130D01*
X283Y1129D02*
X306Y1129D01*
X657Y1129D02*
X705Y1129D01*
X1004Y1129D02*
X1026Y1129D01*
X1228Y1129D02*
X1243Y1129D01*
X1509Y1129D02*
X1560Y1129D01*
X1681Y1129D02*
X1696Y1129D01*
X1737Y1129D02*
X1786Y1129D01*
X1907Y1129D02*
X1922Y1129D01*
X1963Y1129D02*
X1969Y1129D01*
X2004Y1129D02*
X2011Y1129D01*
X282Y1128D02*
X308Y1128D01*
X656Y1128D02*
X706Y1128D01*
X1003Y1128D02*
X1027Y1128D01*
X1228Y1128D02*
X1243Y1128D01*
X1509Y1128D02*
X1560Y1128D01*
X1681Y1128D02*
X1696Y1128D01*
X1736Y1128D02*
X1786Y1128D01*
X1907Y1128D02*
X1922Y1128D01*
X1962Y1128D02*
X1970Y1128D01*
X2004Y1128D02*
X2012Y1128D01*
X282Y1127D02*
X310Y1127D01*
X656Y1127D02*
X707Y1127D01*
X1003Y1127D02*
X1027Y1127D01*
X1228Y1127D02*
X1243Y1127D01*
X1509Y1127D02*
X1560Y1127D01*
X1681Y1127D02*
X1696Y1127D01*
X1736Y1127D02*
X1786Y1127D01*
X1907Y1127D02*
X1922Y1127D01*
X1962Y1127D02*
X1971Y1127D01*
X2003Y1127D02*
X2012Y1127D01*
X282Y1126D02*
X311Y1126D01*
X540Y1126D02*
X542Y1126D01*
X656Y1126D02*
X707Y1126D01*
X1002Y1126D02*
X1027Y1126D01*
X1228Y1126D02*
X1243Y1126D01*
X1509Y1126D02*
X1560Y1126D01*
X1681Y1126D02*
X1696Y1126D01*
X1735Y1126D02*
X1786Y1126D01*
X1907Y1126D02*
X1922Y1126D01*
X1961Y1126D02*
X1971Y1126D01*
X2003Y1126D02*
X2012Y1126D01*
X282Y1125D02*
X312Y1125D01*
X538Y1125D02*
X544Y1125D01*
X656Y1125D02*
X707Y1125D01*
X1002Y1125D02*
X1027Y1125D01*
X1229Y1125D02*
X1243Y1125D01*
X1509Y1125D02*
X1560Y1125D01*
X1681Y1125D02*
X1695Y1125D01*
X1735Y1125D02*
X1786Y1125D01*
X1907Y1125D02*
X1922Y1125D01*
X1961Y1125D02*
X1971Y1125D01*
X2003Y1125D02*
X2013Y1125D01*
X282Y1124D02*
X313Y1124D01*
X537Y1124D02*
X545Y1124D01*
X656Y1124D02*
X707Y1124D01*
X1002Y1124D02*
X1027Y1124D01*
X1229Y1124D02*
X1243Y1124D01*
X1509Y1124D02*
X1560Y1124D01*
X1681Y1124D02*
X1695Y1124D01*
X1736Y1124D02*
X1786Y1124D01*
X1907Y1124D02*
X1921Y1124D01*
X1961Y1124D02*
X1971Y1124D01*
X2003Y1124D02*
X2013Y1124D01*
X282Y1123D02*
X314Y1123D01*
X537Y1123D02*
X545Y1123D01*
X656Y1123D02*
X706Y1123D01*
X1002Y1123D02*
X1027Y1123D01*
X1229Y1123D02*
X1243Y1123D01*
X1509Y1123D02*
X1560Y1123D01*
X1681Y1123D02*
X1695Y1123D01*
X1736Y1123D02*
X1786Y1123D01*
X1908Y1123D02*
X1921Y1123D01*
X1961Y1123D02*
X1971Y1123D01*
X2003Y1123D02*
X2013Y1123D01*
X283Y1122D02*
X314Y1122D01*
X536Y1122D02*
X546Y1122D01*
X657Y1122D02*
X705Y1122D01*
X1002Y1122D02*
X1026Y1122D01*
X1230Y1122D02*
X1242Y1122D01*
X1509Y1122D02*
X1560Y1122D01*
X1682Y1122D02*
X1694Y1122D01*
X1737Y1122D02*
X1786Y1122D01*
X1908Y1122D02*
X1920Y1122D01*
X1961Y1122D02*
X1971Y1122D01*
X2003Y1122D02*
X2013Y1122D01*
X284Y1121D02*
X315Y1121D01*
X536Y1121D02*
X546Y1121D01*
X658Y1121D02*
X704Y1121D01*
X1002Y1121D02*
X1025Y1121D01*
X1231Y1121D02*
X1241Y1121D01*
X1509Y1121D02*
X1560Y1121D01*
X1683Y1121D02*
X1693Y1121D01*
X1738Y1121D02*
X1786Y1121D01*
X1909Y1121D02*
X1919Y1121D01*
X1961Y1121D02*
X1971Y1121D01*
X2003Y1121D02*
X2013Y1121D01*
X301Y1120D02*
X315Y1120D01*
X536Y1120D02*
X546Y1120D01*
X676Y1120D02*
X686Y1120D01*
X1002Y1120D02*
X1012Y1120D01*
X1509Y1120D02*
X1519Y1120D01*
X1530Y1120D02*
X1540Y1120D01*
X1550Y1120D02*
X1560Y1120D01*
X1777Y1120D02*
X1786Y1120D01*
X1961Y1120D02*
X1971Y1120D01*
X2003Y1120D02*
X2013Y1120D01*
X304Y1119D02*
X316Y1119D01*
X536Y1119D02*
X546Y1119D01*
X677Y1119D02*
X686Y1119D01*
X1002Y1119D02*
X1012Y1119D01*
X1509Y1119D02*
X1519Y1119D01*
X1530Y1119D02*
X1540Y1119D01*
X1551Y1119D02*
X1560Y1119D01*
X1777Y1119D02*
X1786Y1119D01*
X1961Y1119D02*
X1971Y1119D01*
X2003Y1119D02*
X2013Y1119D01*
X305Y1118D02*
X316Y1118D01*
X536Y1118D02*
X546Y1118D01*
X677Y1118D02*
X686Y1118D01*
X1002Y1118D02*
X1012Y1118D01*
X1509Y1118D02*
X1519Y1118D01*
X1530Y1118D02*
X1540Y1118D01*
X1551Y1118D02*
X1560Y1118D01*
X1777Y1118D02*
X1786Y1118D01*
X1961Y1118D02*
X1971Y1118D01*
X2003Y1118D02*
X2013Y1118D01*
X306Y1117D02*
X316Y1117D01*
X536Y1117D02*
X546Y1117D01*
X677Y1117D02*
X686Y1117D01*
X1002Y1117D02*
X1012Y1117D01*
X1509Y1117D02*
X1519Y1117D01*
X1530Y1117D02*
X1540Y1117D01*
X1551Y1117D02*
X1560Y1117D01*
X1777Y1117D02*
X1786Y1117D01*
X1961Y1117D02*
X1971Y1117D01*
X2003Y1117D02*
X2013Y1117D01*
X307Y1116D02*
X317Y1116D01*
X536Y1116D02*
X546Y1116D01*
X677Y1116D02*
X686Y1116D01*
X1002Y1116D02*
X1012Y1116D01*
X1509Y1116D02*
X1519Y1116D01*
X1530Y1116D02*
X1540Y1116D01*
X1551Y1116D02*
X1560Y1116D01*
X1777Y1116D02*
X1786Y1116D01*
X1961Y1116D02*
X1971Y1116D01*
X2003Y1116D02*
X2013Y1116D01*
X307Y1115D02*
X317Y1115D01*
X536Y1115D02*
X546Y1115D01*
X677Y1115D02*
X686Y1115D01*
X1002Y1115D02*
X1012Y1115D01*
X1509Y1115D02*
X1518Y1115D01*
X1530Y1115D02*
X1540Y1115D01*
X1551Y1115D02*
X1560Y1115D01*
X1777Y1115D02*
X1786Y1115D01*
X1961Y1115D02*
X1971Y1115D01*
X2003Y1115D02*
X2013Y1115D01*
X307Y1114D02*
X317Y1114D01*
X536Y1114D02*
X546Y1114D01*
X677Y1114D02*
X686Y1114D01*
X1002Y1114D02*
X1012Y1114D01*
X1510Y1114D02*
X1518Y1114D01*
X1530Y1114D02*
X1540Y1114D01*
X1551Y1114D02*
X1560Y1114D01*
X1777Y1114D02*
X1786Y1114D01*
X1961Y1114D02*
X1971Y1114D01*
X2003Y1114D02*
X2013Y1114D01*
X307Y1113D02*
X317Y1113D01*
X536Y1113D02*
X546Y1113D01*
X677Y1113D02*
X686Y1113D01*
X1002Y1113D02*
X1012Y1113D01*
X1511Y1113D02*
X1517Y1113D01*
X1530Y1113D02*
X1540Y1113D01*
X1552Y1113D02*
X1559Y1113D01*
X1777Y1113D02*
X1786Y1113D01*
X1961Y1113D02*
X1971Y1113D01*
X2003Y1113D02*
X2013Y1113D01*
X308Y1112D02*
X317Y1112D01*
X536Y1112D02*
X546Y1112D01*
X677Y1112D02*
X686Y1112D01*
X1002Y1112D02*
X1012Y1112D01*
X1512Y1112D02*
X1516Y1112D01*
X1530Y1112D02*
X1540Y1112D01*
X1553Y1112D02*
X1558Y1112D01*
X1777Y1112D02*
X1786Y1112D01*
X1961Y1112D02*
X1971Y1112D01*
X2003Y1112D02*
X2013Y1112D01*
X308Y1111D02*
X317Y1111D01*
X536Y1111D02*
X546Y1111D01*
X677Y1111D02*
X686Y1111D01*
X1002Y1111D02*
X1012Y1111D01*
X1530Y1111D02*
X1540Y1111D01*
X1777Y1111D02*
X1786Y1111D01*
X1961Y1111D02*
X1971Y1111D01*
X2003Y1111D02*
X2013Y1111D01*
X308Y1110D02*
X317Y1110D01*
X536Y1110D02*
X546Y1110D01*
X677Y1110D02*
X686Y1110D01*
X1002Y1110D02*
X1012Y1110D01*
X1530Y1110D02*
X1540Y1110D01*
X1777Y1110D02*
X1786Y1110D01*
X1961Y1110D02*
X1971Y1110D01*
X2003Y1110D02*
X2013Y1110D01*
X308Y1109D02*
X317Y1109D01*
X536Y1109D02*
X546Y1109D01*
X677Y1109D02*
X686Y1109D01*
X1002Y1109D02*
X1012Y1109D01*
X1530Y1109D02*
X1540Y1109D01*
X1777Y1109D02*
X1786Y1109D01*
X1961Y1109D02*
X1971Y1109D01*
X2003Y1109D02*
X2013Y1109D01*
X68Y1108D02*
X88Y1108D01*
X131Y1108D02*
X158Y1108D01*
X217Y1108D02*
X241Y1108D01*
X295Y1108D02*
X324Y1108D01*
X366Y1108D02*
X382Y1108D01*
X399Y1108D02*
X402Y1108D01*
X445Y1108D02*
X465Y1108D01*
X513Y1108D02*
X553Y1108D01*
X593Y1108D02*
X606Y1108D01*
X625Y1108D02*
X628Y1108D01*
X677Y1108D02*
X686Y1108D01*
X1002Y1108D02*
X1012Y1108D01*
X1070Y1108D02*
X1095Y1108D01*
X1145Y1108D02*
X1158Y1108D01*
X1177Y1108D02*
X1180Y1108D01*
X1232Y1108D02*
X1251Y1108D01*
X1294Y1108D02*
X1298Y1108D01*
X1313Y1108D02*
X1319Y1108D01*
X1329Y1108D02*
X1332Y1108D01*
X1370Y1108D02*
X1386Y1108D01*
X1403Y1108D02*
X1406Y1108D01*
X1449Y1108D02*
X1469Y1108D01*
X1530Y1108D02*
X1540Y1108D01*
X1684Y1108D02*
X1703Y1108D01*
X1777Y1108D02*
X1786Y1108D01*
X1910Y1108D02*
X1929Y1108D01*
X1961Y1108D02*
X1971Y1108D01*
X2003Y1108D02*
X2013Y1108D01*
X66Y1107D02*
X91Y1107D01*
X130Y1107D02*
X161Y1107D01*
X214Y1107D02*
X243Y1107D01*
X294Y1107D02*
X326Y1107D01*
X363Y1107D02*
X383Y1107D01*
X397Y1107D02*
X404Y1107D01*
X442Y1107D02*
X468Y1107D01*
X512Y1107D02*
X554Y1107D01*
X591Y1107D02*
X609Y1107D01*
X624Y1107D02*
X630Y1107D01*
X677Y1107D02*
X686Y1107D01*
X1002Y1107D02*
X1012Y1107D01*
X1067Y1107D02*
X1096Y1107D01*
X1143Y1107D02*
X1161Y1107D01*
X1175Y1107D02*
X1182Y1107D01*
X1230Y1107D02*
X1252Y1107D01*
X1291Y1107D02*
X1301Y1107D01*
X1311Y1107D02*
X1322Y1107D01*
X1327Y1107D02*
X1333Y1107D01*
X1367Y1107D02*
X1387Y1107D01*
X1402Y1107D02*
X1408Y1107D01*
X1447Y1107D02*
X1472Y1107D01*
X1530Y1107D02*
X1540Y1107D01*
X1682Y1107D02*
X1704Y1107D01*
X1777Y1107D02*
X1786Y1107D01*
X1909Y1107D02*
X1930Y1107D01*
X1961Y1107D02*
X1971Y1107D01*
X2003Y1107D02*
X2013Y1107D01*
X64Y1106D02*
X93Y1106D01*
X129Y1106D02*
X163Y1106D01*
X212Y1106D02*
X243Y1106D01*
X293Y1106D02*
X327Y1106D01*
X361Y1106D02*
X384Y1106D01*
X397Y1106D02*
X404Y1106D01*
X441Y1106D02*
X470Y1106D01*
X511Y1106D02*
X555Y1106D01*
X589Y1106D02*
X611Y1106D01*
X623Y1106D02*
X631Y1106D01*
X677Y1106D02*
X686Y1106D01*
X1002Y1106D02*
X1012Y1106D01*
X1065Y1106D02*
X1097Y1106D01*
X1141Y1106D02*
X1163Y1106D01*
X1175Y1106D02*
X1183Y1106D01*
X1229Y1106D02*
X1253Y1106D01*
X1289Y1106D02*
X1302Y1106D01*
X1309Y1106D02*
X1323Y1106D01*
X1326Y1106D02*
X1334Y1106D01*
X1366Y1106D02*
X1388Y1106D01*
X1401Y1106D02*
X1409Y1106D01*
X1445Y1106D02*
X1474Y1106D01*
X1530Y1106D02*
X1540Y1106D01*
X1682Y1106D02*
X1705Y1106D01*
X1777Y1106D02*
X1786Y1106D01*
X1908Y1106D02*
X1931Y1106D01*
X1961Y1106D02*
X1971Y1106D01*
X2003Y1106D02*
X2013Y1106D01*
X62Y1105D02*
X94Y1105D01*
X128Y1105D02*
X165Y1105D01*
X211Y1105D02*
X244Y1105D01*
X292Y1105D02*
X327Y1105D01*
X360Y1105D02*
X385Y1105D01*
X396Y1105D02*
X405Y1105D01*
X439Y1105D02*
X471Y1105D01*
X511Y1105D02*
X556Y1105D01*
X588Y1105D02*
X613Y1105D01*
X622Y1105D02*
X631Y1105D01*
X677Y1105D02*
X686Y1105D01*
X1002Y1105D02*
X1012Y1105D01*
X1064Y1105D02*
X1097Y1105D01*
X1139Y1105D02*
X1164Y1105D01*
X1174Y1105D02*
X1183Y1105D01*
X1229Y1105D02*
X1253Y1105D01*
X1288Y1105D02*
X1304Y1105D01*
X1308Y1105D02*
X1335Y1105D01*
X1364Y1105D02*
X1390Y1105D01*
X1400Y1105D02*
X1409Y1105D01*
X1443Y1105D02*
X1475Y1105D01*
X1530Y1105D02*
X1540Y1105D01*
X1681Y1105D02*
X1706Y1105D01*
X1777Y1105D02*
X1786Y1105D01*
X1907Y1105D02*
X1932Y1105D01*
X1961Y1105D02*
X1971Y1105D01*
X2003Y1105D02*
X2013Y1105D01*
X61Y1104D02*
X95Y1104D01*
X128Y1104D02*
X166Y1104D01*
X210Y1104D02*
X244Y1104D01*
X292Y1104D02*
X327Y1104D01*
X359Y1104D02*
X387Y1104D01*
X396Y1104D02*
X405Y1104D01*
X438Y1104D02*
X472Y1104D01*
X510Y1104D02*
X556Y1104D01*
X586Y1104D02*
X614Y1104D01*
X622Y1104D02*
X631Y1104D01*
X677Y1104D02*
X686Y1104D01*
X1002Y1104D02*
X1012Y1104D01*
X1063Y1104D02*
X1097Y1104D01*
X1138Y1104D02*
X1166Y1104D01*
X1174Y1104D02*
X1183Y1104D01*
X1229Y1104D02*
X1253Y1104D01*
X1287Y1104D02*
X1305Y1104D01*
X1307Y1104D02*
X1335Y1104D01*
X1363Y1104D02*
X1391Y1104D01*
X1400Y1104D02*
X1409Y1104D01*
X1442Y1104D02*
X1476Y1104D01*
X1530Y1104D02*
X1540Y1104D01*
X1681Y1104D02*
X1706Y1104D01*
X1751Y1104D02*
X1786Y1104D01*
X1907Y1104D02*
X1932Y1104D01*
X1961Y1104D02*
X1971Y1104D01*
X1987Y1104D02*
X1987Y1104D01*
X2003Y1104D02*
X2013Y1104D01*
X60Y1103D02*
X97Y1103D01*
X128Y1103D02*
X167Y1103D01*
X209Y1103D02*
X244Y1103D01*
X292Y1103D02*
X327Y1103D01*
X358Y1103D02*
X388Y1103D01*
X396Y1103D02*
X405Y1103D01*
X437Y1103D02*
X473Y1103D01*
X510Y1103D02*
X556Y1103D01*
X586Y1103D02*
X616Y1103D01*
X622Y1103D02*
X631Y1103D01*
X677Y1103D02*
X686Y1103D01*
X1002Y1103D02*
X1012Y1103D01*
X1062Y1103D02*
X1098Y1103D01*
X1137Y1103D02*
X1168Y1103D01*
X1174Y1103D02*
X1183Y1103D01*
X1228Y1103D02*
X1254Y1103D01*
X1286Y1103D02*
X1335Y1103D01*
X1362Y1103D02*
X1392Y1103D01*
X1400Y1103D02*
X1409Y1103D01*
X1441Y1103D02*
X1478Y1103D01*
X1530Y1103D02*
X1540Y1103D01*
X1681Y1103D02*
X1706Y1103D01*
X1748Y1103D02*
X1786Y1103D01*
X1907Y1103D02*
X1932Y1103D01*
X1961Y1103D02*
X1971Y1103D01*
X1984Y1103D02*
X1989Y1103D01*
X2003Y1103D02*
X2013Y1103D01*
X59Y1102D02*
X98Y1102D01*
X128Y1102D02*
X168Y1102D01*
X208Y1102D02*
X244Y1102D01*
X292Y1102D02*
X327Y1102D01*
X357Y1102D02*
X389Y1102D01*
X396Y1102D02*
X405Y1102D01*
X436Y1102D02*
X475Y1102D01*
X511Y1102D02*
X556Y1102D01*
X585Y1102D02*
X617Y1102D01*
X622Y1102D02*
X631Y1102D01*
X677Y1102D02*
X686Y1102D01*
X1002Y1102D02*
X1012Y1102D01*
X1061Y1102D02*
X1097Y1102D01*
X1137Y1102D02*
X1169Y1102D01*
X1174Y1102D02*
X1183Y1102D01*
X1228Y1102D02*
X1253Y1102D01*
X1285Y1102D02*
X1335Y1102D01*
X1361Y1102D02*
X1393Y1102D01*
X1400Y1102D02*
X1410Y1102D01*
X1440Y1102D02*
X1479Y1102D01*
X1530Y1102D02*
X1540Y1102D01*
X1681Y1102D02*
X1706Y1102D01*
X1747Y1102D02*
X1786Y1102D01*
X1907Y1102D02*
X1932Y1102D01*
X1961Y1102D02*
X1971Y1102D01*
X1983Y1102D02*
X1991Y1102D01*
X2003Y1102D02*
X2013Y1102D01*
X58Y1101D02*
X99Y1101D01*
X129Y1101D02*
X169Y1101D01*
X207Y1101D02*
X244Y1101D01*
X292Y1101D02*
X327Y1101D01*
X357Y1101D02*
X390Y1101D01*
X396Y1101D02*
X405Y1101D01*
X435Y1101D02*
X476Y1101D01*
X511Y1101D02*
X556Y1101D01*
X584Y1101D02*
X619Y1101D01*
X622Y1101D02*
X631Y1101D01*
X677Y1101D02*
X686Y1101D01*
X1002Y1101D02*
X1012Y1101D01*
X1061Y1101D02*
X1097Y1101D01*
X1136Y1101D02*
X1171Y1101D01*
X1174Y1101D02*
X1183Y1101D01*
X1228Y1101D02*
X1253Y1101D01*
X1285Y1101D02*
X1335Y1101D01*
X1361Y1101D02*
X1394Y1101D01*
X1400Y1101D02*
X1410Y1101D01*
X1439Y1101D02*
X1480Y1101D01*
X1530Y1101D02*
X1540Y1101D01*
X1681Y1101D02*
X1705Y1101D01*
X1746Y1101D02*
X1786Y1101D01*
X1907Y1101D02*
X1931Y1101D01*
X1961Y1101D02*
X1971Y1101D01*
X1983Y1101D02*
X1991Y1101D01*
X2003Y1101D02*
X2013Y1101D01*
X57Y1100D02*
X100Y1100D01*
X129Y1100D02*
X171Y1100D01*
X207Y1100D02*
X243Y1100D01*
X293Y1100D02*
X326Y1100D01*
X356Y1100D02*
X391Y1100D01*
X396Y1100D02*
X405Y1100D01*
X434Y1100D02*
X477Y1100D01*
X512Y1100D02*
X555Y1100D01*
X583Y1100D02*
X620Y1100D01*
X622Y1100D02*
X631Y1100D01*
X677Y1100D02*
X686Y1100D01*
X1002Y1100D02*
X1012Y1100D01*
X1060Y1100D02*
X1096Y1100D01*
X1135Y1100D02*
X1183Y1100D01*
X1228Y1100D02*
X1252Y1100D01*
X1285Y1100D02*
X1335Y1100D01*
X1360Y1100D02*
X1395Y1100D01*
X1400Y1100D02*
X1410Y1100D01*
X1438Y1100D02*
X1481Y1100D01*
X1530Y1100D02*
X1540Y1100D01*
X1681Y1100D02*
X1705Y1100D01*
X1746Y1100D02*
X1786Y1100D01*
X1907Y1100D02*
X1931Y1100D01*
X1961Y1100D02*
X1971Y1100D01*
X1982Y1100D02*
X1992Y1100D01*
X2003Y1100D02*
X2013Y1100D01*
X56Y1099D02*
X101Y1099D01*
X130Y1099D02*
X172Y1099D01*
X206Y1099D02*
X242Y1099D01*
X294Y1099D02*
X325Y1099D01*
X356Y1099D02*
X392Y1099D01*
X396Y1099D02*
X405Y1099D01*
X433Y1099D02*
X477Y1099D01*
X513Y1099D02*
X554Y1099D01*
X583Y1099D02*
X631Y1099D01*
X677Y1099D02*
X686Y1099D01*
X1002Y1099D02*
X1012Y1099D01*
X1059Y1099D02*
X1095Y1099D01*
X1135Y1099D02*
X1183Y1099D01*
X1228Y1099D02*
X1251Y1099D01*
X1284Y1099D02*
X1335Y1099D01*
X1360Y1099D02*
X1397Y1099D01*
X1400Y1099D02*
X1410Y1099D01*
X1437Y1099D02*
X1482Y1099D01*
X1530Y1099D02*
X1540Y1099D01*
X1681Y1099D02*
X1704Y1099D01*
X1746Y1099D02*
X1786Y1099D01*
X1907Y1099D02*
X1930Y1099D01*
X1961Y1099D02*
X1971Y1099D01*
X1982Y1099D02*
X1992Y1099D01*
X2003Y1099D02*
X2013Y1099D01*
X55Y1098D02*
X101Y1098D01*
X134Y1098D02*
X173Y1098D01*
X206Y1098D02*
X239Y1098D01*
X297Y1098D02*
X322Y1098D01*
X355Y1098D02*
X394Y1098D01*
X396Y1098D02*
X405Y1098D01*
X432Y1098D02*
X478Y1098D01*
X516Y1098D02*
X551Y1098D01*
X583Y1098D02*
X631Y1098D01*
X677Y1098D02*
X686Y1098D01*
X1002Y1098D02*
X1012Y1098D01*
X1059Y1098D02*
X1092Y1098D01*
X1135Y1098D02*
X1183Y1098D01*
X1228Y1098D02*
X1248Y1098D01*
X1284Y1098D02*
X1335Y1098D01*
X1359Y1098D02*
X1398Y1098D01*
X1400Y1098D02*
X1410Y1098D01*
X1436Y1098D02*
X1482Y1098D01*
X1530Y1098D02*
X1540Y1098D01*
X1681Y1098D02*
X1700Y1098D01*
X1746Y1098D02*
X1786Y1098D01*
X1907Y1098D02*
X1927Y1098D01*
X1961Y1098D02*
X1971Y1098D01*
X1982Y1098D02*
X1992Y1098D01*
X2003Y1098D02*
X2013Y1098D01*
X55Y1097D02*
X68Y1097D01*
X88Y1097D02*
X102Y1097D01*
X158Y1097D02*
X174Y1097D01*
X205Y1097D02*
X216Y1097D01*
X308Y1097D02*
X317Y1097D01*
X355Y1097D02*
X366Y1097D01*
X380Y1097D02*
X405Y1097D01*
X432Y1097D02*
X445Y1097D01*
X465Y1097D02*
X479Y1097D01*
X536Y1097D02*
X546Y1097D01*
X582Y1097D02*
X594Y1097D01*
X606Y1097D02*
X631Y1097D01*
X677Y1097D02*
X686Y1097D01*
X1002Y1097D02*
X1012Y1097D01*
X1059Y1097D02*
X1070Y1097D01*
X1134Y1097D02*
X1145Y1097D01*
X1158Y1097D02*
X1183Y1097D01*
X1228Y1097D02*
X1238Y1097D01*
X1284Y1097D02*
X1294Y1097D01*
X1298Y1097D02*
X1314Y1097D01*
X1319Y1097D02*
X1335Y1097D01*
X1359Y1097D02*
X1370Y1097D01*
X1384Y1097D02*
X1410Y1097D01*
X1436Y1097D02*
X1449Y1097D01*
X1469Y1097D02*
X1483Y1097D01*
X1530Y1097D02*
X1540Y1097D01*
X1681Y1097D02*
X1690Y1097D01*
X1746Y1097D02*
X1786Y1097D01*
X1907Y1097D02*
X1916Y1097D01*
X1961Y1097D02*
X1971Y1097D01*
X1982Y1097D02*
X1992Y1097D01*
X2003Y1097D02*
X2013Y1097D01*
X54Y1096D02*
X67Y1096D01*
X90Y1096D02*
X102Y1096D01*
X160Y1096D02*
X175Y1096D01*
X205Y1096D02*
X216Y1096D01*
X308Y1096D02*
X317Y1096D01*
X355Y1096D02*
X365Y1096D01*
X381Y1096D02*
X405Y1096D01*
X431Y1096D02*
X444Y1096D01*
X467Y1096D02*
X479Y1096D01*
X536Y1096D02*
X546Y1096D01*
X582Y1096D02*
X593Y1096D01*
X608Y1096D02*
X631Y1096D01*
X677Y1096D02*
X686Y1096D01*
X1002Y1096D02*
X1012Y1096D01*
X1059Y1096D02*
X1069Y1096D01*
X1134Y1096D02*
X1144Y1096D01*
X1160Y1096D02*
X1183Y1096D01*
X1228Y1096D02*
X1238Y1096D01*
X1284Y1096D02*
X1293Y1096D01*
X1299Y1096D02*
X1313Y1096D01*
X1320Y1096D02*
X1335Y1096D01*
X1359Y1096D02*
X1369Y1096D01*
X1385Y1096D02*
X1410Y1096D01*
X1435Y1096D02*
X1448Y1096D01*
X1471Y1096D02*
X1483Y1096D01*
X1530Y1096D02*
X1540Y1096D01*
X1681Y1096D02*
X1690Y1096D01*
X1747Y1096D02*
X1786Y1096D01*
X1907Y1096D02*
X1916Y1096D01*
X1961Y1096D02*
X1971Y1096D01*
X1982Y1096D02*
X1992Y1096D01*
X2003Y1096D02*
X2013Y1096D01*
X54Y1095D02*
X65Y1095D01*
X91Y1095D02*
X103Y1095D01*
X161Y1095D02*
X176Y1095D01*
X205Y1095D02*
X215Y1095D01*
X308Y1095D02*
X317Y1095D01*
X354Y1095D02*
X364Y1095D01*
X382Y1095D02*
X405Y1095D01*
X431Y1095D02*
X442Y1095D01*
X468Y1095D02*
X480Y1095D01*
X536Y1095D02*
X546Y1095D01*
X582Y1095D02*
X592Y1095D01*
X609Y1095D02*
X631Y1095D01*
X677Y1095D02*
X686Y1095D01*
X1002Y1095D02*
X1012Y1095D01*
X1058Y1095D02*
X1068Y1095D01*
X1134Y1095D02*
X1144Y1095D01*
X1161Y1095D02*
X1183Y1095D01*
X1228Y1095D02*
X1238Y1095D01*
X1284Y1095D02*
X1293Y1095D01*
X1300Y1095D02*
X1313Y1095D01*
X1321Y1095D02*
X1335Y1095D01*
X1359Y1095D02*
X1368Y1095D01*
X1386Y1095D02*
X1410Y1095D01*
X1435Y1095D02*
X1446Y1095D01*
X1472Y1095D02*
X1484Y1095D01*
X1530Y1095D02*
X1540Y1095D01*
X1681Y1095D02*
X1690Y1095D01*
X1747Y1095D02*
X1786Y1095D01*
X1815Y1095D02*
X1858Y1095D01*
X1907Y1095D02*
X1916Y1095D01*
X1961Y1095D02*
X1971Y1095D01*
X1982Y1095D02*
X1992Y1095D01*
X2003Y1095D02*
X2013Y1095D01*
X53Y1094D02*
X64Y1094D01*
X92Y1094D02*
X103Y1094D01*
X162Y1094D02*
X176Y1094D01*
X205Y1094D02*
X215Y1094D01*
X308Y1094D02*
X317Y1094D01*
X354Y1094D02*
X364Y1094D01*
X383Y1094D02*
X405Y1094D01*
X430Y1094D02*
X441Y1094D01*
X469Y1094D02*
X480Y1094D01*
X536Y1094D02*
X546Y1094D01*
X582Y1094D02*
X592Y1094D01*
X611Y1094D02*
X631Y1094D01*
X677Y1094D02*
X686Y1094D01*
X1002Y1094D02*
X1012Y1094D01*
X1058Y1094D02*
X1068Y1094D01*
X1134Y1094D02*
X1143Y1094D01*
X1163Y1094D02*
X1183Y1094D01*
X1228Y1094D02*
X1238Y1094D01*
X1284Y1094D02*
X1293Y1094D01*
X1301Y1094D02*
X1313Y1094D01*
X1322Y1094D02*
X1335Y1094D01*
X1358Y1094D02*
X1368Y1094D01*
X1387Y1094D02*
X1410Y1094D01*
X1434Y1094D02*
X1445Y1094D01*
X1473Y1094D02*
X1484Y1094D01*
X1530Y1094D02*
X1540Y1094D01*
X1681Y1094D02*
X1690Y1094D01*
X1749Y1094D02*
X1786Y1094D01*
X1813Y1094D02*
X1860Y1094D01*
X1907Y1094D02*
X1916Y1094D01*
X1961Y1094D02*
X1971Y1094D01*
X1982Y1094D02*
X1992Y1094D01*
X2003Y1094D02*
X2013Y1094D01*
X53Y1093D02*
X64Y1093D01*
X93Y1093D02*
X103Y1093D01*
X163Y1093D02*
X177Y1093D01*
X205Y1093D02*
X215Y1093D01*
X308Y1093D02*
X317Y1093D01*
X354Y1093D02*
X364Y1093D01*
X384Y1093D02*
X405Y1093D01*
X430Y1093D02*
X440Y1093D01*
X470Y1093D02*
X480Y1093D01*
X536Y1093D02*
X546Y1093D01*
X582Y1093D02*
X591Y1093D01*
X613Y1093D02*
X631Y1093D01*
X677Y1093D02*
X686Y1093D01*
X1002Y1093D02*
X1012Y1093D01*
X1058Y1093D02*
X1068Y1093D01*
X1134Y1093D02*
X1143Y1093D01*
X1164Y1093D02*
X1183Y1093D01*
X1228Y1093D02*
X1238Y1093D01*
X1284Y1093D02*
X1293Y1093D01*
X1303Y1093D02*
X1313Y1093D01*
X1323Y1093D02*
X1335Y1093D01*
X1358Y1093D02*
X1368Y1093D01*
X1388Y1093D02*
X1410Y1093D01*
X1434Y1093D02*
X1445Y1093D01*
X1474Y1093D02*
X1484Y1093D01*
X1530Y1093D02*
X1540Y1093D01*
X1681Y1093D02*
X1690Y1093D01*
X1777Y1093D02*
X1786Y1093D01*
X1812Y1093D02*
X1861Y1093D01*
X1907Y1093D02*
X1916Y1093D01*
X1961Y1093D02*
X1971Y1093D01*
X1982Y1093D02*
X1992Y1093D01*
X2003Y1093D02*
X2013Y1093D01*
X53Y1092D02*
X63Y1092D01*
X94Y1092D02*
X104Y1092D01*
X164Y1092D02*
X178Y1092D01*
X205Y1092D02*
X214Y1092D01*
X308Y1092D02*
X317Y1092D01*
X354Y1092D02*
X364Y1092D01*
X385Y1092D02*
X405Y1092D01*
X430Y1092D02*
X440Y1092D01*
X471Y1092D02*
X481Y1092D01*
X536Y1092D02*
X546Y1092D01*
X582Y1092D02*
X591Y1092D01*
X614Y1092D02*
X631Y1092D01*
X677Y1092D02*
X686Y1092D01*
X1002Y1092D02*
X1012Y1092D01*
X1058Y1092D02*
X1068Y1092D01*
X1134Y1092D02*
X1143Y1092D01*
X1166Y1092D02*
X1183Y1092D01*
X1228Y1092D02*
X1238Y1092D01*
X1284Y1092D02*
X1293Y1092D01*
X1304Y1092D02*
X1313Y1092D01*
X1324Y1092D02*
X1335Y1092D01*
X1358Y1092D02*
X1368Y1092D01*
X1389Y1092D02*
X1410Y1092D01*
X1434Y1092D02*
X1444Y1092D01*
X1475Y1092D02*
X1485Y1092D01*
X1530Y1092D02*
X1540Y1092D01*
X1681Y1092D02*
X1690Y1092D01*
X1777Y1092D02*
X1786Y1092D01*
X1811Y1092D02*
X1861Y1092D01*
X1907Y1092D02*
X1916Y1092D01*
X1961Y1092D02*
X1971Y1092D01*
X1982Y1092D02*
X1992Y1092D01*
X2003Y1092D02*
X2013Y1092D01*
X53Y1091D02*
X63Y1091D01*
X94Y1091D02*
X104Y1091D01*
X166Y1091D02*
X178Y1091D01*
X205Y1091D02*
X214Y1091D01*
X308Y1091D02*
X317Y1091D01*
X354Y1091D02*
X364Y1091D01*
X387Y1091D02*
X405Y1091D01*
X430Y1091D02*
X439Y1091D01*
X471Y1091D02*
X481Y1091D01*
X536Y1091D02*
X546Y1091D01*
X582Y1091D02*
X591Y1091D01*
X616Y1091D02*
X631Y1091D01*
X677Y1091D02*
X686Y1091D01*
X1002Y1091D02*
X1012Y1091D01*
X1058Y1091D02*
X1068Y1091D01*
X1134Y1091D02*
X1143Y1091D01*
X1168Y1091D02*
X1183Y1091D01*
X1228Y1091D02*
X1238Y1091D01*
X1284Y1091D02*
X1293Y1091D01*
X1304Y1091D02*
X1313Y1091D01*
X1325Y1091D02*
X1335Y1091D01*
X1358Y1091D02*
X1368Y1091D01*
X1391Y1091D02*
X1410Y1091D01*
X1434Y1091D02*
X1444Y1091D01*
X1475Y1091D02*
X1485Y1091D01*
X1530Y1091D02*
X1540Y1091D01*
X1681Y1091D02*
X1690Y1091D01*
X1777Y1091D02*
X1786Y1091D01*
X1811Y1091D02*
X1862Y1091D01*
X1907Y1091D02*
X1916Y1091D01*
X1961Y1091D02*
X1971Y1091D01*
X1982Y1091D02*
X1992Y1091D01*
X2003Y1091D02*
X2013Y1091D01*
X53Y1090D02*
X62Y1090D01*
X94Y1090D02*
X104Y1090D01*
X167Y1090D02*
X178Y1090D01*
X205Y1090D02*
X214Y1090D01*
X308Y1090D02*
X317Y1090D01*
X354Y1090D02*
X364Y1090D01*
X388Y1090D02*
X405Y1090D01*
X430Y1090D02*
X439Y1090D01*
X471Y1090D02*
X481Y1090D01*
X536Y1090D02*
X546Y1090D01*
X582Y1090D02*
X591Y1090D01*
X617Y1090D02*
X631Y1090D01*
X677Y1090D02*
X686Y1090D01*
X1002Y1090D02*
X1012Y1090D01*
X1058Y1090D02*
X1068Y1090D01*
X1133Y1090D02*
X1143Y1090D01*
X1169Y1090D02*
X1183Y1090D01*
X1228Y1090D02*
X1238Y1090D01*
X1284Y1090D02*
X1293Y1090D01*
X1304Y1090D02*
X1313Y1090D01*
X1325Y1090D02*
X1335Y1090D01*
X1358Y1090D02*
X1368Y1090D01*
X1392Y1090D02*
X1410Y1090D01*
X1434Y1090D02*
X1443Y1090D01*
X1475Y1090D02*
X1485Y1090D01*
X1530Y1090D02*
X1540Y1090D01*
X1681Y1090D02*
X1690Y1090D01*
X1777Y1090D02*
X1786Y1090D01*
X1811Y1090D02*
X1862Y1090D01*
X1907Y1090D02*
X1916Y1090D01*
X1961Y1090D02*
X1971Y1090D01*
X1982Y1090D02*
X1992Y1090D01*
X2003Y1090D02*
X2013Y1090D01*
X53Y1089D02*
X62Y1089D01*
X94Y1089D02*
X104Y1089D01*
X168Y1089D02*
X179Y1089D01*
X205Y1089D02*
X214Y1089D01*
X308Y1089D02*
X317Y1089D01*
X354Y1089D02*
X364Y1089D01*
X389Y1089D02*
X405Y1089D01*
X430Y1089D02*
X439Y1089D01*
X471Y1089D02*
X481Y1089D01*
X536Y1089D02*
X546Y1089D01*
X582Y1089D02*
X591Y1089D01*
X619Y1089D02*
X631Y1089D01*
X677Y1089D02*
X686Y1089D01*
X1002Y1089D02*
X1012Y1089D01*
X1058Y1089D02*
X1068Y1089D01*
X1133Y1089D02*
X1143Y1089D01*
X1171Y1089D02*
X1183Y1089D01*
X1228Y1089D02*
X1238Y1089D01*
X1284Y1089D02*
X1293Y1089D01*
X1304Y1089D02*
X1313Y1089D01*
X1325Y1089D02*
X1335Y1089D01*
X1359Y1089D02*
X1368Y1089D01*
X1393Y1089D02*
X1410Y1089D01*
X1434Y1089D02*
X1443Y1089D01*
X1475Y1089D02*
X1485Y1089D01*
X1530Y1089D02*
X1540Y1089D01*
X1681Y1089D02*
X1690Y1089D01*
X1777Y1089D02*
X1786Y1089D01*
X1811Y1089D02*
X1862Y1089D01*
X1907Y1089D02*
X1916Y1089D01*
X1961Y1089D02*
X1971Y1089D01*
X1982Y1089D02*
X1992Y1089D01*
X2003Y1089D02*
X2013Y1089D01*
X53Y1088D02*
X62Y1088D01*
X94Y1088D02*
X104Y1088D01*
X169Y1088D02*
X179Y1088D01*
X205Y1088D02*
X214Y1088D01*
X308Y1088D02*
X317Y1088D01*
X355Y1088D02*
X363Y1088D01*
X390Y1088D02*
X405Y1088D01*
X430Y1088D02*
X439Y1088D01*
X471Y1088D02*
X481Y1088D01*
X536Y1088D02*
X546Y1088D01*
X582Y1088D02*
X591Y1088D01*
X620Y1088D02*
X631Y1088D01*
X677Y1088D02*
X686Y1088D01*
X1002Y1088D02*
X1012Y1088D01*
X1058Y1088D02*
X1068Y1088D01*
X1133Y1088D02*
X1143Y1088D01*
X1172Y1088D02*
X1183Y1088D01*
X1228Y1088D02*
X1238Y1088D01*
X1284Y1088D02*
X1293Y1088D01*
X1304Y1088D02*
X1313Y1088D01*
X1325Y1088D02*
X1335Y1088D01*
X1359Y1088D02*
X1368Y1088D01*
X1394Y1088D02*
X1410Y1088D01*
X1434Y1088D02*
X1443Y1088D01*
X1475Y1088D02*
X1485Y1088D01*
X1530Y1088D02*
X1540Y1088D01*
X1681Y1088D02*
X1690Y1088D01*
X1777Y1088D02*
X1786Y1088D01*
X1811Y1088D02*
X1862Y1088D01*
X1907Y1088D02*
X1916Y1088D01*
X1961Y1088D02*
X1971Y1088D01*
X1982Y1088D02*
X1992Y1088D01*
X2003Y1088D02*
X2013Y1088D01*
X53Y1087D02*
X62Y1087D01*
X94Y1087D02*
X104Y1087D01*
X169Y1087D02*
X179Y1087D01*
X205Y1087D02*
X214Y1087D01*
X308Y1087D02*
X317Y1087D01*
X355Y1087D02*
X363Y1087D01*
X391Y1087D02*
X405Y1087D01*
X430Y1087D02*
X439Y1087D01*
X471Y1087D02*
X481Y1087D01*
X536Y1087D02*
X546Y1087D01*
X582Y1087D02*
X591Y1087D01*
X622Y1087D02*
X631Y1087D01*
X677Y1087D02*
X686Y1087D01*
X1002Y1087D02*
X1012Y1087D01*
X1058Y1087D02*
X1068Y1087D01*
X1133Y1087D02*
X1143Y1087D01*
X1174Y1087D02*
X1183Y1087D01*
X1228Y1087D02*
X1238Y1087D01*
X1283Y1087D02*
X1293Y1087D01*
X1304Y1087D02*
X1313Y1087D01*
X1325Y1087D02*
X1335Y1087D01*
X1359Y1087D02*
X1367Y1087D01*
X1395Y1087D02*
X1410Y1087D01*
X1434Y1087D02*
X1443Y1087D01*
X1475Y1087D02*
X1485Y1087D01*
X1530Y1087D02*
X1540Y1087D01*
X1681Y1087D02*
X1690Y1087D01*
X1777Y1087D02*
X1786Y1087D01*
X1811Y1087D02*
X1862Y1087D01*
X1907Y1087D02*
X1916Y1087D01*
X1961Y1087D02*
X1971Y1087D01*
X1982Y1087D02*
X1992Y1087D01*
X2003Y1087D02*
X2013Y1087D01*
X53Y1086D02*
X62Y1086D01*
X94Y1086D02*
X104Y1086D01*
X170Y1086D02*
X179Y1086D01*
X205Y1086D02*
X214Y1086D01*
X217Y1086D02*
X242Y1086D01*
X308Y1086D02*
X317Y1086D01*
X356Y1086D02*
X362Y1086D01*
X392Y1086D02*
X405Y1086D01*
X430Y1086D02*
X439Y1086D01*
X471Y1086D02*
X481Y1086D01*
X536Y1086D02*
X546Y1086D01*
X581Y1086D02*
X591Y1086D01*
X622Y1086D02*
X631Y1086D01*
X677Y1086D02*
X686Y1086D01*
X1002Y1086D02*
X1012Y1086D01*
X1058Y1086D02*
X1068Y1086D01*
X1070Y1086D02*
X1096Y1086D01*
X1133Y1086D02*
X1143Y1086D01*
X1174Y1086D02*
X1183Y1086D01*
X1228Y1086D02*
X1238Y1086D01*
X1283Y1086D02*
X1293Y1086D01*
X1304Y1086D02*
X1313Y1086D01*
X1325Y1086D02*
X1335Y1086D01*
X1360Y1086D02*
X1366Y1086D01*
X1396Y1086D02*
X1410Y1086D01*
X1434Y1086D02*
X1443Y1086D01*
X1475Y1086D02*
X1485Y1086D01*
X1530Y1086D02*
X1540Y1086D01*
X1681Y1086D02*
X1690Y1086D01*
X1777Y1086D02*
X1786Y1086D01*
X1811Y1086D02*
X1862Y1086D01*
X1907Y1086D02*
X1916Y1086D01*
X1961Y1086D02*
X1971Y1086D01*
X1982Y1086D02*
X1992Y1086D01*
X2003Y1086D02*
X2013Y1086D01*
X53Y1085D02*
X62Y1085D01*
X94Y1085D02*
X104Y1085D01*
X170Y1085D02*
X179Y1085D01*
X205Y1085D02*
X245Y1085D01*
X308Y1085D02*
X317Y1085D01*
X358Y1085D02*
X360Y1085D01*
X393Y1085D02*
X405Y1085D01*
X430Y1085D02*
X439Y1085D01*
X471Y1085D02*
X481Y1085D01*
X536Y1085D02*
X546Y1085D01*
X581Y1085D02*
X591Y1085D01*
X622Y1085D02*
X631Y1085D01*
X677Y1085D02*
X686Y1085D01*
X1002Y1085D02*
X1012Y1085D01*
X1058Y1085D02*
X1099Y1085D01*
X1133Y1085D02*
X1143Y1085D01*
X1174Y1085D02*
X1183Y1085D01*
X1228Y1085D02*
X1238Y1085D01*
X1283Y1085D02*
X1293Y1085D01*
X1304Y1085D02*
X1313Y1085D01*
X1325Y1085D02*
X1335Y1085D01*
X1362Y1085D02*
X1364Y1085D01*
X1398Y1085D02*
X1410Y1085D01*
X1434Y1085D02*
X1443Y1085D01*
X1475Y1085D02*
X1485Y1085D01*
X1530Y1085D02*
X1540Y1085D01*
X1681Y1085D02*
X1690Y1085D01*
X1777Y1085D02*
X1786Y1085D01*
X1811Y1085D02*
X1862Y1085D01*
X1907Y1085D02*
X1916Y1085D01*
X1961Y1085D02*
X1971Y1085D01*
X1982Y1085D02*
X1992Y1085D01*
X2003Y1085D02*
X2013Y1085D01*
X53Y1084D02*
X62Y1084D01*
X94Y1084D02*
X104Y1084D01*
X170Y1084D02*
X179Y1084D01*
X205Y1084D02*
X247Y1084D01*
X308Y1084D02*
X317Y1084D01*
X395Y1084D02*
X405Y1084D01*
X430Y1084D02*
X439Y1084D01*
X471Y1084D02*
X481Y1084D01*
X536Y1084D02*
X546Y1084D01*
X581Y1084D02*
X591Y1084D01*
X622Y1084D02*
X631Y1084D01*
X677Y1084D02*
X686Y1084D01*
X1002Y1084D02*
X1012Y1084D01*
X1058Y1084D02*
X1101Y1084D01*
X1133Y1084D02*
X1143Y1084D01*
X1174Y1084D02*
X1183Y1084D01*
X1228Y1084D02*
X1238Y1084D01*
X1283Y1084D02*
X1293Y1084D01*
X1304Y1084D02*
X1313Y1084D01*
X1325Y1084D02*
X1335Y1084D01*
X1399Y1084D02*
X1410Y1084D01*
X1434Y1084D02*
X1443Y1084D01*
X1475Y1084D02*
X1485Y1084D01*
X1530Y1084D02*
X1540Y1084D01*
X1681Y1084D02*
X1690Y1084D01*
X1777Y1084D02*
X1786Y1084D01*
X1811Y1084D02*
X1861Y1084D01*
X1907Y1084D02*
X1916Y1084D01*
X1961Y1084D02*
X1971Y1084D01*
X1982Y1084D02*
X1992Y1084D01*
X2003Y1084D02*
X2013Y1084D01*
X53Y1083D02*
X62Y1083D01*
X94Y1083D02*
X104Y1083D01*
X170Y1083D02*
X179Y1083D01*
X204Y1083D02*
X249Y1083D01*
X308Y1083D02*
X317Y1083D01*
X396Y1083D02*
X405Y1083D01*
X430Y1083D02*
X439Y1083D01*
X471Y1083D02*
X481Y1083D01*
X536Y1083D02*
X546Y1083D01*
X581Y1083D02*
X591Y1083D01*
X622Y1083D02*
X631Y1083D01*
X677Y1083D02*
X686Y1083D01*
X1002Y1083D02*
X1012Y1083D01*
X1058Y1083D02*
X1102Y1083D01*
X1133Y1083D02*
X1143Y1083D01*
X1174Y1083D02*
X1183Y1083D01*
X1228Y1083D02*
X1238Y1083D01*
X1283Y1083D02*
X1293Y1083D01*
X1304Y1083D02*
X1313Y1083D01*
X1325Y1083D02*
X1335Y1083D01*
X1400Y1083D02*
X1410Y1083D01*
X1434Y1083D02*
X1443Y1083D01*
X1475Y1083D02*
X1485Y1083D01*
X1530Y1083D02*
X1540Y1083D01*
X1681Y1083D02*
X1690Y1083D01*
X1777Y1083D02*
X1786Y1083D01*
X1811Y1083D02*
X1861Y1083D01*
X1907Y1083D02*
X1916Y1083D01*
X1961Y1083D02*
X1971Y1083D01*
X1982Y1083D02*
X1992Y1083D01*
X2003Y1083D02*
X2013Y1083D01*
X53Y1082D02*
X63Y1082D01*
X94Y1082D02*
X104Y1082D01*
X170Y1082D02*
X179Y1082D01*
X204Y1082D02*
X250Y1082D01*
X308Y1082D02*
X317Y1082D01*
X396Y1082D02*
X405Y1082D01*
X430Y1082D02*
X439Y1082D01*
X471Y1082D02*
X481Y1082D01*
X536Y1082D02*
X546Y1082D01*
X581Y1082D02*
X591Y1082D01*
X622Y1082D02*
X631Y1082D01*
X677Y1082D02*
X686Y1082D01*
X1002Y1082D02*
X1012Y1082D01*
X1058Y1082D02*
X1103Y1082D01*
X1133Y1082D02*
X1143Y1082D01*
X1174Y1082D02*
X1183Y1082D01*
X1228Y1082D02*
X1238Y1082D01*
X1283Y1082D02*
X1293Y1082D01*
X1304Y1082D02*
X1313Y1082D01*
X1325Y1082D02*
X1335Y1082D01*
X1400Y1082D02*
X1410Y1082D01*
X1434Y1082D02*
X1444Y1082D01*
X1475Y1082D02*
X1485Y1082D01*
X1530Y1082D02*
X1540Y1082D01*
X1681Y1082D02*
X1690Y1082D01*
X1777Y1082D02*
X1786Y1082D01*
X1812Y1082D02*
X1860Y1082D01*
X1907Y1082D02*
X1916Y1082D01*
X1961Y1082D02*
X1971Y1082D01*
X1982Y1082D02*
X1992Y1082D01*
X2003Y1082D02*
X2013Y1082D01*
X53Y1081D02*
X104Y1081D01*
X170Y1081D02*
X179Y1081D01*
X204Y1081D02*
X251Y1081D01*
X308Y1081D02*
X317Y1081D01*
X396Y1081D02*
X405Y1081D01*
X430Y1081D02*
X481Y1081D01*
X536Y1081D02*
X546Y1081D01*
X581Y1081D02*
X591Y1081D01*
X622Y1081D02*
X631Y1081D01*
X677Y1081D02*
X686Y1081D01*
X1002Y1081D02*
X1012Y1081D01*
X1058Y1081D02*
X1104Y1081D01*
X1133Y1081D02*
X1143Y1081D01*
X1174Y1081D02*
X1183Y1081D01*
X1228Y1081D02*
X1238Y1081D01*
X1283Y1081D02*
X1293Y1081D01*
X1304Y1081D02*
X1313Y1081D01*
X1325Y1081D02*
X1335Y1081D01*
X1400Y1081D02*
X1410Y1081D01*
X1434Y1081D02*
X1485Y1081D01*
X1530Y1081D02*
X1540Y1081D01*
X1681Y1081D02*
X1690Y1081D01*
X1777Y1081D02*
X1786Y1081D01*
X1813Y1081D02*
X1859Y1081D01*
X1907Y1081D02*
X1916Y1081D01*
X1961Y1081D02*
X1971Y1081D01*
X1982Y1081D02*
X1992Y1081D01*
X2003Y1081D02*
X2013Y1081D01*
X53Y1080D02*
X104Y1080D01*
X170Y1080D02*
X179Y1080D01*
X204Y1080D02*
X251Y1080D01*
X308Y1080D02*
X317Y1080D01*
X396Y1080D02*
X405Y1080D01*
X430Y1080D02*
X481Y1080D01*
X536Y1080D02*
X546Y1080D01*
X581Y1080D02*
X591Y1080D01*
X622Y1080D02*
X631Y1080D01*
X677Y1080D02*
X686Y1080D01*
X1002Y1080D02*
X1012Y1080D01*
X1058Y1080D02*
X1105Y1080D01*
X1133Y1080D02*
X1143Y1080D01*
X1174Y1080D02*
X1183Y1080D01*
X1228Y1080D02*
X1238Y1080D01*
X1283Y1080D02*
X1293Y1080D01*
X1304Y1080D02*
X1313Y1080D01*
X1325Y1080D02*
X1335Y1080D01*
X1400Y1080D02*
X1410Y1080D01*
X1434Y1080D02*
X1485Y1080D01*
X1530Y1080D02*
X1540Y1080D01*
X1681Y1080D02*
X1690Y1080D01*
X1777Y1080D02*
X1786Y1080D01*
X1907Y1080D02*
X1916Y1080D01*
X1961Y1080D02*
X1971Y1080D01*
X1982Y1080D02*
X1992Y1080D01*
X2003Y1080D02*
X2013Y1080D01*
X53Y1079D02*
X104Y1079D01*
X170Y1079D02*
X179Y1079D01*
X204Y1079D02*
X252Y1079D01*
X308Y1079D02*
X317Y1079D01*
X396Y1079D02*
X405Y1079D01*
X430Y1079D02*
X481Y1079D01*
X536Y1079D02*
X546Y1079D01*
X581Y1079D02*
X591Y1079D01*
X622Y1079D02*
X631Y1079D01*
X677Y1079D02*
X686Y1079D01*
X1002Y1079D02*
X1012Y1079D01*
X1058Y1079D02*
X1106Y1079D01*
X1133Y1079D02*
X1143Y1079D01*
X1174Y1079D02*
X1183Y1079D01*
X1228Y1079D02*
X1238Y1079D01*
X1283Y1079D02*
X1293Y1079D01*
X1304Y1079D02*
X1313Y1079D01*
X1325Y1079D02*
X1335Y1079D01*
X1400Y1079D02*
X1410Y1079D01*
X1434Y1079D02*
X1485Y1079D01*
X1530Y1079D02*
X1540Y1079D01*
X1681Y1079D02*
X1690Y1079D01*
X1777Y1079D02*
X1786Y1079D01*
X1907Y1079D02*
X1916Y1079D01*
X1961Y1079D02*
X1971Y1079D01*
X1982Y1079D02*
X1992Y1079D01*
X2003Y1079D02*
X2013Y1079D01*
X53Y1078D02*
X104Y1078D01*
X170Y1078D02*
X179Y1078D01*
X204Y1078D02*
X253Y1078D01*
X308Y1078D02*
X317Y1078D01*
X396Y1078D02*
X405Y1078D01*
X430Y1078D02*
X481Y1078D01*
X536Y1078D02*
X546Y1078D01*
X581Y1078D02*
X591Y1078D01*
X622Y1078D02*
X631Y1078D01*
X677Y1078D02*
X686Y1078D01*
X1002Y1078D02*
X1012Y1078D01*
X1058Y1078D02*
X1106Y1078D01*
X1133Y1078D02*
X1143Y1078D01*
X1174Y1078D02*
X1183Y1078D01*
X1228Y1078D02*
X1238Y1078D01*
X1283Y1078D02*
X1293Y1078D01*
X1304Y1078D02*
X1313Y1078D01*
X1325Y1078D02*
X1335Y1078D01*
X1400Y1078D02*
X1410Y1078D01*
X1434Y1078D02*
X1485Y1078D01*
X1530Y1078D02*
X1540Y1078D01*
X1681Y1078D02*
X1690Y1078D01*
X1777Y1078D02*
X1786Y1078D01*
X1907Y1078D02*
X1916Y1078D01*
X1961Y1078D02*
X1971Y1078D01*
X1982Y1078D02*
X1992Y1078D01*
X2003Y1078D02*
X2013Y1078D01*
X53Y1077D02*
X104Y1077D01*
X170Y1077D02*
X179Y1077D01*
X204Y1077D02*
X253Y1077D01*
X308Y1077D02*
X317Y1077D01*
X396Y1077D02*
X405Y1077D01*
X430Y1077D02*
X481Y1077D01*
X536Y1077D02*
X546Y1077D01*
X581Y1077D02*
X591Y1077D01*
X622Y1077D02*
X631Y1077D01*
X677Y1077D02*
X686Y1077D01*
X1002Y1077D02*
X1012Y1077D01*
X1058Y1077D02*
X1107Y1077D01*
X1133Y1077D02*
X1143Y1077D01*
X1174Y1077D02*
X1183Y1077D01*
X1228Y1077D02*
X1238Y1077D01*
X1283Y1077D02*
X1293Y1077D01*
X1304Y1077D02*
X1313Y1077D01*
X1325Y1077D02*
X1335Y1077D01*
X1400Y1077D02*
X1410Y1077D01*
X1434Y1077D02*
X1485Y1077D01*
X1530Y1077D02*
X1540Y1077D01*
X1681Y1077D02*
X1690Y1077D01*
X1777Y1077D02*
X1786Y1077D01*
X1907Y1077D02*
X1916Y1077D01*
X1961Y1077D02*
X1971Y1077D01*
X1982Y1077D02*
X1992Y1077D01*
X2003Y1077D02*
X2013Y1077D01*
X53Y1076D02*
X104Y1076D01*
X170Y1076D02*
X179Y1076D01*
X204Y1076D02*
X254Y1076D01*
X308Y1076D02*
X317Y1076D01*
X396Y1076D02*
X405Y1076D01*
X430Y1076D02*
X481Y1076D01*
X536Y1076D02*
X546Y1076D01*
X581Y1076D02*
X591Y1076D01*
X622Y1076D02*
X631Y1076D01*
X677Y1076D02*
X686Y1076D01*
X1002Y1076D02*
X1012Y1076D01*
X1058Y1076D02*
X1107Y1076D01*
X1133Y1076D02*
X1143Y1076D01*
X1174Y1076D02*
X1183Y1076D01*
X1228Y1076D02*
X1238Y1076D01*
X1283Y1076D02*
X1293Y1076D01*
X1304Y1076D02*
X1313Y1076D01*
X1325Y1076D02*
X1335Y1076D01*
X1400Y1076D02*
X1410Y1076D01*
X1434Y1076D02*
X1485Y1076D01*
X1530Y1076D02*
X1540Y1076D01*
X1681Y1076D02*
X1690Y1076D01*
X1777Y1076D02*
X1786Y1076D01*
X1907Y1076D02*
X1916Y1076D01*
X1961Y1076D02*
X1971Y1076D01*
X1982Y1076D02*
X1992Y1076D01*
X2003Y1076D02*
X2013Y1076D01*
X53Y1075D02*
X104Y1075D01*
X170Y1075D02*
X179Y1075D01*
X204Y1075D02*
X216Y1075D01*
X242Y1075D02*
X254Y1075D01*
X308Y1075D02*
X317Y1075D01*
X396Y1075D02*
X405Y1075D01*
X430Y1075D02*
X481Y1075D01*
X536Y1075D02*
X546Y1075D01*
X581Y1075D02*
X591Y1075D01*
X622Y1075D02*
X631Y1075D01*
X677Y1075D02*
X686Y1075D01*
X1002Y1075D02*
X1012Y1075D01*
X1058Y1075D02*
X1070Y1075D01*
X1096Y1075D02*
X1107Y1075D01*
X1133Y1075D02*
X1143Y1075D01*
X1174Y1075D02*
X1183Y1075D01*
X1228Y1075D02*
X1238Y1075D01*
X1283Y1075D02*
X1293Y1075D01*
X1304Y1075D02*
X1313Y1075D01*
X1325Y1075D02*
X1335Y1075D01*
X1400Y1075D02*
X1410Y1075D01*
X1434Y1075D02*
X1485Y1075D01*
X1530Y1075D02*
X1540Y1075D01*
X1681Y1075D02*
X1690Y1075D01*
X1777Y1075D02*
X1786Y1075D01*
X1907Y1075D02*
X1916Y1075D01*
X1961Y1075D02*
X1971Y1075D01*
X1982Y1075D02*
X1992Y1075D01*
X2003Y1075D02*
X2013Y1075D01*
X54Y1074D02*
X104Y1074D01*
X170Y1074D02*
X179Y1074D01*
X204Y1074D02*
X215Y1074D01*
X244Y1074D02*
X254Y1074D01*
X308Y1074D02*
X317Y1074D01*
X396Y1074D02*
X405Y1074D01*
X430Y1074D02*
X481Y1074D01*
X536Y1074D02*
X546Y1074D01*
X581Y1074D02*
X591Y1074D01*
X622Y1074D02*
X631Y1074D01*
X677Y1074D02*
X686Y1074D01*
X1002Y1074D02*
X1012Y1074D01*
X1058Y1074D02*
X1068Y1074D01*
X1097Y1074D02*
X1108Y1074D01*
X1133Y1074D02*
X1143Y1074D01*
X1174Y1074D02*
X1183Y1074D01*
X1228Y1074D02*
X1238Y1074D01*
X1283Y1074D02*
X1293Y1074D01*
X1304Y1074D02*
X1313Y1074D01*
X1325Y1074D02*
X1335Y1074D01*
X1400Y1074D02*
X1410Y1074D01*
X1435Y1074D02*
X1485Y1074D01*
X1530Y1074D02*
X1540Y1074D01*
X1681Y1074D02*
X1690Y1074D01*
X1777Y1074D02*
X1786Y1074D01*
X1907Y1074D02*
X1916Y1074D01*
X1961Y1074D02*
X1971Y1074D01*
X1982Y1074D02*
X1992Y1074D01*
X2003Y1074D02*
X2013Y1074D01*
X54Y1073D02*
X104Y1073D01*
X170Y1073D02*
X179Y1073D01*
X204Y1073D02*
X214Y1073D01*
X244Y1073D02*
X254Y1073D01*
X308Y1073D02*
X317Y1073D01*
X396Y1073D02*
X405Y1073D01*
X431Y1073D02*
X481Y1073D01*
X536Y1073D02*
X546Y1073D01*
X581Y1073D02*
X591Y1073D01*
X622Y1073D02*
X631Y1073D01*
X677Y1073D02*
X686Y1073D01*
X1002Y1073D02*
X1012Y1073D01*
X1058Y1073D02*
X1068Y1073D01*
X1098Y1073D02*
X1108Y1073D01*
X1133Y1073D02*
X1142Y1073D01*
X1174Y1073D02*
X1183Y1073D01*
X1228Y1073D02*
X1238Y1073D01*
X1283Y1073D02*
X1292Y1073D01*
X1304Y1073D02*
X1313Y1073D01*
X1325Y1073D02*
X1335Y1073D01*
X1400Y1073D02*
X1410Y1073D01*
X1435Y1073D02*
X1485Y1073D01*
X1530Y1073D02*
X1540Y1073D01*
X1681Y1073D02*
X1690Y1073D01*
X1777Y1073D02*
X1786Y1073D01*
X1907Y1073D02*
X1916Y1073D01*
X1961Y1073D02*
X1971Y1073D01*
X1982Y1073D02*
X1992Y1073D01*
X2003Y1073D02*
X2013Y1073D01*
X56Y1072D02*
X104Y1072D01*
X170Y1072D02*
X179Y1072D01*
X204Y1072D02*
X214Y1072D01*
X245Y1072D02*
X254Y1072D01*
X308Y1072D02*
X317Y1072D01*
X396Y1072D02*
X405Y1072D01*
X432Y1072D02*
X481Y1072D01*
X536Y1072D02*
X546Y1072D01*
X581Y1072D02*
X591Y1072D01*
X622Y1072D02*
X631Y1072D01*
X677Y1072D02*
X686Y1072D01*
X1002Y1072D02*
X1012Y1072D01*
X1057Y1072D02*
X1067Y1072D01*
X1098Y1072D02*
X1108Y1072D01*
X1133Y1072D02*
X1142Y1072D01*
X1174Y1072D02*
X1183Y1072D01*
X1228Y1072D02*
X1238Y1072D01*
X1283Y1072D02*
X1292Y1072D01*
X1304Y1072D02*
X1313Y1072D01*
X1325Y1072D02*
X1335Y1072D01*
X1400Y1072D02*
X1410Y1072D01*
X1437Y1072D02*
X1485Y1072D01*
X1530Y1072D02*
X1540Y1072D01*
X1681Y1072D02*
X1690Y1072D01*
X1777Y1072D02*
X1786Y1072D01*
X1907Y1072D02*
X1916Y1072D01*
X1961Y1072D02*
X1971Y1072D01*
X1982Y1072D02*
X1992Y1072D01*
X2003Y1072D02*
X2013Y1072D01*
X94Y1071D02*
X104Y1071D01*
X169Y1071D02*
X179Y1071D01*
X204Y1071D02*
X214Y1071D01*
X245Y1071D02*
X255Y1071D01*
X308Y1071D02*
X317Y1071D01*
X396Y1071D02*
X405Y1071D01*
X471Y1071D02*
X481Y1071D01*
X536Y1071D02*
X546Y1071D01*
X581Y1071D02*
X591Y1071D01*
X622Y1071D02*
X631Y1071D01*
X677Y1071D02*
X686Y1071D01*
X1002Y1071D02*
X1012Y1071D01*
X1057Y1071D02*
X1067Y1071D01*
X1098Y1071D02*
X1108Y1071D01*
X1133Y1071D02*
X1142Y1071D01*
X1174Y1071D02*
X1183Y1071D01*
X1228Y1071D02*
X1238Y1071D01*
X1283Y1071D02*
X1292Y1071D01*
X1304Y1071D02*
X1313Y1071D01*
X1325Y1071D02*
X1335Y1071D01*
X1400Y1071D02*
X1410Y1071D01*
X1475Y1071D02*
X1485Y1071D01*
X1530Y1071D02*
X1540Y1071D01*
X1681Y1071D02*
X1690Y1071D01*
X1777Y1071D02*
X1786Y1071D01*
X1907Y1071D02*
X1916Y1071D01*
X1961Y1071D02*
X1971Y1071D01*
X1982Y1071D02*
X1992Y1071D01*
X2003Y1071D02*
X2013Y1071D01*
X94Y1070D02*
X104Y1070D01*
X169Y1070D02*
X179Y1070D01*
X204Y1070D02*
X214Y1070D01*
X245Y1070D02*
X255Y1070D01*
X308Y1070D02*
X317Y1070D01*
X396Y1070D02*
X405Y1070D01*
X471Y1070D02*
X481Y1070D01*
X536Y1070D02*
X546Y1070D01*
X581Y1070D02*
X590Y1070D01*
X622Y1070D02*
X631Y1070D01*
X677Y1070D02*
X686Y1070D01*
X1002Y1070D02*
X1012Y1070D01*
X1057Y1070D02*
X1067Y1070D01*
X1098Y1070D02*
X1108Y1070D01*
X1133Y1070D02*
X1142Y1070D01*
X1174Y1070D02*
X1183Y1070D01*
X1228Y1070D02*
X1238Y1070D01*
X1283Y1070D02*
X1292Y1070D01*
X1304Y1070D02*
X1313Y1070D01*
X1325Y1070D02*
X1335Y1070D01*
X1400Y1070D02*
X1410Y1070D01*
X1475Y1070D02*
X1485Y1070D01*
X1530Y1070D02*
X1540Y1070D01*
X1681Y1070D02*
X1690Y1070D01*
X1777Y1070D02*
X1786Y1070D01*
X1907Y1070D02*
X1916Y1070D01*
X1961Y1070D02*
X1971Y1070D01*
X1982Y1070D02*
X1992Y1070D01*
X2003Y1070D02*
X2013Y1070D01*
X94Y1069D02*
X104Y1069D01*
X168Y1069D02*
X179Y1069D01*
X204Y1069D02*
X214Y1069D01*
X245Y1069D02*
X255Y1069D01*
X308Y1069D02*
X317Y1069D01*
X396Y1069D02*
X405Y1069D01*
X471Y1069D02*
X481Y1069D01*
X536Y1069D02*
X546Y1069D01*
X581Y1069D02*
X590Y1069D01*
X622Y1069D02*
X631Y1069D01*
X677Y1069D02*
X686Y1069D01*
X1002Y1069D02*
X1012Y1069D01*
X1057Y1069D02*
X1067Y1069D01*
X1098Y1069D02*
X1108Y1069D01*
X1133Y1069D02*
X1142Y1069D01*
X1174Y1069D02*
X1183Y1069D01*
X1228Y1069D02*
X1238Y1069D01*
X1283Y1069D02*
X1292Y1069D01*
X1304Y1069D02*
X1313Y1069D01*
X1325Y1069D02*
X1335Y1069D01*
X1400Y1069D02*
X1410Y1069D01*
X1475Y1069D02*
X1485Y1069D01*
X1530Y1069D02*
X1540Y1069D01*
X1681Y1069D02*
X1690Y1069D01*
X1777Y1069D02*
X1786Y1069D01*
X1907Y1069D02*
X1916Y1069D01*
X1961Y1069D02*
X1971Y1069D01*
X1982Y1069D02*
X1992Y1069D01*
X2003Y1069D02*
X2013Y1069D01*
X94Y1068D02*
X104Y1068D01*
X167Y1068D02*
X179Y1068D01*
X204Y1068D02*
X214Y1068D01*
X245Y1068D02*
X255Y1068D01*
X308Y1068D02*
X317Y1068D01*
X396Y1068D02*
X405Y1068D01*
X471Y1068D02*
X481Y1068D01*
X508Y1068D02*
X512Y1068D01*
X536Y1068D02*
X546Y1068D01*
X581Y1068D02*
X590Y1068D01*
X622Y1068D02*
X631Y1068D01*
X677Y1068D02*
X686Y1068D01*
X1002Y1068D02*
X1012Y1068D01*
X1057Y1068D02*
X1067Y1068D01*
X1098Y1068D02*
X1108Y1068D01*
X1133Y1068D02*
X1142Y1068D01*
X1174Y1068D02*
X1183Y1068D01*
X1228Y1068D02*
X1238Y1068D01*
X1283Y1068D02*
X1292Y1068D01*
X1304Y1068D02*
X1313Y1068D01*
X1325Y1068D02*
X1335Y1068D01*
X1400Y1068D02*
X1410Y1068D01*
X1475Y1068D02*
X1485Y1068D01*
X1530Y1068D02*
X1540Y1068D01*
X1681Y1068D02*
X1690Y1068D01*
X1777Y1068D02*
X1786Y1068D01*
X1907Y1068D02*
X1916Y1068D01*
X1961Y1068D02*
X1971Y1068D01*
X1982Y1068D02*
X1992Y1068D01*
X2003Y1068D02*
X2013Y1068D01*
X94Y1067D02*
X104Y1067D01*
X166Y1067D02*
X178Y1067D01*
X204Y1067D02*
X214Y1067D01*
X245Y1067D02*
X255Y1067D01*
X308Y1067D02*
X317Y1067D01*
X396Y1067D02*
X405Y1067D01*
X471Y1067D02*
X481Y1067D01*
X507Y1067D02*
X513Y1067D01*
X536Y1067D02*
X546Y1067D01*
X581Y1067D02*
X590Y1067D01*
X622Y1067D02*
X631Y1067D01*
X677Y1067D02*
X686Y1067D01*
X1002Y1067D02*
X1012Y1067D01*
X1057Y1067D02*
X1067Y1067D01*
X1098Y1067D02*
X1108Y1067D01*
X1133Y1067D02*
X1142Y1067D01*
X1174Y1067D02*
X1183Y1067D01*
X1228Y1067D02*
X1238Y1067D01*
X1283Y1067D02*
X1292Y1067D01*
X1304Y1067D02*
X1313Y1067D01*
X1325Y1067D02*
X1335Y1067D01*
X1400Y1067D02*
X1410Y1067D01*
X1475Y1067D02*
X1485Y1067D01*
X1530Y1067D02*
X1540Y1067D01*
X1681Y1067D02*
X1690Y1067D01*
X1777Y1067D02*
X1786Y1067D01*
X1907Y1067D02*
X1916Y1067D01*
X1961Y1067D02*
X1971Y1067D01*
X1982Y1067D02*
X1992Y1067D01*
X2003Y1067D02*
X2013Y1067D01*
X94Y1066D02*
X104Y1066D01*
X165Y1066D02*
X178Y1066D01*
X204Y1066D02*
X214Y1066D01*
X245Y1066D02*
X255Y1066D01*
X308Y1066D02*
X317Y1066D01*
X396Y1066D02*
X405Y1066D01*
X471Y1066D02*
X481Y1066D01*
X506Y1066D02*
X514Y1066D01*
X536Y1066D02*
X546Y1066D01*
X581Y1066D02*
X590Y1066D01*
X622Y1066D02*
X631Y1066D01*
X677Y1066D02*
X686Y1066D01*
X1002Y1066D02*
X1012Y1066D01*
X1057Y1066D02*
X1068Y1066D01*
X1098Y1066D02*
X1108Y1066D01*
X1133Y1066D02*
X1142Y1066D01*
X1174Y1066D02*
X1183Y1066D01*
X1228Y1066D02*
X1238Y1066D01*
X1283Y1066D02*
X1292Y1066D01*
X1304Y1066D02*
X1313Y1066D01*
X1325Y1066D02*
X1335Y1066D01*
X1400Y1066D02*
X1410Y1066D01*
X1475Y1066D02*
X1485Y1066D01*
X1530Y1066D02*
X1540Y1066D01*
X1681Y1066D02*
X1690Y1066D01*
X1777Y1066D02*
X1786Y1066D01*
X1907Y1066D02*
X1916Y1066D01*
X1961Y1066D02*
X1971Y1066D01*
X1982Y1066D02*
X1992Y1066D01*
X2003Y1066D02*
X2013Y1066D01*
X93Y1065D02*
X104Y1065D01*
X164Y1065D02*
X177Y1065D01*
X204Y1065D02*
X216Y1065D01*
X245Y1065D02*
X255Y1065D01*
X308Y1065D02*
X317Y1065D01*
X396Y1065D02*
X405Y1065D01*
X470Y1065D02*
X480Y1065D01*
X505Y1065D02*
X514Y1065D01*
X536Y1065D02*
X546Y1065D01*
X581Y1065D02*
X590Y1065D01*
X622Y1065D02*
X631Y1065D01*
X677Y1065D02*
X686Y1065D01*
X1002Y1065D02*
X1012Y1065D01*
X1057Y1065D02*
X1069Y1065D01*
X1098Y1065D02*
X1108Y1065D01*
X1133Y1065D02*
X1142Y1065D01*
X1174Y1065D02*
X1183Y1065D01*
X1228Y1065D02*
X1238Y1065D01*
X1283Y1065D02*
X1292Y1065D01*
X1304Y1065D02*
X1313Y1065D01*
X1325Y1065D02*
X1335Y1065D01*
X1400Y1065D02*
X1410Y1065D01*
X1474Y1065D02*
X1485Y1065D01*
X1530Y1065D02*
X1540Y1065D01*
X1681Y1065D02*
X1690Y1065D01*
X1777Y1065D02*
X1786Y1065D01*
X1907Y1065D02*
X1916Y1065D01*
X1961Y1065D02*
X1971Y1065D01*
X1982Y1065D02*
X1992Y1065D01*
X2003Y1065D02*
X2013Y1065D01*
X92Y1064D02*
X103Y1064D01*
X162Y1064D02*
X177Y1064D01*
X204Y1064D02*
X218Y1064D01*
X245Y1064D02*
X255Y1064D01*
X308Y1064D02*
X317Y1064D01*
X396Y1064D02*
X405Y1064D01*
X469Y1064D02*
X480Y1064D01*
X505Y1064D02*
X515Y1064D01*
X536Y1064D02*
X546Y1064D01*
X581Y1064D02*
X590Y1064D01*
X622Y1064D02*
X631Y1064D01*
X677Y1064D02*
X686Y1064D01*
X1002Y1064D02*
X1012Y1064D01*
X1057Y1064D02*
X1071Y1064D01*
X1098Y1064D02*
X1108Y1064D01*
X1133Y1064D02*
X1142Y1064D01*
X1174Y1064D02*
X1183Y1064D01*
X1228Y1064D02*
X1238Y1064D01*
X1283Y1064D02*
X1292Y1064D01*
X1304Y1064D02*
X1313Y1064D01*
X1325Y1064D02*
X1335Y1064D01*
X1400Y1064D02*
X1410Y1064D01*
X1473Y1064D02*
X1484Y1064D01*
X1530Y1064D02*
X1540Y1064D01*
X1681Y1064D02*
X1690Y1064D01*
X1777Y1064D02*
X1786Y1064D01*
X1907Y1064D02*
X1916Y1064D01*
X1961Y1064D02*
X1971Y1064D01*
X1982Y1064D02*
X1992Y1064D01*
X2003Y1064D02*
X2013Y1064D01*
X91Y1063D02*
X103Y1063D01*
X161Y1063D02*
X176Y1063D01*
X204Y1063D02*
X219Y1063D01*
X245Y1063D02*
X254Y1063D01*
X308Y1063D02*
X317Y1063D01*
X396Y1063D02*
X405Y1063D01*
X468Y1063D02*
X480Y1063D01*
X505Y1063D02*
X515Y1063D01*
X536Y1063D02*
X546Y1063D01*
X581Y1063D02*
X590Y1063D01*
X622Y1063D02*
X631Y1063D01*
X677Y1063D02*
X686Y1063D01*
X1002Y1063D02*
X1012Y1063D01*
X1057Y1063D02*
X1073Y1063D01*
X1098Y1063D02*
X1108Y1063D01*
X1133Y1063D02*
X1142Y1063D01*
X1174Y1063D02*
X1183Y1063D01*
X1228Y1063D02*
X1238Y1063D01*
X1283Y1063D02*
X1292Y1063D01*
X1304Y1063D02*
X1313Y1063D01*
X1325Y1063D02*
X1335Y1063D01*
X1400Y1063D02*
X1410Y1063D01*
X1472Y1063D02*
X1484Y1063D01*
X1530Y1063D02*
X1540Y1063D01*
X1681Y1063D02*
X1690Y1063D01*
X1777Y1063D02*
X1786Y1063D01*
X1907Y1063D02*
X1916Y1063D01*
X1961Y1063D02*
X1972Y1063D01*
X1981Y1063D02*
X1993Y1063D01*
X2002Y1063D02*
X2013Y1063D01*
X90Y1062D02*
X103Y1062D01*
X160Y1062D02*
X175Y1062D01*
X204Y1062D02*
X221Y1062D01*
X244Y1062D02*
X254Y1062D01*
X308Y1062D02*
X317Y1062D01*
X396Y1062D02*
X405Y1062D01*
X467Y1062D02*
X480Y1062D01*
X505Y1062D02*
X516Y1062D01*
X535Y1062D02*
X545Y1062D01*
X581Y1062D02*
X590Y1062D01*
X622Y1062D02*
X631Y1062D01*
X677Y1062D02*
X686Y1062D01*
X1002Y1062D02*
X1012Y1062D01*
X1057Y1062D02*
X1074Y1062D01*
X1097Y1062D02*
X1108Y1062D01*
X1133Y1062D02*
X1142Y1062D01*
X1174Y1062D02*
X1183Y1062D01*
X1228Y1062D02*
X1238Y1062D01*
X1283Y1062D02*
X1292Y1062D01*
X1304Y1062D02*
X1313Y1062D01*
X1325Y1062D02*
X1335Y1062D01*
X1400Y1062D02*
X1410Y1062D01*
X1471Y1062D02*
X1484Y1062D01*
X1530Y1062D02*
X1540Y1062D01*
X1681Y1062D02*
X1690Y1062D01*
X1777Y1062D02*
X1786Y1062D01*
X1907Y1062D02*
X1916Y1062D01*
X1961Y1062D02*
X1973Y1062D01*
X1981Y1062D02*
X1993Y1062D01*
X2001Y1062D02*
X2012Y1062D01*
X89Y1061D02*
X102Y1061D01*
X159Y1061D02*
X174Y1061D01*
X204Y1061D02*
X223Y1061D01*
X243Y1061D02*
X254Y1061D01*
X308Y1061D02*
X317Y1061D01*
X396Y1061D02*
X405Y1061D01*
X466Y1061D02*
X479Y1061D01*
X505Y1061D02*
X516Y1061D01*
X534Y1061D02*
X545Y1061D01*
X581Y1061D02*
X590Y1061D01*
X622Y1061D02*
X631Y1061D01*
X677Y1061D02*
X686Y1061D01*
X1002Y1061D02*
X1012Y1061D01*
X1057Y1061D02*
X1076Y1061D01*
X1097Y1061D02*
X1108Y1061D01*
X1133Y1061D02*
X1142Y1061D01*
X1174Y1061D02*
X1183Y1061D01*
X1228Y1061D02*
X1238Y1061D01*
X1282Y1061D02*
X1292Y1061D01*
X1304Y1061D02*
X1313Y1061D01*
X1325Y1061D02*
X1335Y1061D01*
X1400Y1061D02*
X1410Y1061D01*
X1470Y1061D02*
X1483Y1061D01*
X1530Y1061D02*
X1540Y1061D01*
X1681Y1061D02*
X1690Y1061D01*
X1777Y1061D02*
X1786Y1061D01*
X1907Y1061D02*
X1916Y1061D01*
X1962Y1061D02*
X1973Y1061D01*
X1980Y1061D02*
X1994Y1061D01*
X2001Y1061D02*
X2012Y1061D01*
X87Y1060D02*
X102Y1060D01*
X157Y1060D02*
X173Y1060D01*
X204Y1060D02*
X224Y1060D01*
X242Y1060D02*
X254Y1060D01*
X308Y1060D02*
X317Y1060D01*
X396Y1060D02*
X405Y1060D01*
X464Y1060D02*
X479Y1060D01*
X506Y1060D02*
X518Y1060D01*
X533Y1060D02*
X545Y1060D01*
X581Y1060D02*
X590Y1060D01*
X622Y1060D02*
X631Y1060D01*
X676Y1060D02*
X686Y1060D01*
X1002Y1060D02*
X1012Y1060D01*
X1057Y1060D02*
X1078Y1060D01*
X1095Y1060D02*
X1107Y1060D01*
X1133Y1060D02*
X1142Y1060D01*
X1174Y1060D02*
X1183Y1060D01*
X1228Y1060D02*
X1238Y1060D01*
X1282Y1060D02*
X1292Y1060D01*
X1304Y1060D02*
X1313Y1060D01*
X1325Y1060D02*
X1335Y1060D01*
X1400Y1060D02*
X1410Y1060D01*
X1468Y1060D02*
X1483Y1060D01*
X1530Y1060D02*
X1540Y1060D01*
X1681Y1060D02*
X1690Y1060D01*
X1777Y1060D02*
X1786Y1060D01*
X1907Y1060D02*
X1916Y1060D01*
X1962Y1060D02*
X1974Y1060D01*
X1979Y1060D02*
X1995Y1060D01*
X2000Y1060D02*
X2011Y1060D01*
X56Y1059D02*
X101Y1059D01*
X131Y1059D02*
X172Y1059D01*
X204Y1059D02*
X254Y1059D01*
X308Y1059D02*
X317Y1059D01*
X396Y1059D02*
X405Y1059D01*
X432Y1059D02*
X478Y1059D01*
X506Y1059D02*
X545Y1059D01*
X581Y1059D02*
X590Y1059D01*
X622Y1059D02*
X631Y1059D01*
X659Y1059D02*
X704Y1059D01*
X990Y1059D02*
X1025Y1059D01*
X1057Y1059D02*
X1107Y1059D01*
X1132Y1059D02*
X1142Y1059D01*
X1174Y1059D02*
X1183Y1059D01*
X1216Y1059D02*
X1251Y1059D01*
X1282Y1059D02*
X1292Y1059D01*
X1304Y1059D02*
X1313Y1059D01*
X1325Y1059D02*
X1335Y1059D01*
X1400Y1059D02*
X1410Y1059D01*
X1437Y1059D02*
X1482Y1059D01*
X1530Y1059D02*
X1540Y1059D01*
X1668Y1059D02*
X1703Y1059D01*
X1777Y1059D02*
X1786Y1059D01*
X1894Y1059D02*
X1929Y1059D01*
X1963Y1059D02*
X2011Y1059D01*
X54Y1058D02*
X100Y1058D01*
X130Y1058D02*
X171Y1058D01*
X204Y1058D02*
X253Y1058D01*
X308Y1058D02*
X317Y1058D01*
X396Y1058D02*
X405Y1058D01*
X431Y1058D02*
X477Y1058D01*
X507Y1058D02*
X544Y1058D01*
X581Y1058D02*
X590Y1058D01*
X622Y1058D02*
X631Y1058D01*
X657Y1058D02*
X705Y1058D01*
X988Y1058D02*
X1026Y1058D01*
X1057Y1058D02*
X1106Y1058D01*
X1132Y1058D02*
X1142Y1058D01*
X1174Y1058D02*
X1183Y1058D01*
X1214Y1058D02*
X1252Y1058D01*
X1282Y1058D02*
X1292Y1058D01*
X1304Y1058D02*
X1313Y1058D01*
X1325Y1058D02*
X1335Y1058D01*
X1400Y1058D02*
X1410Y1058D01*
X1435Y1058D02*
X1481Y1058D01*
X1530Y1058D02*
X1540Y1058D01*
X1667Y1058D02*
X1704Y1058D01*
X1777Y1058D02*
X1786Y1058D01*
X1893Y1058D02*
X1930Y1058D01*
X1964Y1058D02*
X2010Y1058D01*
X54Y1057D02*
X99Y1057D01*
X129Y1057D02*
X170Y1057D01*
X204Y1057D02*
X252Y1057D01*
X308Y1057D02*
X317Y1057D01*
X396Y1057D02*
X405Y1057D01*
X430Y1057D02*
X476Y1057D01*
X507Y1057D02*
X544Y1057D01*
X581Y1057D02*
X590Y1057D01*
X622Y1057D02*
X631Y1057D01*
X657Y1057D02*
X706Y1057D01*
X988Y1057D02*
X1027Y1057D01*
X1057Y1057D02*
X1106Y1057D01*
X1132Y1057D02*
X1142Y1057D01*
X1174Y1057D02*
X1183Y1057D01*
X1214Y1057D02*
X1253Y1057D01*
X1282Y1057D02*
X1292Y1057D01*
X1304Y1057D02*
X1313Y1057D01*
X1325Y1057D02*
X1335Y1057D01*
X1400Y1057D02*
X1410Y1057D01*
X1435Y1057D02*
X1480Y1057D01*
X1530Y1057D02*
X1540Y1057D01*
X1666Y1057D02*
X1705Y1057D01*
X1777Y1057D02*
X1786Y1057D01*
X1892Y1057D02*
X1931Y1057D01*
X1964Y1057D02*
X2010Y1057D01*
X53Y1056D02*
X98Y1056D01*
X128Y1056D02*
X168Y1056D01*
X204Y1056D02*
X252Y1056D01*
X308Y1056D02*
X317Y1056D01*
X396Y1056D02*
X405Y1056D01*
X430Y1056D02*
X475Y1056D01*
X508Y1056D02*
X543Y1056D01*
X581Y1056D02*
X590Y1056D01*
X622Y1056D02*
X631Y1056D01*
X656Y1056D02*
X707Y1056D01*
X987Y1056D02*
X1027Y1056D01*
X1057Y1056D02*
X1105Y1056D01*
X1132Y1056D02*
X1142Y1056D01*
X1174Y1056D02*
X1183Y1056D01*
X1213Y1056D02*
X1253Y1056D01*
X1282Y1056D02*
X1292Y1056D01*
X1304Y1056D02*
X1313Y1056D01*
X1325Y1056D02*
X1335Y1056D01*
X1400Y1056D02*
X1410Y1056D01*
X1434Y1056D02*
X1479Y1056D01*
X1530Y1056D02*
X1540Y1056D01*
X1665Y1056D02*
X1706Y1056D01*
X1777Y1056D02*
X1786Y1056D01*
X1892Y1056D02*
X1932Y1056D01*
X1965Y1056D02*
X2009Y1056D01*
X53Y1055D02*
X97Y1055D01*
X128Y1055D02*
X167Y1055D01*
X204Y1055D02*
X251Y1055D01*
X308Y1055D02*
X317Y1055D01*
X396Y1055D02*
X405Y1055D01*
X430Y1055D02*
X474Y1055D01*
X509Y1055D02*
X542Y1055D01*
X580Y1055D02*
X590Y1055D01*
X622Y1055D02*
X631Y1055D01*
X656Y1055D02*
X707Y1055D01*
X987Y1055D02*
X1027Y1055D01*
X1057Y1055D02*
X1104Y1055D01*
X1132Y1055D02*
X1142Y1055D01*
X1174Y1055D02*
X1183Y1055D01*
X1213Y1055D02*
X1254Y1055D01*
X1282Y1055D02*
X1292Y1055D01*
X1304Y1055D02*
X1313Y1055D01*
X1325Y1055D02*
X1335Y1055D01*
X1400Y1055D02*
X1410Y1055D01*
X1434Y1055D02*
X1478Y1055D01*
X1530Y1055D02*
X1540Y1055D01*
X1665Y1055D02*
X1706Y1055D01*
X1777Y1055D02*
X1786Y1055D01*
X1891Y1055D02*
X1932Y1055D01*
X1965Y1055D02*
X2009Y1055D01*
X53Y1054D02*
X96Y1054D01*
X128Y1054D02*
X166Y1054D01*
X204Y1054D02*
X213Y1054D01*
X215Y1054D02*
X250Y1054D01*
X308Y1054D02*
X317Y1054D01*
X396Y1054D02*
X405Y1054D01*
X430Y1054D02*
X473Y1054D01*
X510Y1054D02*
X541Y1054D01*
X581Y1054D02*
X590Y1054D01*
X622Y1054D02*
X631Y1054D01*
X656Y1054D02*
X707Y1054D01*
X987Y1054D02*
X1027Y1054D01*
X1057Y1054D02*
X1104Y1054D01*
X1132Y1054D02*
X1142Y1054D01*
X1174Y1054D02*
X1183Y1054D01*
X1213Y1054D02*
X1254Y1054D01*
X1282Y1054D02*
X1292Y1054D01*
X1304Y1054D02*
X1313Y1054D01*
X1325Y1054D02*
X1335Y1054D01*
X1400Y1054D02*
X1409Y1054D01*
X1434Y1054D02*
X1477Y1054D01*
X1530Y1054D02*
X1539Y1054D01*
X1665Y1054D02*
X1706Y1054D01*
X1777Y1054D02*
X1786Y1054D01*
X1891Y1054D02*
X1932Y1054D01*
X1966Y1054D02*
X2008Y1054D01*
X53Y1053D02*
X95Y1053D01*
X128Y1053D02*
X165Y1053D01*
X204Y1053D02*
X213Y1053D01*
X216Y1053D02*
X249Y1053D01*
X308Y1053D02*
X317Y1053D01*
X396Y1053D02*
X405Y1053D01*
X430Y1053D02*
X472Y1053D01*
X511Y1053D02*
X540Y1053D01*
X581Y1053D02*
X590Y1053D01*
X622Y1053D02*
X631Y1053D01*
X656Y1053D02*
X707Y1053D01*
X987Y1053D02*
X1027Y1053D01*
X1057Y1053D02*
X1066Y1053D01*
X1070Y1053D02*
X1103Y1053D01*
X1133Y1053D02*
X1142Y1053D01*
X1174Y1053D02*
X1183Y1053D01*
X1213Y1053D02*
X1253Y1053D01*
X1283Y1053D02*
X1292Y1053D01*
X1304Y1053D02*
X1313Y1053D01*
X1326Y1053D02*
X1335Y1053D01*
X1400Y1053D02*
X1409Y1053D01*
X1434Y1053D02*
X1476Y1053D01*
X1530Y1053D02*
X1539Y1053D01*
X1665Y1053D02*
X1706Y1053D01*
X1777Y1053D02*
X1786Y1053D01*
X1892Y1053D02*
X1932Y1053D01*
X1967Y1053D02*
X2007Y1053D01*
X53Y1052D02*
X94Y1052D01*
X129Y1052D02*
X164Y1052D01*
X204Y1052D02*
X212Y1052D01*
X218Y1052D02*
X248Y1052D01*
X308Y1052D02*
X316Y1052D01*
X396Y1052D02*
X405Y1052D01*
X430Y1052D02*
X470Y1052D01*
X512Y1052D02*
X539Y1052D01*
X581Y1052D02*
X589Y1052D01*
X623Y1052D02*
X631Y1052D01*
X656Y1052D02*
X706Y1052D01*
X987Y1052D02*
X1027Y1052D01*
X1057Y1052D02*
X1066Y1052D01*
X1071Y1052D02*
X1101Y1052D01*
X1133Y1052D02*
X1141Y1052D01*
X1174Y1052D02*
X1183Y1052D01*
X1214Y1052D02*
X1253Y1052D01*
X1283Y1052D02*
X1291Y1052D01*
X1304Y1052D02*
X1313Y1052D01*
X1326Y1052D02*
X1334Y1052D01*
X1401Y1052D02*
X1409Y1052D01*
X1434Y1052D02*
X1475Y1052D01*
X1531Y1052D02*
X1539Y1052D01*
X1666Y1052D02*
X1705Y1052D01*
X1777Y1052D02*
X1786Y1052D01*
X1892Y1052D02*
X1931Y1052D01*
X1967Y1052D02*
X1986Y1052D01*
X1988Y1052D02*
X2007Y1052D01*
X54Y1051D02*
X92Y1051D01*
X129Y1051D02*
X162Y1051D01*
X205Y1051D02*
X212Y1051D01*
X220Y1051D02*
X246Y1051D01*
X309Y1051D02*
X316Y1051D01*
X397Y1051D02*
X404Y1051D01*
X431Y1051D02*
X469Y1051D01*
X513Y1051D02*
X537Y1051D01*
X582Y1051D02*
X589Y1051D01*
X623Y1051D02*
X630Y1051D01*
X657Y1051D02*
X706Y1051D01*
X988Y1051D02*
X1026Y1051D01*
X1058Y1051D02*
X1065Y1051D01*
X1073Y1051D02*
X1100Y1051D01*
X1134Y1051D02*
X1141Y1051D01*
X1175Y1051D02*
X1182Y1051D01*
X1214Y1051D02*
X1252Y1051D01*
X1284Y1051D02*
X1290Y1051D01*
X1305Y1051D02*
X1312Y1051D01*
X1327Y1051D02*
X1334Y1051D01*
X1401Y1051D02*
X1408Y1051D01*
X1435Y1051D02*
X1473Y1051D01*
X1531Y1051D02*
X1538Y1051D01*
X1666Y1051D02*
X1704Y1051D01*
X1778Y1051D02*
X1785Y1051D01*
X1893Y1051D02*
X1931Y1051D01*
X1968Y1051D02*
X1985Y1051D01*
X1989Y1051D02*
X2006Y1051D01*
X55Y1050D02*
X90Y1050D01*
X131Y1050D02*
X160Y1050D01*
X206Y1050D02*
X211Y1050D01*
X222Y1050D02*
X244Y1050D01*
X310Y1050D02*
X315Y1050D01*
X398Y1050D02*
X403Y1050D01*
X432Y1050D02*
X466Y1050D01*
X516Y1050D02*
X535Y1050D01*
X583Y1050D02*
X587Y1050D01*
X624Y1050D02*
X629Y1050D01*
X658Y1050D02*
X704Y1050D01*
X989Y1050D02*
X1025Y1050D01*
X1059Y1050D02*
X1064Y1050D01*
X1075Y1050D02*
X1097Y1050D01*
X1135Y1050D02*
X1139Y1050D01*
X1176Y1050D02*
X1181Y1050D01*
X1215Y1050D02*
X1251Y1050D01*
X1285Y1050D02*
X1289Y1050D01*
X1306Y1050D02*
X1311Y1050D01*
X1328Y1050D02*
X1332Y1050D01*
X1402Y1050D02*
X1407Y1050D01*
X1436Y1050D02*
X1471Y1050D01*
X1533Y1050D02*
X1537Y1050D01*
X1668Y1050D02*
X1703Y1050D01*
X1779Y1050D02*
X1784Y1050D01*
X1894Y1050D02*
X1929Y1050D01*
X1969Y1050D02*
X1984Y1050D01*
X1990Y1050D02*
X2005Y1050D01*
X1050Y283D02*
X1058Y283D01*
X1758Y283D02*
X1766Y283D01*
X1048Y282D02*
X1059Y282D01*
X1756Y282D02*
X1767Y282D01*
X1048Y281D02*
X1060Y281D01*
X1756Y281D02*
X1768Y281D01*
X1047Y280D02*
X1060Y280D01*
X1755Y280D02*
X1769Y280D01*
X268Y279D02*
X293Y279D01*
X398Y279D02*
X431Y279D01*
X532Y279D02*
X577Y279D01*
X622Y279D02*
X647Y279D01*
X681Y279D02*
X714Y279D01*
X752Y279D02*
X789Y279D01*
X1047Y279D02*
X1061Y279D01*
X1475Y279D02*
X1492Y279D01*
X1539Y279D02*
X1571Y279D01*
X1670Y279D02*
X1686Y279D01*
X1755Y279D02*
X1769Y279D01*
X1919Y279D02*
X1922Y279D01*
X268Y278D02*
X295Y278D01*
X395Y278D02*
X433Y278D01*
X532Y278D02*
X578Y278D01*
X622Y278D02*
X649Y278D01*
X678Y278D02*
X716Y278D01*
X749Y278D02*
X790Y278D01*
X1047Y278D02*
X1061Y278D01*
X1473Y278D02*
X1494Y278D01*
X1536Y278D02*
X1571Y278D01*
X1669Y278D02*
X1690Y278D01*
X1755Y278D02*
X1769Y278D01*
X1918Y278D02*
X1923Y278D01*
X268Y277D02*
X296Y277D01*
X394Y277D02*
X434Y277D01*
X532Y277D02*
X579Y277D01*
X622Y277D02*
X650Y277D01*
X677Y277D02*
X718Y277D01*
X748Y277D02*
X791Y277D01*
X1047Y277D02*
X1061Y277D01*
X1473Y277D02*
X1494Y277D01*
X1534Y277D02*
X1571Y277D01*
X1668Y277D02*
X1692Y277D01*
X1755Y277D02*
X1769Y277D01*
X1917Y277D02*
X1924Y277D01*
X268Y276D02*
X296Y276D01*
X393Y276D02*
X435Y276D01*
X532Y276D02*
X579Y276D01*
X622Y276D02*
X650Y276D01*
X676Y276D02*
X719Y276D01*
X747Y276D02*
X792Y276D01*
X1047Y276D02*
X1061Y276D01*
X1472Y276D02*
X1495Y276D01*
X1532Y276D02*
X1571Y276D01*
X1667Y276D02*
X1693Y276D01*
X1755Y276D02*
X1769Y276D01*
X1916Y276D02*
X1925Y276D01*
X268Y275D02*
X296Y275D01*
X392Y275D02*
X436Y275D01*
X532Y275D02*
X580Y275D01*
X622Y275D02*
X650Y275D01*
X675Y275D02*
X720Y275D01*
X746Y275D02*
X792Y275D01*
X919Y275D02*
X920Y275D01*
X1047Y275D02*
X1061Y275D01*
X1472Y275D02*
X1495Y275D01*
X1531Y275D02*
X1571Y275D01*
X1667Y275D02*
X1694Y275D01*
X1755Y275D02*
X1769Y275D01*
X1916Y275D02*
X1925Y275D01*
X268Y274D02*
X296Y274D01*
X391Y274D02*
X437Y274D01*
X532Y274D02*
X580Y274D01*
X622Y274D02*
X650Y274D01*
X675Y274D02*
X720Y274D01*
X745Y274D02*
X792Y274D01*
X917Y274D02*
X922Y274D01*
X1047Y274D02*
X1061Y274D01*
X1472Y274D02*
X1495Y274D01*
X1530Y274D02*
X1571Y274D01*
X1667Y274D02*
X1696Y274D01*
X1755Y274D02*
X1769Y274D01*
X1916Y274D02*
X1925Y274D01*
X268Y273D02*
X296Y273D01*
X391Y273D02*
X437Y273D01*
X532Y273D02*
X580Y273D01*
X622Y273D02*
X650Y273D01*
X674Y273D02*
X721Y273D01*
X745Y273D02*
X792Y273D01*
X916Y273D02*
X923Y273D01*
X1047Y273D02*
X1061Y273D01*
X1472Y273D02*
X1495Y273D01*
X1529Y273D02*
X1571Y273D01*
X1667Y273D02*
X1696Y273D01*
X1755Y273D02*
X1769Y273D01*
X1916Y273D02*
X1925Y273D01*
X268Y272D02*
X296Y272D01*
X391Y272D02*
X438Y272D01*
X532Y272D02*
X580Y272D01*
X622Y272D02*
X650Y272D01*
X674Y272D02*
X721Y272D01*
X745Y272D02*
X791Y272D01*
X915Y272D02*
X924Y272D01*
X1048Y272D02*
X1060Y272D01*
X1472Y272D02*
X1495Y272D01*
X1528Y272D02*
X1571Y272D01*
X1668Y272D02*
X1697Y272D01*
X1756Y272D02*
X1768Y272D01*
X1916Y272D02*
X1925Y272D01*
X268Y271D02*
X295Y271D01*
X390Y271D02*
X438Y271D01*
X532Y271D02*
X580Y271D01*
X622Y271D02*
X649Y271D01*
X673Y271D02*
X721Y271D01*
X744Y271D02*
X791Y271D01*
X915Y271D02*
X924Y271D01*
X1048Y271D02*
X1059Y271D01*
X1472Y271D02*
X1494Y271D01*
X1527Y271D02*
X1571Y271D01*
X1669Y271D02*
X1698Y271D01*
X1756Y271D02*
X1767Y271D01*
X1916Y271D02*
X1925Y271D01*
X268Y270D02*
X294Y270D01*
X390Y270D02*
X438Y270D01*
X532Y270D02*
X580Y270D01*
X622Y270D02*
X648Y270D01*
X673Y270D02*
X721Y270D01*
X744Y270D02*
X789Y270D01*
X915Y270D02*
X924Y270D01*
X1050Y270D02*
X1058Y270D01*
X1472Y270D02*
X1493Y270D01*
X1526Y270D02*
X1571Y270D01*
X1670Y270D02*
X1698Y270D01*
X1758Y270D02*
X1766Y270D01*
X1916Y270D02*
X1925Y270D01*
X268Y269D02*
X277Y269D01*
X390Y269D02*
X399Y269D01*
X429Y269D02*
X438Y269D01*
X532Y269D02*
X541Y269D01*
X571Y269D02*
X579Y269D01*
X622Y269D02*
X631Y269D01*
X673Y269D02*
X682Y269D01*
X712Y269D02*
X721Y269D01*
X744Y269D02*
X753Y269D01*
X915Y269D02*
X924Y269D01*
X1472Y269D02*
X1481Y269D01*
X1526Y269D02*
X1539Y269D01*
X1562Y269D02*
X1571Y269D01*
X1686Y269D02*
X1699Y269D01*
X1916Y269D02*
X1925Y269D01*
X268Y268D02*
X277Y268D01*
X390Y268D02*
X399Y268D01*
X429Y268D02*
X438Y268D01*
X532Y268D02*
X541Y268D01*
X571Y268D02*
X579Y268D01*
X622Y268D02*
X631Y268D01*
X673Y268D02*
X682Y268D01*
X712Y268D02*
X721Y268D01*
X744Y268D02*
X753Y268D01*
X915Y268D02*
X924Y268D01*
X1472Y268D02*
X1481Y268D01*
X1525Y268D02*
X1537Y268D01*
X1562Y268D02*
X1571Y268D01*
X1688Y268D02*
X1699Y268D01*
X1916Y268D02*
X1925Y268D01*
X268Y267D02*
X277Y267D01*
X390Y267D02*
X399Y267D01*
X429Y267D02*
X438Y267D01*
X532Y267D02*
X541Y267D01*
X572Y267D02*
X578Y267D01*
X622Y267D02*
X631Y267D01*
X673Y267D02*
X682Y267D01*
X712Y267D02*
X721Y267D01*
X744Y267D02*
X753Y267D01*
X915Y267D02*
X924Y267D01*
X1472Y267D02*
X1481Y267D01*
X1524Y267D02*
X1536Y267D01*
X1562Y267D02*
X1571Y267D01*
X1689Y267D02*
X1700Y267D01*
X1916Y267D02*
X1925Y267D01*
X268Y266D02*
X277Y266D01*
X390Y266D02*
X399Y266D01*
X429Y266D02*
X438Y266D01*
X532Y266D02*
X541Y266D01*
X573Y266D02*
X577Y266D01*
X622Y266D02*
X631Y266D01*
X673Y266D02*
X682Y266D01*
X712Y266D02*
X721Y266D01*
X744Y266D02*
X753Y266D01*
X915Y266D02*
X924Y266D01*
X1472Y266D02*
X1481Y266D01*
X1524Y266D02*
X1535Y266D01*
X1562Y266D02*
X1571Y266D01*
X1690Y266D02*
X1700Y266D01*
X1916Y266D02*
X1925Y266D01*
X268Y265D02*
X277Y265D01*
X390Y265D02*
X399Y265D01*
X429Y265D02*
X438Y265D01*
X532Y265D02*
X541Y265D01*
X622Y265D02*
X631Y265D01*
X673Y265D02*
X682Y265D01*
X712Y265D02*
X721Y265D01*
X744Y265D02*
X753Y265D01*
X915Y265D02*
X924Y265D01*
X1472Y265D02*
X1481Y265D01*
X1524Y265D02*
X1534Y265D01*
X1562Y265D02*
X1571Y265D01*
X1691Y265D02*
X1700Y265D01*
X1916Y265D02*
X1925Y265D01*
X268Y264D02*
X277Y264D01*
X390Y264D02*
X399Y264D01*
X429Y264D02*
X438Y264D01*
X532Y264D02*
X541Y264D01*
X622Y264D02*
X631Y264D01*
X673Y264D02*
X682Y264D01*
X712Y264D02*
X721Y264D01*
X744Y264D02*
X753Y264D01*
X915Y264D02*
X924Y264D01*
X1472Y264D02*
X1481Y264D01*
X1524Y264D02*
X1533Y264D01*
X1562Y264D02*
X1571Y264D01*
X1691Y264D02*
X1700Y264D01*
X1916Y264D02*
X1925Y264D01*
X268Y263D02*
X277Y263D01*
X390Y263D02*
X399Y263D01*
X429Y263D02*
X438Y263D01*
X532Y263D02*
X541Y263D01*
X622Y263D02*
X631Y263D01*
X673Y263D02*
X682Y263D01*
X712Y263D02*
X721Y263D01*
X744Y263D02*
X753Y263D01*
X915Y263D02*
X924Y263D01*
X1472Y263D02*
X1481Y263D01*
X1523Y263D02*
X1533Y263D01*
X1562Y263D02*
X1571Y263D01*
X1691Y263D02*
X1700Y263D01*
X1916Y263D02*
X1925Y263D01*
X268Y262D02*
X277Y262D01*
X390Y262D02*
X399Y262D01*
X429Y262D02*
X438Y262D01*
X532Y262D02*
X541Y262D01*
X622Y262D02*
X631Y262D01*
X673Y262D02*
X682Y262D01*
X712Y262D02*
X721Y262D01*
X744Y262D02*
X753Y262D01*
X915Y262D02*
X924Y262D01*
X1472Y262D02*
X1481Y262D01*
X1523Y262D02*
X1532Y262D01*
X1562Y262D02*
X1571Y262D01*
X1692Y262D02*
X1700Y262D01*
X1916Y262D02*
X1925Y262D01*
X268Y261D02*
X277Y261D01*
X390Y261D02*
X399Y261D01*
X429Y261D02*
X438Y261D01*
X532Y261D02*
X541Y261D01*
X622Y261D02*
X631Y261D01*
X673Y261D02*
X682Y261D01*
X712Y261D02*
X721Y261D01*
X744Y261D02*
X753Y261D01*
X915Y261D02*
X924Y261D01*
X1472Y261D02*
X1481Y261D01*
X1523Y261D02*
X1532Y261D01*
X1562Y261D02*
X1571Y261D01*
X1692Y261D02*
X1700Y261D01*
X1916Y261D02*
X1925Y261D01*
X268Y260D02*
X277Y260D01*
X390Y260D02*
X399Y260D01*
X429Y260D02*
X438Y260D01*
X532Y260D02*
X541Y260D01*
X622Y260D02*
X631Y260D01*
X673Y260D02*
X682Y260D01*
X712Y260D02*
X721Y260D01*
X744Y260D02*
X753Y260D01*
X915Y260D02*
X924Y260D01*
X1472Y260D02*
X1481Y260D01*
X1523Y260D02*
X1532Y260D01*
X1562Y260D02*
X1571Y260D01*
X1692Y260D02*
X1700Y260D01*
X1916Y260D02*
X1925Y260D01*
X268Y259D02*
X277Y259D01*
X390Y259D02*
X399Y259D01*
X429Y259D02*
X438Y259D01*
X532Y259D02*
X541Y259D01*
X622Y259D02*
X631Y259D01*
X673Y259D02*
X682Y259D01*
X712Y259D02*
X721Y259D01*
X744Y259D02*
X753Y259D01*
X915Y259D02*
X924Y259D01*
X1472Y259D02*
X1481Y259D01*
X1523Y259D02*
X1532Y259D01*
X1562Y259D02*
X1571Y259D01*
X1692Y259D02*
X1700Y259D01*
X1916Y259D02*
X1925Y259D01*
X268Y258D02*
X277Y258D01*
X322Y258D02*
X325Y258D01*
X361Y258D02*
X364Y258D01*
X390Y258D02*
X399Y258D01*
X429Y258D02*
X438Y258D01*
X532Y258D02*
X541Y258D01*
X622Y258D02*
X631Y258D01*
X673Y258D02*
X682Y258D01*
X712Y258D02*
X721Y258D01*
X744Y258D02*
X753Y258D01*
X894Y258D02*
X931Y258D01*
X967Y258D02*
X994Y258D01*
X1050Y258D02*
X1068Y258D01*
X1101Y258D02*
X1104Y258D01*
X1140Y258D02*
X1143Y258D01*
X1172Y258D02*
X1175Y258D01*
X1189Y258D02*
X1202Y258D01*
X1250Y258D02*
X1254Y258D01*
X1268Y258D02*
X1274Y258D01*
X1283Y258D02*
X1286Y258D01*
X1325Y258D02*
X1344Y258D01*
X1396Y258D02*
X1415Y258D01*
X1472Y258D02*
X1481Y258D01*
X1523Y258D02*
X1532Y258D01*
X1562Y258D02*
X1571Y258D01*
X1680Y258D02*
X1707Y258D01*
X1758Y258D02*
X1776Y258D01*
X1821Y258D02*
X1840Y258D01*
X1916Y258D02*
X1925Y258D01*
X268Y257D02*
X277Y257D01*
X321Y257D02*
X327Y257D01*
X360Y257D02*
X366Y257D01*
X390Y257D02*
X399Y257D01*
X429Y257D02*
X438Y257D01*
X532Y257D02*
X541Y257D01*
X622Y257D02*
X631Y257D01*
X673Y257D02*
X682Y257D01*
X712Y257D02*
X721Y257D01*
X744Y257D02*
X753Y257D01*
X892Y257D02*
X932Y257D01*
X964Y257D02*
X997Y257D01*
X1048Y257D02*
X1069Y257D01*
X1100Y257D02*
X1106Y257D01*
X1139Y257D02*
X1145Y257D01*
X1170Y257D02*
X1176Y257D01*
X1186Y257D02*
X1205Y257D01*
X1247Y257D02*
X1256Y257D01*
X1266Y257D02*
X1276Y257D01*
X1281Y257D02*
X1287Y257D01*
X1323Y257D02*
X1347Y257D01*
X1393Y257D02*
X1418Y257D01*
X1472Y257D02*
X1481Y257D01*
X1523Y257D02*
X1532Y257D01*
X1562Y257D02*
X1571Y257D01*
X1678Y257D02*
X1709Y257D01*
X1756Y257D02*
X1777Y257D01*
X1818Y257D02*
X1842Y257D01*
X1916Y257D02*
X1925Y257D01*
X268Y256D02*
X277Y256D01*
X320Y256D02*
X328Y256D01*
X359Y256D02*
X367Y256D01*
X390Y256D02*
X399Y256D01*
X429Y256D02*
X438Y256D01*
X532Y256D02*
X541Y256D01*
X622Y256D02*
X631Y256D01*
X673Y256D02*
X682Y256D01*
X712Y256D02*
X721Y256D01*
X744Y256D02*
X753Y256D01*
X892Y256D02*
X933Y256D01*
X963Y256D02*
X998Y256D01*
X1048Y256D02*
X1070Y256D01*
X1099Y256D02*
X1106Y256D01*
X1138Y256D02*
X1145Y256D01*
X1170Y256D02*
X1177Y256D01*
X1184Y256D02*
X1207Y256D01*
X1246Y256D02*
X1258Y256D01*
X1264Y256D02*
X1278Y256D01*
X1280Y256D02*
X1288Y256D01*
X1321Y256D02*
X1348Y256D01*
X1392Y256D02*
X1419Y256D01*
X1472Y256D02*
X1481Y256D01*
X1523Y256D02*
X1532Y256D01*
X1562Y256D02*
X1571Y256D01*
X1678Y256D02*
X1709Y256D01*
X1756Y256D02*
X1778Y256D01*
X1816Y256D02*
X1844Y256D01*
X1916Y256D02*
X1925Y256D01*
X268Y255D02*
X277Y255D01*
X320Y255D02*
X328Y255D01*
X359Y255D02*
X367Y255D01*
X390Y255D02*
X399Y255D01*
X429Y255D02*
X438Y255D01*
X532Y255D02*
X541Y255D01*
X622Y255D02*
X631Y255D01*
X673Y255D02*
X682Y255D01*
X712Y255D02*
X721Y255D01*
X744Y255D02*
X753Y255D01*
X891Y255D02*
X933Y255D01*
X961Y255D02*
X999Y255D01*
X1047Y255D02*
X1070Y255D01*
X1098Y255D02*
X1107Y255D01*
X1138Y255D02*
X1146Y255D01*
X1169Y255D02*
X1178Y255D01*
X1183Y255D02*
X1208Y255D01*
X1244Y255D02*
X1259Y255D01*
X1263Y255D02*
X1288Y255D01*
X1319Y255D02*
X1350Y255D01*
X1390Y255D02*
X1421Y255D01*
X1472Y255D02*
X1481Y255D01*
X1523Y255D02*
X1532Y255D01*
X1562Y255D02*
X1571Y255D01*
X1677Y255D02*
X1710Y255D01*
X1755Y255D02*
X1778Y255D01*
X1815Y255D02*
X1845Y255D01*
X1916Y255D02*
X1925Y255D01*
X268Y254D02*
X277Y254D01*
X319Y254D02*
X328Y254D01*
X358Y254D02*
X367Y254D01*
X390Y254D02*
X399Y254D01*
X429Y254D02*
X438Y254D01*
X532Y254D02*
X541Y254D01*
X622Y254D02*
X631Y254D01*
X673Y254D02*
X682Y254D01*
X712Y254D02*
X721Y254D01*
X744Y254D02*
X753Y254D01*
X891Y254D02*
X934Y254D01*
X960Y254D02*
X1000Y254D01*
X1047Y254D02*
X1070Y254D01*
X1098Y254D02*
X1107Y254D01*
X1137Y254D02*
X1146Y254D01*
X1169Y254D02*
X1178Y254D01*
X1182Y254D02*
X1209Y254D01*
X1243Y254D02*
X1288Y254D01*
X1318Y254D02*
X1351Y254D01*
X1389Y254D02*
X1422Y254D01*
X1472Y254D02*
X1481Y254D01*
X1523Y254D02*
X1532Y254D01*
X1562Y254D02*
X1571Y254D01*
X1677Y254D02*
X1710Y254D01*
X1755Y254D02*
X1778Y254D01*
X1814Y254D02*
X1847Y254D01*
X1916Y254D02*
X1925Y254D01*
X268Y253D02*
X277Y253D01*
X319Y253D02*
X328Y253D01*
X358Y253D02*
X367Y253D01*
X390Y253D02*
X399Y253D01*
X429Y253D02*
X438Y253D01*
X532Y253D02*
X541Y253D01*
X622Y253D02*
X631Y253D01*
X673Y253D02*
X682Y253D01*
X712Y253D02*
X721Y253D01*
X744Y253D02*
X753Y253D01*
X891Y253D02*
X934Y253D01*
X959Y253D02*
X1001Y253D01*
X1047Y253D02*
X1070Y253D01*
X1098Y253D02*
X1107Y253D01*
X1137Y253D02*
X1146Y253D01*
X1169Y253D02*
X1178Y253D01*
X1180Y253D02*
X1211Y253D01*
X1242Y253D02*
X1289Y253D01*
X1317Y253D02*
X1352Y253D01*
X1388Y253D02*
X1423Y253D01*
X1472Y253D02*
X1481Y253D01*
X1523Y253D02*
X1532Y253D01*
X1562Y253D02*
X1571Y253D01*
X1677Y253D02*
X1710Y253D01*
X1755Y253D02*
X1778Y253D01*
X1813Y253D02*
X1848Y253D01*
X1916Y253D02*
X1925Y253D01*
X268Y252D02*
X277Y252D01*
X319Y252D02*
X328Y252D01*
X358Y252D02*
X367Y252D01*
X390Y252D02*
X399Y252D01*
X429Y252D02*
X438Y252D01*
X532Y252D02*
X541Y252D01*
X622Y252D02*
X631Y252D01*
X673Y252D02*
X682Y252D01*
X712Y252D02*
X721Y252D01*
X744Y252D02*
X753Y252D01*
X891Y252D02*
X933Y252D01*
X958Y252D02*
X1002Y252D01*
X1047Y252D02*
X1070Y252D01*
X1098Y252D02*
X1107Y252D01*
X1137Y252D02*
X1146Y252D01*
X1169Y252D02*
X1212Y252D01*
X1242Y252D02*
X1289Y252D01*
X1316Y252D02*
X1353Y252D01*
X1387Y252D02*
X1424Y252D01*
X1472Y252D02*
X1481Y252D01*
X1523Y252D02*
X1533Y252D01*
X1562Y252D02*
X1571Y252D01*
X1677Y252D02*
X1710Y252D01*
X1755Y252D02*
X1778Y252D01*
X1812Y252D02*
X1849Y252D01*
X1916Y252D02*
X1925Y252D01*
X268Y251D02*
X277Y251D01*
X319Y251D02*
X328Y251D01*
X358Y251D02*
X367Y251D01*
X390Y251D02*
X399Y251D01*
X429Y251D02*
X438Y251D01*
X532Y251D02*
X541Y251D01*
X622Y251D02*
X631Y251D01*
X673Y251D02*
X682Y251D01*
X712Y251D02*
X721Y251D01*
X744Y251D02*
X753Y251D01*
X892Y251D02*
X933Y251D01*
X958Y251D02*
X1002Y251D01*
X1047Y251D02*
X1070Y251D01*
X1098Y251D02*
X1107Y251D01*
X1137Y251D02*
X1146Y251D01*
X1169Y251D02*
X1213Y251D01*
X1241Y251D02*
X1289Y251D01*
X1315Y251D02*
X1354Y251D01*
X1386Y251D02*
X1425Y251D01*
X1472Y251D02*
X1481Y251D01*
X1524Y251D02*
X1533Y251D01*
X1562Y251D02*
X1571Y251D01*
X1678Y251D02*
X1709Y251D01*
X1755Y251D02*
X1778Y251D01*
X1811Y251D02*
X1850Y251D01*
X1916Y251D02*
X1925Y251D01*
X268Y250D02*
X277Y250D01*
X319Y250D02*
X328Y250D01*
X358Y250D02*
X367Y250D01*
X390Y250D02*
X399Y250D01*
X429Y250D02*
X438Y250D01*
X532Y250D02*
X543Y250D01*
X622Y250D02*
X631Y250D01*
X673Y250D02*
X682Y250D01*
X712Y250D02*
X721Y250D01*
X744Y250D02*
X753Y250D01*
X892Y250D02*
X932Y250D01*
X958Y250D02*
X1003Y250D01*
X1047Y250D02*
X1069Y250D01*
X1098Y250D02*
X1107Y250D01*
X1137Y250D02*
X1146Y250D01*
X1169Y250D02*
X1213Y250D01*
X1241Y250D02*
X1289Y250D01*
X1314Y250D02*
X1355Y250D01*
X1385Y250D02*
X1426Y250D01*
X1472Y250D02*
X1481Y250D01*
X1524Y250D02*
X1534Y250D01*
X1562Y250D02*
X1571Y250D01*
X1678Y250D02*
X1709Y250D01*
X1755Y250D02*
X1777Y250D01*
X1810Y250D02*
X1851Y250D01*
X1916Y250D02*
X1925Y250D01*
X268Y249D02*
X277Y249D01*
X319Y249D02*
X328Y249D01*
X358Y249D02*
X367Y249D01*
X390Y249D02*
X399Y249D01*
X429Y249D02*
X438Y249D01*
X532Y249D02*
X544Y249D01*
X622Y249D02*
X631Y249D01*
X673Y249D02*
X682Y249D01*
X712Y249D02*
X721Y249D01*
X744Y249D02*
X753Y249D01*
X894Y249D02*
X931Y249D01*
X958Y249D02*
X1003Y249D01*
X1047Y249D02*
X1067Y249D01*
X1098Y249D02*
X1107Y249D01*
X1137Y249D02*
X1146Y249D01*
X1169Y249D02*
X1214Y249D01*
X1241Y249D02*
X1289Y249D01*
X1313Y249D02*
X1356Y249D01*
X1384Y249D02*
X1427Y249D01*
X1472Y249D02*
X1481Y249D01*
X1524Y249D02*
X1535Y249D01*
X1562Y249D02*
X1571Y249D01*
X1680Y249D02*
X1707Y249D01*
X1755Y249D02*
X1775Y249D01*
X1809Y249D02*
X1851Y249D01*
X1916Y249D02*
X1925Y249D01*
X268Y248D02*
X277Y248D01*
X319Y248D02*
X328Y248D01*
X358Y248D02*
X367Y248D01*
X390Y248D02*
X399Y248D01*
X429Y248D02*
X438Y248D01*
X532Y248D02*
X545Y248D01*
X622Y248D02*
X631Y248D01*
X673Y248D02*
X682Y248D01*
X712Y248D02*
X721Y248D01*
X744Y248D02*
X753Y248D01*
X915Y248D02*
X924Y248D01*
X958Y248D02*
X968Y248D01*
X993Y248D02*
X1003Y248D01*
X1047Y248D02*
X1056Y248D01*
X1098Y248D02*
X1107Y248D01*
X1137Y248D02*
X1146Y248D01*
X1169Y248D02*
X1189Y248D01*
X1202Y248D02*
X1215Y248D01*
X1241Y248D02*
X1250Y248D01*
X1253Y248D02*
X1269Y248D01*
X1273Y248D02*
X1289Y248D01*
X1313Y248D02*
X1326Y248D01*
X1344Y248D02*
X1356Y248D01*
X1383Y248D02*
X1396Y248D01*
X1414Y248D02*
X1427Y248D01*
X1472Y248D02*
X1481Y248D01*
X1525Y248D02*
X1536Y248D01*
X1562Y248D02*
X1571Y248D01*
X1692Y248D02*
X1700Y248D01*
X1755Y248D02*
X1764Y248D01*
X1808Y248D02*
X1821Y248D01*
X1839Y248D02*
X1852Y248D01*
X1916Y248D02*
X1925Y248D01*
X268Y247D02*
X277Y247D01*
X319Y247D02*
X328Y247D01*
X358Y247D02*
X367Y247D01*
X390Y247D02*
X399Y247D01*
X429Y247D02*
X438Y247D01*
X532Y247D02*
X546Y247D01*
X622Y247D02*
X631Y247D01*
X673Y247D02*
X682Y247D01*
X712Y247D02*
X721Y247D01*
X744Y247D02*
X753Y247D01*
X915Y247D02*
X924Y247D01*
X958Y247D02*
X966Y247D01*
X994Y247D02*
X1003Y247D01*
X1047Y247D02*
X1056Y247D01*
X1098Y247D02*
X1107Y247D01*
X1137Y247D02*
X1146Y247D01*
X1169Y247D02*
X1188Y247D01*
X1203Y247D02*
X1216Y247D01*
X1241Y247D02*
X1250Y247D01*
X1255Y247D02*
X1268Y247D01*
X1274Y247D02*
X1289Y247D01*
X1312Y247D02*
X1324Y247D01*
X1345Y247D02*
X1357Y247D01*
X1383Y247D02*
X1395Y247D01*
X1416Y247D02*
X1428Y247D01*
X1472Y247D02*
X1481Y247D01*
X1525Y247D02*
X1538Y247D01*
X1562Y247D02*
X1571Y247D01*
X1692Y247D02*
X1700Y247D01*
X1755Y247D02*
X1764Y247D01*
X1808Y247D02*
X1820Y247D01*
X1841Y247D02*
X1853Y247D01*
X1916Y247D02*
X1925Y247D01*
X268Y246D02*
X277Y246D01*
X319Y246D02*
X328Y246D01*
X358Y246D02*
X367Y246D01*
X390Y246D02*
X399Y246D01*
X429Y246D02*
X438Y246D01*
X533Y246D02*
X547Y246D01*
X622Y246D02*
X631Y246D01*
X673Y246D02*
X682Y246D01*
X712Y246D02*
X721Y246D01*
X744Y246D02*
X753Y246D01*
X915Y246D02*
X924Y246D01*
X959Y246D02*
X965Y246D01*
X994Y246D02*
X1003Y246D01*
X1047Y246D02*
X1056Y246D01*
X1098Y246D02*
X1107Y246D01*
X1137Y246D02*
X1146Y246D01*
X1169Y246D02*
X1186Y246D01*
X1205Y246D02*
X1216Y246D01*
X1241Y246D02*
X1249Y246D01*
X1256Y246D02*
X1268Y246D01*
X1275Y246D02*
X1289Y246D01*
X1312Y246D02*
X1323Y246D01*
X1346Y246D02*
X1357Y246D01*
X1382Y246D02*
X1393Y246D01*
X1417Y246D02*
X1428Y246D01*
X1472Y246D02*
X1481Y246D01*
X1526Y246D02*
X1571Y246D01*
X1692Y246D02*
X1700Y246D01*
X1755Y246D02*
X1764Y246D01*
X1807Y246D02*
X1818Y246D01*
X1842Y246D02*
X1853Y246D01*
X1916Y246D02*
X1925Y246D01*
X268Y245D02*
X277Y245D01*
X319Y245D02*
X329Y245D01*
X358Y245D02*
X367Y245D01*
X390Y245D02*
X399Y245D01*
X429Y245D02*
X438Y245D01*
X534Y245D02*
X548Y245D01*
X622Y245D02*
X631Y245D01*
X673Y245D02*
X682Y245D01*
X712Y245D02*
X721Y245D01*
X744Y245D02*
X786Y245D01*
X915Y245D02*
X924Y245D01*
X960Y245D02*
X964Y245D01*
X994Y245D02*
X1003Y245D01*
X1047Y245D02*
X1056Y245D01*
X1098Y245D02*
X1107Y245D01*
X1137Y245D02*
X1146Y245D01*
X1169Y245D02*
X1185Y245D01*
X1206Y245D02*
X1216Y245D01*
X1240Y245D02*
X1249Y245D01*
X1257Y245D02*
X1268Y245D01*
X1276Y245D02*
X1289Y245D01*
X1311Y245D02*
X1322Y245D01*
X1347Y245D02*
X1358Y245D01*
X1382Y245D02*
X1392Y245D01*
X1418Y245D02*
X1429Y245D01*
X1472Y245D02*
X1481Y245D01*
X1526Y245D02*
X1571Y245D01*
X1692Y245D02*
X1700Y245D01*
X1755Y245D02*
X1764Y245D01*
X1807Y245D02*
X1817Y245D01*
X1843Y245D02*
X1853Y245D01*
X1916Y245D02*
X1925Y245D01*
X268Y244D02*
X277Y244D01*
X320Y244D02*
X329Y244D01*
X357Y244D02*
X367Y244D01*
X390Y244D02*
X399Y244D01*
X429Y244D02*
X438Y244D01*
X535Y244D02*
X550Y244D01*
X622Y244D02*
X631Y244D01*
X673Y244D02*
X682Y244D01*
X712Y244D02*
X721Y244D01*
X744Y244D02*
X788Y244D01*
X915Y244D02*
X924Y244D01*
X994Y244D02*
X1003Y244D01*
X1047Y244D02*
X1056Y244D01*
X1098Y244D02*
X1107Y244D01*
X1137Y244D02*
X1146Y244D01*
X1169Y244D02*
X1184Y244D01*
X1207Y244D02*
X1217Y244D01*
X1240Y244D02*
X1249Y244D01*
X1258Y244D02*
X1268Y244D01*
X1278Y244D02*
X1289Y244D01*
X1311Y244D02*
X1321Y244D01*
X1348Y244D02*
X1358Y244D01*
X1382Y244D02*
X1392Y244D01*
X1419Y244D02*
X1429Y244D01*
X1472Y244D02*
X1481Y244D01*
X1527Y244D02*
X1571Y244D01*
X1692Y244D02*
X1700Y244D01*
X1755Y244D02*
X1764Y244D01*
X1807Y244D02*
X1816Y244D01*
X1844Y244D02*
X1854Y244D01*
X1916Y244D02*
X1925Y244D01*
X268Y243D02*
X277Y243D01*
X320Y243D02*
X330Y243D01*
X357Y243D02*
X367Y243D01*
X390Y243D02*
X399Y243D01*
X429Y243D02*
X438Y243D01*
X536Y243D02*
X551Y243D01*
X622Y243D02*
X631Y243D01*
X673Y243D02*
X682Y243D01*
X712Y243D02*
X721Y243D01*
X745Y243D02*
X789Y243D01*
X915Y243D02*
X924Y243D01*
X992Y243D02*
X1003Y243D01*
X1047Y243D02*
X1056Y243D01*
X1098Y243D02*
X1107Y243D01*
X1137Y243D02*
X1146Y243D01*
X1169Y243D02*
X1183Y243D01*
X1207Y243D02*
X1217Y243D01*
X1240Y243D02*
X1249Y243D01*
X1259Y243D02*
X1268Y243D01*
X1279Y243D02*
X1289Y243D01*
X1311Y243D02*
X1320Y243D01*
X1349Y243D02*
X1358Y243D01*
X1382Y243D02*
X1391Y243D01*
X1420Y243D02*
X1429Y243D01*
X1472Y243D02*
X1481Y243D01*
X1528Y243D02*
X1571Y243D01*
X1692Y243D02*
X1700Y243D01*
X1755Y243D02*
X1764Y243D01*
X1806Y243D02*
X1816Y243D01*
X1845Y243D02*
X1854Y243D01*
X1916Y243D02*
X1925Y243D01*
X268Y242D02*
X277Y242D01*
X320Y242D02*
X330Y242D01*
X357Y242D02*
X366Y242D01*
X390Y242D02*
X399Y242D01*
X429Y242D02*
X438Y242D01*
X538Y242D02*
X552Y242D01*
X622Y242D02*
X631Y242D01*
X673Y242D02*
X682Y242D01*
X712Y242D02*
X721Y242D01*
X745Y242D02*
X790Y242D01*
X915Y242D02*
X924Y242D01*
X990Y242D02*
X1003Y242D01*
X1047Y242D02*
X1056Y242D01*
X1098Y242D02*
X1107Y242D01*
X1137Y242D02*
X1146Y242D01*
X1169Y242D02*
X1182Y242D01*
X1208Y242D02*
X1217Y242D01*
X1240Y242D02*
X1249Y242D01*
X1259Y242D02*
X1268Y242D01*
X1280Y242D02*
X1289Y242D01*
X1311Y242D02*
X1320Y242D01*
X1349Y242D02*
X1358Y242D01*
X1382Y242D02*
X1391Y242D01*
X1420Y242D02*
X1429Y242D01*
X1472Y242D02*
X1481Y242D01*
X1529Y242D02*
X1571Y242D01*
X1692Y242D02*
X1700Y242D01*
X1755Y242D02*
X1764Y242D01*
X1806Y242D02*
X1815Y242D01*
X1845Y242D02*
X1854Y242D01*
X1916Y242D02*
X1925Y242D01*
X268Y241D02*
X277Y241D01*
X321Y241D02*
X331Y241D01*
X356Y241D02*
X366Y241D01*
X390Y241D02*
X399Y241D01*
X429Y241D02*
X438Y241D01*
X539Y241D02*
X553Y241D01*
X622Y241D02*
X631Y241D01*
X673Y241D02*
X682Y241D01*
X712Y241D02*
X721Y241D01*
X746Y241D02*
X791Y241D01*
X915Y241D02*
X924Y241D01*
X987Y241D02*
X1002Y241D01*
X1047Y241D02*
X1056Y241D01*
X1098Y241D02*
X1107Y241D01*
X1137Y241D02*
X1146Y241D01*
X1169Y241D02*
X1181Y241D01*
X1208Y241D02*
X1217Y241D01*
X1240Y241D02*
X1249Y241D01*
X1259Y241D02*
X1268Y241D01*
X1280Y241D02*
X1289Y241D01*
X1311Y241D02*
X1320Y241D01*
X1350Y241D02*
X1359Y241D01*
X1381Y241D02*
X1390Y241D01*
X1420Y241D02*
X1429Y241D01*
X1472Y241D02*
X1481Y241D01*
X1530Y241D02*
X1571Y241D01*
X1692Y241D02*
X1700Y241D01*
X1755Y241D02*
X1764Y241D01*
X1806Y241D02*
X1815Y241D01*
X1845Y241D02*
X1854Y241D01*
X1916Y241D02*
X1925Y241D01*
X268Y240D02*
X277Y240D01*
X321Y240D02*
X331Y240D01*
X356Y240D02*
X366Y240D01*
X390Y240D02*
X399Y240D01*
X429Y240D02*
X438Y240D01*
X540Y240D02*
X554Y240D01*
X622Y240D02*
X631Y240D01*
X673Y240D02*
X682Y240D01*
X712Y240D02*
X721Y240D01*
X746Y240D02*
X791Y240D01*
X915Y240D02*
X924Y240D01*
X985Y240D02*
X1002Y240D01*
X1047Y240D02*
X1056Y240D01*
X1098Y240D02*
X1107Y240D01*
X1137Y240D02*
X1146Y240D01*
X1169Y240D02*
X1180Y240D01*
X1208Y240D02*
X1217Y240D01*
X1240Y240D02*
X1249Y240D01*
X1259Y240D02*
X1268Y240D01*
X1280Y240D02*
X1289Y240D01*
X1311Y240D02*
X1320Y240D01*
X1350Y240D02*
X1359Y240D01*
X1381Y240D02*
X1390Y240D01*
X1420Y240D02*
X1429Y240D01*
X1472Y240D02*
X1481Y240D01*
X1529Y240D02*
X1571Y240D01*
X1692Y240D02*
X1700Y240D01*
X1755Y240D02*
X1764Y240D01*
X1806Y240D02*
X1815Y240D01*
X1845Y240D02*
X1854Y240D01*
X1916Y240D02*
X1925Y240D01*
X268Y239D02*
X277Y239D01*
X322Y239D02*
X331Y239D01*
X355Y239D02*
X365Y239D01*
X390Y239D02*
X399Y239D01*
X429Y239D02*
X438Y239D01*
X541Y239D02*
X556Y239D01*
X622Y239D02*
X631Y239D01*
X673Y239D02*
X682Y239D01*
X712Y239D02*
X721Y239D01*
X747Y239D02*
X792Y239D01*
X915Y239D02*
X924Y239D01*
X983Y239D02*
X1001Y239D01*
X1047Y239D02*
X1056Y239D01*
X1098Y239D02*
X1107Y239D01*
X1137Y239D02*
X1146Y239D01*
X1169Y239D02*
X1179Y239D01*
X1208Y239D02*
X1217Y239D01*
X1240Y239D02*
X1249Y239D01*
X1259Y239D02*
X1268Y239D01*
X1280Y239D02*
X1289Y239D01*
X1311Y239D02*
X1320Y239D01*
X1350Y239D02*
X1359Y239D01*
X1381Y239D02*
X1390Y239D01*
X1420Y239D02*
X1429Y239D01*
X1472Y239D02*
X1481Y239D01*
X1528Y239D02*
X1571Y239D01*
X1692Y239D02*
X1700Y239D01*
X1755Y239D02*
X1764Y239D01*
X1806Y239D02*
X1815Y239D01*
X1845Y239D02*
X1854Y239D01*
X1916Y239D02*
X1925Y239D01*
X268Y238D02*
X277Y238D01*
X322Y238D02*
X332Y238D01*
X355Y238D02*
X365Y238D01*
X390Y238D02*
X399Y238D01*
X429Y238D02*
X438Y238D01*
X542Y238D02*
X557Y238D01*
X622Y238D02*
X631Y238D01*
X673Y238D02*
X682Y238D01*
X712Y238D02*
X721Y238D01*
X748Y238D02*
X792Y238D01*
X915Y238D02*
X924Y238D01*
X980Y238D02*
X1000Y238D01*
X1047Y238D02*
X1056Y238D01*
X1098Y238D02*
X1107Y238D01*
X1137Y238D02*
X1146Y238D01*
X1169Y238D02*
X1178Y238D01*
X1208Y238D02*
X1217Y238D01*
X1240Y238D02*
X1249Y238D01*
X1259Y238D02*
X1268Y238D01*
X1280Y238D02*
X1289Y238D01*
X1311Y238D02*
X1320Y238D01*
X1350Y238D02*
X1359Y238D01*
X1381Y238D02*
X1390Y238D01*
X1420Y238D02*
X1429Y238D01*
X1472Y238D02*
X1481Y238D01*
X1527Y238D02*
X1571Y238D01*
X1692Y238D02*
X1700Y238D01*
X1755Y238D02*
X1764Y238D01*
X1806Y238D02*
X1815Y238D01*
X1845Y238D02*
X1854Y238D01*
X1916Y238D02*
X1925Y238D01*
X251Y237D02*
X255Y237D01*
X268Y237D02*
X277Y237D01*
X323Y237D02*
X332Y237D01*
X354Y237D02*
X364Y237D01*
X390Y237D02*
X399Y237D01*
X429Y237D02*
X438Y237D01*
X544Y237D02*
X558Y237D01*
X605Y237D02*
X609Y237D01*
X622Y237D02*
X631Y237D01*
X673Y237D02*
X682Y237D01*
X712Y237D02*
X721Y237D01*
X750Y237D02*
X792Y237D01*
X915Y237D02*
X924Y237D01*
X978Y237D02*
X1000Y237D01*
X1047Y237D02*
X1056Y237D01*
X1098Y237D02*
X1107Y237D01*
X1137Y237D02*
X1146Y237D01*
X1169Y237D02*
X1178Y237D01*
X1208Y237D02*
X1217Y237D01*
X1240Y237D02*
X1249Y237D01*
X1259Y237D02*
X1268Y237D01*
X1280Y237D02*
X1289Y237D01*
X1311Y237D02*
X1320Y237D01*
X1350Y237D02*
X1359Y237D01*
X1381Y237D02*
X1390Y237D01*
X1420Y237D02*
X1429Y237D01*
X1472Y237D02*
X1481Y237D01*
X1526Y237D02*
X1571Y237D01*
X1692Y237D02*
X1700Y237D01*
X1755Y237D02*
X1764Y237D01*
X1806Y237D02*
X1815Y237D01*
X1845Y237D02*
X1854Y237D01*
X1916Y237D02*
X1925Y237D01*
X250Y236D02*
X256Y236D01*
X268Y236D02*
X277Y236D01*
X323Y236D02*
X333Y236D01*
X354Y236D02*
X364Y236D01*
X390Y236D02*
X399Y236D01*
X429Y236D02*
X438Y236D01*
X545Y236D02*
X559Y236D01*
X604Y236D02*
X610Y236D01*
X622Y236D02*
X631Y236D01*
X673Y236D02*
X682Y236D01*
X712Y236D02*
X721Y236D01*
X783Y236D02*
X792Y236D01*
X915Y236D02*
X924Y236D01*
X976Y236D02*
X999Y236D01*
X1047Y236D02*
X1056Y236D01*
X1098Y236D02*
X1107Y236D01*
X1137Y236D02*
X1146Y236D01*
X1169Y236D02*
X1178Y236D01*
X1208Y236D02*
X1217Y236D01*
X1240Y236D02*
X1249Y236D01*
X1259Y236D02*
X1268Y236D01*
X1280Y236D02*
X1289Y236D01*
X1311Y236D02*
X1320Y236D01*
X1350Y236D02*
X1359Y236D01*
X1381Y236D02*
X1390Y236D01*
X1420Y236D02*
X1429Y236D01*
X1472Y236D02*
X1481Y236D01*
X1526Y236D02*
X1541Y236D01*
X1562Y236D02*
X1571Y236D01*
X1692Y236D02*
X1700Y236D01*
X1755Y236D02*
X1764Y236D01*
X1806Y236D02*
X1815Y236D01*
X1845Y236D02*
X1854Y236D01*
X1916Y236D02*
X1925Y236D01*
X249Y235D02*
X257Y235D01*
X268Y235D02*
X277Y235D01*
X323Y235D02*
X333Y235D01*
X353Y235D02*
X363Y235D01*
X390Y235D02*
X399Y235D01*
X429Y235D02*
X438Y235D01*
X546Y235D02*
X560Y235D01*
X603Y235D02*
X611Y235D01*
X622Y235D02*
X631Y235D01*
X673Y235D02*
X682Y235D01*
X712Y235D02*
X721Y235D01*
X783Y235D02*
X792Y235D01*
X915Y235D02*
X924Y235D01*
X974Y235D02*
X997Y235D01*
X1047Y235D02*
X1056Y235D01*
X1098Y235D02*
X1107Y235D01*
X1137Y235D02*
X1146Y235D01*
X1169Y235D02*
X1178Y235D01*
X1208Y235D02*
X1217Y235D01*
X1240Y235D02*
X1249Y235D01*
X1259Y235D02*
X1268Y235D01*
X1280Y235D02*
X1289Y235D01*
X1311Y235D02*
X1320Y235D01*
X1350Y235D02*
X1359Y235D01*
X1381Y235D02*
X1390Y235D01*
X1420Y235D02*
X1429Y235D01*
X1472Y235D02*
X1481Y235D01*
X1525Y235D02*
X1537Y235D01*
X1562Y235D02*
X1571Y235D01*
X1692Y235D02*
X1700Y235D01*
X1755Y235D02*
X1764Y235D01*
X1806Y235D02*
X1815Y235D01*
X1845Y235D02*
X1854Y235D01*
X1916Y235D02*
X1925Y235D01*
X249Y234D02*
X257Y234D01*
X268Y234D02*
X277Y234D01*
X324Y234D02*
X334Y234D01*
X353Y234D02*
X363Y234D01*
X390Y234D02*
X399Y234D01*
X429Y234D02*
X438Y234D01*
X547Y234D02*
X560Y234D01*
X603Y234D02*
X611Y234D01*
X622Y234D02*
X631Y234D01*
X673Y234D02*
X682Y234D01*
X712Y234D02*
X721Y234D01*
X783Y234D02*
X792Y234D01*
X915Y234D02*
X924Y234D01*
X971Y234D02*
X995Y234D01*
X1047Y234D02*
X1056Y234D01*
X1098Y234D02*
X1107Y234D01*
X1137Y234D02*
X1146Y234D01*
X1169Y234D02*
X1178Y234D01*
X1208Y234D02*
X1217Y234D01*
X1240Y234D02*
X1249Y234D01*
X1259Y234D02*
X1268Y234D01*
X1280Y234D02*
X1289Y234D01*
X1311Y234D02*
X1320Y234D01*
X1350Y234D02*
X1359Y234D01*
X1381Y234D02*
X1390Y234D01*
X1420Y234D02*
X1429Y234D01*
X1472Y234D02*
X1481Y234D01*
X1525Y234D02*
X1536Y234D01*
X1562Y234D02*
X1571Y234D01*
X1692Y234D02*
X1700Y234D01*
X1755Y234D02*
X1764Y234D01*
X1806Y234D02*
X1815Y234D01*
X1845Y234D02*
X1854Y234D01*
X1916Y234D02*
X1925Y234D01*
X249Y233D02*
X257Y233D01*
X268Y233D02*
X277Y233D01*
X324Y233D02*
X334Y233D01*
X353Y233D02*
X362Y233D01*
X390Y233D02*
X399Y233D01*
X429Y233D02*
X438Y233D01*
X548Y233D02*
X560Y233D01*
X603Y233D02*
X611Y233D01*
X622Y233D02*
X631Y233D01*
X673Y233D02*
X682Y233D01*
X712Y233D02*
X721Y233D01*
X783Y233D02*
X792Y233D01*
X915Y233D02*
X924Y233D01*
X969Y233D02*
X993Y233D01*
X1047Y233D02*
X1056Y233D01*
X1098Y233D02*
X1107Y233D01*
X1137Y233D02*
X1145Y233D01*
X1169Y233D02*
X1178Y233D01*
X1208Y233D02*
X1217Y233D01*
X1240Y233D02*
X1249Y233D01*
X1259Y233D02*
X1268Y233D01*
X1280Y233D02*
X1289Y233D01*
X1311Y233D02*
X1320Y233D01*
X1350Y233D02*
X1359Y233D01*
X1381Y233D02*
X1390Y233D01*
X1420Y233D02*
X1429Y233D01*
X1472Y233D02*
X1481Y233D01*
X1524Y233D02*
X1535Y233D01*
X1562Y233D02*
X1571Y233D01*
X1692Y233D02*
X1700Y233D01*
X1755Y233D02*
X1764Y233D01*
X1806Y233D02*
X1854Y233D01*
X1916Y233D02*
X1925Y233D01*
X249Y232D02*
X257Y232D01*
X268Y232D02*
X277Y232D01*
X325Y232D02*
X335Y232D01*
X352Y232D02*
X362Y232D01*
X390Y232D02*
X399Y232D01*
X429Y232D02*
X438Y232D01*
X549Y232D02*
X560Y232D01*
X603Y232D02*
X611Y232D01*
X622Y232D02*
X631Y232D01*
X673Y232D02*
X682Y232D01*
X712Y232D02*
X721Y232D01*
X783Y232D02*
X792Y232D01*
X915Y232D02*
X924Y232D01*
X967Y232D02*
X990Y232D01*
X1047Y232D02*
X1056Y232D01*
X1098Y232D02*
X1107Y232D01*
X1137Y232D02*
X1145Y232D01*
X1169Y232D02*
X1178Y232D01*
X1208Y232D02*
X1217Y232D01*
X1240Y232D02*
X1249Y232D01*
X1259Y232D02*
X1268Y232D01*
X1280Y232D02*
X1289Y232D01*
X1311Y232D02*
X1320Y232D01*
X1350Y232D02*
X1359Y232D01*
X1381Y232D02*
X1390Y232D01*
X1420Y232D02*
X1429Y232D01*
X1472Y232D02*
X1481Y232D01*
X1524Y232D02*
X1534Y232D01*
X1562Y232D02*
X1571Y232D01*
X1692Y232D02*
X1700Y232D01*
X1755Y232D02*
X1764Y232D01*
X1806Y232D02*
X1854Y232D01*
X1916Y232D02*
X1925Y232D01*
X249Y231D02*
X257Y231D01*
X268Y231D02*
X277Y231D01*
X325Y231D02*
X335Y231D01*
X352Y231D02*
X362Y231D01*
X390Y231D02*
X399Y231D01*
X429Y231D02*
X438Y231D01*
X551Y231D02*
X560Y231D01*
X603Y231D02*
X611Y231D01*
X622Y231D02*
X631Y231D01*
X673Y231D02*
X682Y231D01*
X712Y231D02*
X721Y231D01*
X783Y231D02*
X792Y231D01*
X915Y231D02*
X924Y231D01*
X965Y231D02*
X988Y231D01*
X1047Y231D02*
X1056Y231D01*
X1098Y231D02*
X1107Y231D01*
X1137Y231D02*
X1145Y231D01*
X1169Y231D02*
X1178Y231D01*
X1208Y231D02*
X1217Y231D01*
X1240Y231D02*
X1249Y231D01*
X1259Y231D02*
X1268Y231D01*
X1280Y231D02*
X1289Y231D01*
X1311Y231D02*
X1320Y231D01*
X1350Y231D02*
X1359Y231D01*
X1381Y231D02*
X1390Y231D01*
X1420Y231D02*
X1429Y231D01*
X1472Y231D02*
X1481Y231D01*
X1524Y231D02*
X1533Y231D01*
X1562Y231D02*
X1571Y231D01*
X1692Y231D02*
X1700Y231D01*
X1755Y231D02*
X1764Y231D01*
X1806Y231D02*
X1854Y231D01*
X1916Y231D02*
X1925Y231D01*
X249Y230D02*
X257Y230D01*
X268Y230D02*
X277Y230D01*
X326Y230D02*
X335Y230D01*
X351Y230D02*
X361Y230D01*
X390Y230D02*
X399Y230D01*
X429Y230D02*
X438Y230D01*
X551Y230D02*
X560Y230D01*
X603Y230D02*
X611Y230D01*
X622Y230D02*
X631Y230D01*
X673Y230D02*
X682Y230D01*
X712Y230D02*
X721Y230D01*
X783Y230D02*
X792Y230D01*
X915Y230D02*
X924Y230D01*
X963Y230D02*
X986Y230D01*
X1047Y230D02*
X1056Y230D01*
X1098Y230D02*
X1107Y230D01*
X1136Y230D02*
X1145Y230D01*
X1169Y230D02*
X1178Y230D01*
X1208Y230D02*
X1217Y230D01*
X1240Y230D02*
X1249Y230D01*
X1259Y230D02*
X1268Y230D01*
X1280Y230D02*
X1289Y230D01*
X1311Y230D02*
X1320Y230D01*
X1350Y230D02*
X1359Y230D01*
X1381Y230D02*
X1390Y230D01*
X1420Y230D02*
X1429Y230D01*
X1472Y230D02*
X1481Y230D01*
X1523Y230D02*
X1533Y230D01*
X1562Y230D02*
X1571Y230D01*
X1692Y230D02*
X1700Y230D01*
X1755Y230D02*
X1764Y230D01*
X1806Y230D02*
X1854Y230D01*
X1916Y230D02*
X1925Y230D01*
X249Y229D02*
X257Y229D01*
X268Y229D02*
X277Y229D01*
X326Y229D02*
X336Y229D01*
X351Y229D02*
X361Y229D01*
X390Y229D02*
X399Y229D01*
X429Y229D02*
X438Y229D01*
X551Y229D02*
X560Y229D01*
X603Y229D02*
X611Y229D01*
X622Y229D02*
X631Y229D01*
X673Y229D02*
X682Y229D01*
X712Y229D02*
X721Y229D01*
X783Y229D02*
X792Y229D01*
X915Y229D02*
X924Y229D01*
X962Y229D02*
X984Y229D01*
X1047Y229D02*
X1056Y229D01*
X1098Y229D02*
X1107Y229D01*
X1136Y229D02*
X1145Y229D01*
X1169Y229D02*
X1178Y229D01*
X1208Y229D02*
X1217Y229D01*
X1240Y229D02*
X1249Y229D01*
X1259Y229D02*
X1268Y229D01*
X1280Y229D02*
X1289Y229D01*
X1311Y229D02*
X1320Y229D01*
X1350Y229D02*
X1359Y229D01*
X1381Y229D02*
X1390Y229D01*
X1420Y229D02*
X1429Y229D01*
X1472Y229D02*
X1481Y229D01*
X1523Y229D02*
X1532Y229D01*
X1562Y229D02*
X1571Y229D01*
X1692Y229D02*
X1700Y229D01*
X1755Y229D02*
X1764Y229D01*
X1806Y229D02*
X1854Y229D01*
X1916Y229D02*
X1925Y229D01*
X249Y228D02*
X257Y228D01*
X268Y228D02*
X277Y228D01*
X326Y228D02*
X336Y228D01*
X350Y228D02*
X360Y228D01*
X390Y228D02*
X399Y228D01*
X429Y228D02*
X438Y228D01*
X551Y228D02*
X560Y228D01*
X603Y228D02*
X611Y228D01*
X622Y228D02*
X631Y228D01*
X673Y228D02*
X682Y228D01*
X712Y228D02*
X721Y228D01*
X783Y228D02*
X792Y228D01*
X915Y228D02*
X924Y228D01*
X961Y228D02*
X981Y228D01*
X1047Y228D02*
X1056Y228D01*
X1098Y228D02*
X1107Y228D01*
X1136Y228D02*
X1145Y228D01*
X1169Y228D02*
X1178Y228D01*
X1208Y228D02*
X1217Y228D01*
X1240Y228D02*
X1249Y228D01*
X1259Y228D02*
X1268Y228D01*
X1280Y228D02*
X1289Y228D01*
X1311Y228D02*
X1320Y228D01*
X1350Y228D02*
X1359Y228D01*
X1381Y228D02*
X1390Y228D01*
X1420Y228D02*
X1429Y228D01*
X1472Y228D02*
X1481Y228D01*
X1523Y228D02*
X1532Y228D01*
X1562Y228D02*
X1571Y228D01*
X1692Y228D02*
X1700Y228D01*
X1755Y228D02*
X1764Y228D01*
X1806Y228D02*
X1854Y228D01*
X1916Y228D02*
X1925Y228D01*
X249Y227D02*
X257Y227D01*
X268Y227D02*
X277Y227D01*
X327Y227D02*
X337Y227D01*
X350Y227D02*
X360Y227D01*
X390Y227D02*
X399Y227D01*
X429Y227D02*
X438Y227D01*
X551Y227D02*
X560Y227D01*
X603Y227D02*
X611Y227D01*
X622Y227D02*
X631Y227D01*
X673Y227D02*
X682Y227D01*
X712Y227D02*
X721Y227D01*
X783Y227D02*
X792Y227D01*
X915Y227D02*
X924Y227D01*
X960Y227D02*
X979Y227D01*
X1047Y227D02*
X1056Y227D01*
X1098Y227D02*
X1107Y227D01*
X1136Y227D02*
X1145Y227D01*
X1169Y227D02*
X1178Y227D01*
X1208Y227D02*
X1217Y227D01*
X1240Y227D02*
X1249Y227D01*
X1259Y227D02*
X1268Y227D01*
X1280Y227D02*
X1289Y227D01*
X1311Y227D02*
X1320Y227D01*
X1350Y227D02*
X1359Y227D01*
X1381Y227D02*
X1390Y227D01*
X1420Y227D02*
X1429Y227D01*
X1472Y227D02*
X1481Y227D01*
X1523Y227D02*
X1532Y227D01*
X1562Y227D02*
X1571Y227D01*
X1692Y227D02*
X1700Y227D01*
X1755Y227D02*
X1764Y227D01*
X1807Y227D02*
X1854Y227D01*
X1916Y227D02*
X1925Y227D01*
X249Y226D02*
X257Y226D01*
X268Y226D02*
X277Y226D01*
X327Y226D02*
X337Y226D01*
X350Y226D02*
X359Y226D01*
X390Y226D02*
X399Y226D01*
X429Y226D02*
X438Y226D01*
X551Y226D02*
X560Y226D01*
X603Y226D02*
X611Y226D01*
X622Y226D02*
X631Y226D01*
X673Y226D02*
X682Y226D01*
X712Y226D02*
X721Y226D01*
X783Y226D02*
X792Y226D01*
X915Y226D02*
X924Y226D01*
X959Y226D02*
X977Y226D01*
X1047Y226D02*
X1056Y226D01*
X1098Y226D02*
X1107Y226D01*
X1136Y226D02*
X1145Y226D01*
X1169Y226D02*
X1178Y226D01*
X1208Y226D02*
X1217Y226D01*
X1240Y226D02*
X1249Y226D01*
X1259Y226D02*
X1268Y226D01*
X1280Y226D02*
X1289Y226D01*
X1311Y226D02*
X1320Y226D01*
X1350Y226D02*
X1359Y226D01*
X1381Y226D02*
X1390Y226D01*
X1420Y226D02*
X1429Y226D01*
X1472Y226D02*
X1481Y226D01*
X1523Y226D02*
X1532Y226D01*
X1562Y226D02*
X1571Y226D01*
X1692Y226D02*
X1700Y226D01*
X1755Y226D02*
X1764Y226D01*
X1807Y226D02*
X1854Y226D01*
X1916Y226D02*
X1925Y226D01*
X249Y225D02*
X257Y225D01*
X268Y225D02*
X277Y225D01*
X328Y225D02*
X338Y225D01*
X349Y225D02*
X359Y225D01*
X390Y225D02*
X399Y225D01*
X429Y225D02*
X438Y225D01*
X551Y225D02*
X560Y225D01*
X603Y225D02*
X611Y225D01*
X622Y225D02*
X631Y225D01*
X673Y225D02*
X682Y225D01*
X712Y225D02*
X721Y225D01*
X783Y225D02*
X792Y225D01*
X915Y225D02*
X924Y225D01*
X959Y225D02*
X974Y225D01*
X1047Y225D02*
X1056Y225D01*
X1098Y225D02*
X1107Y225D01*
X1136Y225D02*
X1145Y225D01*
X1169Y225D02*
X1178Y225D01*
X1208Y225D02*
X1217Y225D01*
X1240Y225D02*
X1249Y225D01*
X1259Y225D02*
X1268Y225D01*
X1280Y225D02*
X1289Y225D01*
X1311Y225D02*
X1320Y225D01*
X1350Y225D02*
X1359Y225D01*
X1381Y225D02*
X1390Y225D01*
X1420Y225D02*
X1429Y225D01*
X1472Y225D02*
X1481Y225D01*
X1523Y225D02*
X1532Y225D01*
X1562Y225D02*
X1571Y225D01*
X1692Y225D02*
X1700Y225D01*
X1755Y225D02*
X1764Y225D01*
X1808Y225D02*
X1854Y225D01*
X1916Y225D02*
X1925Y225D01*
X249Y224D02*
X257Y224D01*
X268Y224D02*
X277Y224D01*
X328Y224D02*
X338Y224D01*
X349Y224D02*
X359Y224D01*
X390Y224D02*
X399Y224D01*
X429Y224D02*
X438Y224D01*
X551Y224D02*
X560Y224D01*
X603Y224D02*
X611Y224D01*
X622Y224D02*
X631Y224D01*
X673Y224D02*
X682Y224D01*
X712Y224D02*
X721Y224D01*
X783Y224D02*
X792Y224D01*
X915Y224D02*
X924Y224D01*
X958Y224D02*
X972Y224D01*
X1047Y224D02*
X1056Y224D01*
X1098Y224D02*
X1107Y224D01*
X1136Y224D02*
X1145Y224D01*
X1169Y224D02*
X1178Y224D01*
X1208Y224D02*
X1217Y224D01*
X1240Y224D02*
X1249Y224D01*
X1259Y224D02*
X1268Y224D01*
X1280Y224D02*
X1289Y224D01*
X1311Y224D02*
X1320Y224D01*
X1350Y224D02*
X1359Y224D01*
X1381Y224D02*
X1390Y224D01*
X1420Y224D02*
X1429Y224D01*
X1472Y224D02*
X1481Y224D01*
X1523Y224D02*
X1532Y224D01*
X1562Y224D02*
X1571Y224D01*
X1692Y224D02*
X1700Y224D01*
X1755Y224D02*
X1764Y224D01*
X1809Y224D02*
X1854Y224D01*
X1916Y224D02*
X1925Y224D01*
X249Y223D02*
X257Y223D01*
X268Y223D02*
X277Y223D01*
X329Y223D02*
X338Y223D01*
X348Y223D02*
X358Y223D01*
X390Y223D02*
X399Y223D01*
X429Y223D02*
X438Y223D01*
X551Y223D02*
X560Y223D01*
X603Y223D02*
X611Y223D01*
X622Y223D02*
X631Y223D01*
X673Y223D02*
X682Y223D01*
X712Y223D02*
X721Y223D01*
X783Y223D02*
X792Y223D01*
X915Y223D02*
X924Y223D01*
X958Y223D02*
X970Y223D01*
X1047Y223D02*
X1056Y223D01*
X1098Y223D02*
X1107Y223D01*
X1136Y223D02*
X1145Y223D01*
X1169Y223D02*
X1178Y223D01*
X1208Y223D02*
X1217Y223D01*
X1240Y223D02*
X1249Y223D01*
X1259Y223D02*
X1268Y223D01*
X1280Y223D02*
X1289Y223D01*
X1311Y223D02*
X1320Y223D01*
X1350Y223D02*
X1359Y223D01*
X1381Y223D02*
X1390Y223D01*
X1420Y223D02*
X1429Y223D01*
X1472Y223D02*
X1481Y223D01*
X1523Y223D02*
X1532Y223D01*
X1562Y223D02*
X1571Y223D01*
X1692Y223D02*
X1700Y223D01*
X1755Y223D02*
X1764Y223D01*
X1845Y223D02*
X1854Y223D01*
X1916Y223D02*
X1925Y223D01*
X249Y222D02*
X257Y222D01*
X268Y222D02*
X277Y222D01*
X329Y222D02*
X339Y222D01*
X348Y222D02*
X358Y222D01*
X390Y222D02*
X399Y222D01*
X429Y222D02*
X438Y222D01*
X551Y222D02*
X560Y222D01*
X603Y222D02*
X611Y222D01*
X622Y222D02*
X631Y222D01*
X673Y222D02*
X682Y222D01*
X712Y222D02*
X721Y222D01*
X783Y222D02*
X792Y222D01*
X915Y222D02*
X924Y222D01*
X957Y222D02*
X968Y222D01*
X1047Y222D02*
X1056Y222D01*
X1098Y222D02*
X1108Y222D01*
X1136Y222D02*
X1145Y222D01*
X1169Y222D02*
X1179Y222D01*
X1208Y222D02*
X1217Y222D01*
X1240Y222D02*
X1249Y222D01*
X1259Y222D02*
X1268Y222D01*
X1280Y222D02*
X1289Y222D01*
X1311Y222D02*
X1320Y222D01*
X1350Y222D02*
X1359Y222D01*
X1381Y222D02*
X1390Y222D01*
X1420Y222D02*
X1429Y222D01*
X1472Y222D02*
X1481Y222D01*
X1523Y222D02*
X1532Y222D01*
X1562Y222D02*
X1571Y222D01*
X1692Y222D02*
X1700Y222D01*
X1755Y222D02*
X1764Y222D01*
X1845Y222D02*
X1854Y222D01*
X1916Y222D02*
X1925Y222D01*
X249Y221D02*
X257Y221D01*
X268Y221D02*
X277Y221D01*
X330Y221D02*
X339Y221D01*
X347Y221D02*
X357Y221D01*
X390Y221D02*
X399Y221D01*
X429Y221D02*
X438Y221D01*
X551Y221D02*
X560Y221D01*
X603Y221D02*
X611Y221D01*
X622Y221D02*
X631Y221D01*
X673Y221D02*
X682Y221D01*
X712Y221D02*
X721Y221D01*
X783Y221D02*
X792Y221D01*
X915Y221D02*
X924Y221D01*
X957Y221D02*
X967Y221D01*
X1047Y221D02*
X1056Y221D01*
X1098Y221D02*
X1110Y221D01*
X1136Y221D02*
X1145Y221D01*
X1169Y221D02*
X1180Y221D01*
X1208Y221D02*
X1217Y221D01*
X1240Y221D02*
X1248Y221D01*
X1259Y221D02*
X1268Y221D01*
X1280Y221D02*
X1289Y221D01*
X1311Y221D02*
X1320Y221D01*
X1350Y221D02*
X1359Y221D01*
X1381Y221D02*
X1390Y221D01*
X1420Y221D02*
X1429Y221D01*
X1472Y221D02*
X1481Y221D01*
X1523Y221D02*
X1532Y221D01*
X1562Y221D02*
X1571Y221D01*
X1692Y221D02*
X1700Y221D01*
X1755Y221D02*
X1764Y221D01*
X1845Y221D02*
X1854Y221D01*
X1916Y221D02*
X1925Y221D01*
X249Y220D02*
X257Y220D01*
X268Y220D02*
X277Y220D01*
X330Y220D02*
X340Y220D01*
X347Y220D02*
X357Y220D01*
X390Y220D02*
X399Y220D01*
X429Y220D02*
X438Y220D01*
X551Y220D02*
X560Y220D01*
X603Y220D02*
X611Y220D01*
X622Y220D02*
X631Y220D01*
X673Y220D02*
X682Y220D01*
X712Y220D02*
X721Y220D01*
X783Y220D02*
X792Y220D01*
X888Y220D02*
X892Y220D01*
X915Y220D02*
X924Y220D01*
X957Y220D02*
X966Y220D01*
X1047Y220D02*
X1056Y220D01*
X1098Y220D02*
X1112Y220D01*
X1136Y220D02*
X1145Y220D01*
X1169Y220D02*
X1181Y220D01*
X1208Y220D02*
X1217Y220D01*
X1240Y220D02*
X1248Y220D01*
X1259Y220D02*
X1268Y220D01*
X1280Y220D02*
X1289Y220D01*
X1311Y220D02*
X1320Y220D01*
X1350Y220D02*
X1359Y220D01*
X1381Y220D02*
X1390Y220D01*
X1420Y220D02*
X1429Y220D01*
X1472Y220D02*
X1481Y220D01*
X1523Y220D02*
X1532Y220D01*
X1562Y220D02*
X1571Y220D01*
X1692Y220D02*
X1700Y220D01*
X1755Y220D02*
X1764Y220D01*
X1845Y220D02*
X1854Y220D01*
X1916Y220D02*
X1925Y220D01*
X249Y219D02*
X257Y219D01*
X268Y219D02*
X277Y219D01*
X330Y219D02*
X340Y219D01*
X347Y219D02*
X356Y219D01*
X390Y219D02*
X399Y219D01*
X429Y219D02*
X438Y219D01*
X551Y219D02*
X560Y219D01*
X603Y219D02*
X611Y219D01*
X622Y219D02*
X631Y219D01*
X673Y219D02*
X682Y219D01*
X712Y219D02*
X721Y219D01*
X783Y219D02*
X792Y219D01*
X887Y219D02*
X893Y219D01*
X915Y219D02*
X924Y219D01*
X957Y219D02*
X966Y219D01*
X1047Y219D02*
X1056Y219D01*
X1098Y219D02*
X1113Y219D01*
X1136Y219D02*
X1145Y219D01*
X1169Y219D02*
X1182Y219D01*
X1208Y219D02*
X1217Y219D01*
X1240Y219D02*
X1248Y219D01*
X1259Y219D02*
X1268Y219D01*
X1280Y219D02*
X1289Y219D01*
X1311Y219D02*
X1320Y219D01*
X1349Y219D02*
X1358Y219D01*
X1381Y219D02*
X1391Y219D01*
X1420Y219D02*
X1429Y219D01*
X1472Y219D02*
X1481Y219D01*
X1523Y219D02*
X1533Y219D01*
X1562Y219D02*
X1571Y219D01*
X1692Y219D02*
X1700Y219D01*
X1755Y219D02*
X1764Y219D01*
X1845Y219D02*
X1854Y219D01*
X1916Y219D02*
X1925Y219D01*
X249Y218D02*
X257Y218D01*
X268Y218D02*
X277Y218D01*
X331Y218D02*
X341Y218D01*
X346Y218D02*
X356Y218D01*
X390Y218D02*
X399Y218D01*
X429Y218D02*
X438Y218D01*
X551Y218D02*
X560Y218D01*
X603Y218D02*
X611Y218D01*
X622Y218D02*
X631Y218D01*
X673Y218D02*
X682Y218D01*
X712Y218D02*
X721Y218D01*
X783Y218D02*
X792Y218D01*
X886Y218D02*
X894Y218D01*
X915Y218D02*
X924Y218D01*
X957Y218D02*
X966Y218D01*
X1047Y218D02*
X1056Y218D01*
X1098Y218D02*
X1115Y218D01*
X1136Y218D02*
X1145Y218D01*
X1169Y218D02*
X1183Y218D01*
X1207Y218D02*
X1217Y218D01*
X1239Y218D02*
X1248Y218D01*
X1259Y218D02*
X1268Y218D01*
X1280Y218D02*
X1289Y218D01*
X1311Y218D02*
X1320Y218D01*
X1349Y218D02*
X1358Y218D01*
X1382Y218D02*
X1391Y218D01*
X1420Y218D02*
X1429Y218D01*
X1472Y218D02*
X1481Y218D01*
X1524Y218D02*
X1533Y218D01*
X1562Y218D02*
X1571Y218D01*
X1692Y218D02*
X1700Y218D01*
X1755Y218D02*
X1764Y218D01*
X1844Y218D02*
X1854Y218D01*
X1916Y218D02*
X1925Y218D01*
X249Y217D02*
X257Y217D01*
X268Y217D02*
X277Y217D01*
X331Y217D02*
X341Y217D01*
X346Y217D02*
X355Y217D01*
X390Y217D02*
X399Y217D01*
X429Y217D02*
X438Y217D01*
X551Y217D02*
X560Y217D01*
X603Y217D02*
X611Y217D01*
X622Y217D02*
X631Y217D01*
X673Y217D02*
X682Y217D01*
X712Y217D02*
X721Y217D01*
X783Y217D02*
X792Y217D01*
X886Y217D02*
X895Y217D01*
X915Y217D02*
X924Y217D01*
X957Y217D02*
X966Y217D01*
X1047Y217D02*
X1056Y217D01*
X1098Y217D02*
X1116Y217D01*
X1136Y217D02*
X1145Y217D01*
X1169Y217D02*
X1184Y217D01*
X1207Y217D02*
X1217Y217D01*
X1239Y217D02*
X1248Y217D01*
X1259Y217D02*
X1268Y217D01*
X1280Y217D02*
X1289Y217D01*
X1311Y217D02*
X1321Y217D01*
X1348Y217D02*
X1358Y217D01*
X1382Y217D02*
X1392Y217D01*
X1419Y217D02*
X1429Y217D01*
X1472Y217D02*
X1481Y217D01*
X1524Y217D02*
X1534Y217D01*
X1562Y217D02*
X1571Y217D01*
X1692Y217D02*
X1700Y217D01*
X1755Y217D02*
X1764Y217D01*
X1844Y217D02*
X1854Y217D01*
X1916Y217D02*
X1925Y217D01*
X249Y216D02*
X257Y216D01*
X268Y216D02*
X277Y216D01*
X332Y216D02*
X342Y216D01*
X345Y216D02*
X355Y216D01*
X390Y216D02*
X399Y216D01*
X429Y216D02*
X438Y216D01*
X551Y216D02*
X560Y216D01*
X603Y216D02*
X611Y216D01*
X622Y216D02*
X631Y216D01*
X673Y216D02*
X682Y216D01*
X712Y216D02*
X721Y216D01*
X783Y216D02*
X792Y216D01*
X886Y216D02*
X895Y216D01*
X915Y216D02*
X924Y216D01*
X957Y216D02*
X966Y216D01*
X998Y216D02*
X1002Y216D01*
X1047Y216D02*
X1056Y216D01*
X1098Y216D02*
X1118Y216D01*
X1136Y216D02*
X1145Y216D01*
X1169Y216D02*
X1186Y216D01*
X1206Y216D02*
X1216Y216D01*
X1239Y216D02*
X1248Y216D01*
X1259Y216D02*
X1268Y216D01*
X1280Y216D02*
X1289Y216D01*
X1311Y216D02*
X1322Y216D01*
X1347Y216D02*
X1358Y216D01*
X1382Y216D02*
X1393Y216D01*
X1418Y216D02*
X1429Y216D01*
X1472Y216D02*
X1481Y216D01*
X1524Y216D02*
X1535Y216D01*
X1562Y216D02*
X1571Y216D01*
X1692Y216D02*
X1700Y216D01*
X1755Y216D02*
X1764Y216D01*
X1843Y216D02*
X1853Y216D01*
X1916Y216D02*
X1925Y216D01*
X249Y215D02*
X257Y215D01*
X268Y215D02*
X277Y215D01*
X332Y215D02*
X342Y215D01*
X345Y215D02*
X355Y215D01*
X390Y215D02*
X399Y215D01*
X429Y215D02*
X438Y215D01*
X551Y215D02*
X560Y215D01*
X603Y215D02*
X611Y215D01*
X622Y215D02*
X631Y215D01*
X673Y215D02*
X682Y215D01*
X712Y215D02*
X721Y215D01*
X783Y215D02*
X792Y215D01*
X886Y215D02*
X896Y215D01*
X914Y215D02*
X924Y215D01*
X957Y215D02*
X967Y215D01*
X997Y215D02*
X1003Y215D01*
X1047Y215D02*
X1056Y215D01*
X1098Y215D02*
X1119Y215D01*
X1135Y215D02*
X1145Y215D01*
X1169Y215D02*
X1187Y215D01*
X1204Y215D02*
X1216Y215D01*
X1239Y215D02*
X1248Y215D01*
X1259Y215D02*
X1268Y215D01*
X1280Y215D02*
X1289Y215D01*
X1312Y215D02*
X1323Y215D01*
X1346Y215D02*
X1358Y215D01*
X1382Y215D02*
X1394Y215D01*
X1417Y215D02*
X1428Y215D01*
X1472Y215D02*
X1481Y215D01*
X1525Y215D02*
X1536Y215D01*
X1562Y215D02*
X1571Y215D01*
X1692Y215D02*
X1700Y215D01*
X1755Y215D02*
X1764Y215D01*
X1842Y215D02*
X1853Y215D01*
X1916Y215D02*
X1925Y215D01*
X249Y214D02*
X257Y214D01*
X268Y214D02*
X277Y214D01*
X333Y214D02*
X342Y214D01*
X344Y214D02*
X354Y214D01*
X390Y214D02*
X399Y214D01*
X429Y214D02*
X438Y214D01*
X551Y214D02*
X560Y214D01*
X603Y214D02*
X611Y214D01*
X622Y214D02*
X631Y214D01*
X673Y214D02*
X682Y214D01*
X712Y214D02*
X721Y214D01*
X783Y214D02*
X792Y214D01*
X886Y214D02*
X896Y214D01*
X914Y214D02*
X924Y214D01*
X957Y214D02*
X967Y214D01*
X995Y214D02*
X1004Y214D01*
X1047Y214D02*
X1056Y214D01*
X1098Y214D02*
X1121Y214D01*
X1134Y214D02*
X1145Y214D01*
X1169Y214D02*
X1188Y214D01*
X1203Y214D02*
X1216Y214D01*
X1239Y214D02*
X1248Y214D01*
X1259Y214D02*
X1268Y214D01*
X1280Y214D02*
X1289Y214D01*
X1312Y214D02*
X1325Y214D01*
X1345Y214D02*
X1357Y214D01*
X1383Y214D02*
X1395Y214D01*
X1415Y214D02*
X1428Y214D01*
X1472Y214D02*
X1481Y214D01*
X1525Y214D02*
X1537Y214D01*
X1562Y214D02*
X1571Y214D01*
X1692Y214D02*
X1700Y214D01*
X1755Y214D02*
X1764Y214D01*
X1840Y214D02*
X1853Y214D01*
X1916Y214D02*
X1925Y214D01*
X249Y213D02*
X258Y213D01*
X268Y213D02*
X277Y213D01*
X333Y213D02*
X354Y213D01*
X390Y213D02*
X399Y213D01*
X429Y213D02*
X438Y213D01*
X551Y213D02*
X560Y213D01*
X603Y213D02*
X612Y213D01*
X622Y213D02*
X631Y213D01*
X673Y213D02*
X682Y213D01*
X712Y213D02*
X721Y213D01*
X783Y213D02*
X792Y213D01*
X886Y213D02*
X898Y213D01*
X912Y213D02*
X923Y213D01*
X957Y213D02*
X969Y213D01*
X993Y213D02*
X1004Y213D01*
X1047Y213D02*
X1056Y213D01*
X1098Y213D02*
X1123Y213D01*
X1133Y213D02*
X1144Y213D01*
X1169Y213D02*
X1190Y213D01*
X1201Y213D02*
X1215Y213D01*
X1239Y213D02*
X1248Y213D01*
X1259Y213D02*
X1268Y213D01*
X1280Y213D02*
X1289Y213D01*
X1313Y213D02*
X1326Y213D01*
X1343Y213D02*
X1357Y213D01*
X1384Y213D02*
X1397Y213D01*
X1414Y213D02*
X1427Y213D01*
X1472Y213D02*
X1481Y213D01*
X1526Y213D02*
X1539Y213D01*
X1562Y213D02*
X1571Y213D01*
X1692Y213D02*
X1700Y213D01*
X1755Y213D02*
X1764Y213D01*
X1839Y213D02*
X1852Y213D01*
X1916Y213D02*
X1925Y213D01*
X249Y212D02*
X294Y212D01*
X333Y212D02*
X353Y212D01*
X390Y212D02*
X438Y212D01*
X551Y212D02*
X560Y212D01*
X603Y212D02*
X648Y212D01*
X673Y212D02*
X721Y212D01*
X747Y212D02*
X792Y212D01*
X887Y212D02*
X923Y212D01*
X958Y212D02*
X1004Y212D01*
X1035Y212D02*
X1068Y212D01*
X1098Y212D02*
X1144Y212D01*
X1169Y212D02*
X1214Y212D01*
X1239Y212D02*
X1248Y212D01*
X1259Y212D02*
X1268Y212D01*
X1280Y212D02*
X1289Y212D01*
X1313Y212D02*
X1356Y212D01*
X1384Y212D02*
X1427Y212D01*
X1460Y212D02*
X1493Y212D01*
X1526Y212D02*
X1571Y212D01*
X1692Y212D02*
X1700Y212D01*
X1743Y212D02*
X1776Y212D01*
X1809Y212D02*
X1852Y212D01*
X1880Y212D02*
X1925Y212D01*
X249Y211D02*
X295Y211D01*
X334Y211D02*
X353Y211D01*
X390Y211D02*
X438Y211D01*
X551Y211D02*
X560Y211D01*
X603Y211D02*
X649Y211D01*
X674Y211D02*
X721Y211D01*
X746Y211D02*
X792Y211D01*
X887Y211D02*
X922Y211D01*
X958Y211D02*
X1004Y211D01*
X1034Y211D02*
X1069Y211D01*
X1098Y211D02*
X1143Y211D01*
X1169Y211D02*
X1214Y211D01*
X1239Y211D02*
X1248Y211D01*
X1259Y211D02*
X1268Y211D01*
X1280Y211D02*
X1289Y211D01*
X1314Y211D02*
X1355Y211D01*
X1385Y211D02*
X1426Y211D01*
X1459Y211D02*
X1494Y211D01*
X1527Y211D02*
X1571Y211D01*
X1692Y211D02*
X1700Y211D01*
X1742Y211D02*
X1777Y211D01*
X1808Y211D02*
X1851Y211D01*
X1878Y211D02*
X1925Y211D01*
X249Y210D02*
X296Y210D01*
X334Y210D02*
X352Y210D01*
X391Y210D02*
X438Y210D01*
X551Y210D02*
X560Y210D01*
X603Y210D02*
X650Y210D01*
X674Y210D02*
X721Y210D01*
X745Y210D02*
X792Y210D01*
X888Y210D02*
X922Y210D01*
X959Y210D02*
X1004Y210D01*
X1033Y210D02*
X1070Y210D01*
X1098Y210D02*
X1107Y210D01*
X1110Y210D02*
X1143Y210D01*
X1169Y210D02*
X1213Y210D01*
X1239Y210D02*
X1248Y210D01*
X1259Y210D02*
X1268Y210D01*
X1280Y210D02*
X1289Y210D01*
X1315Y210D02*
X1354Y210D01*
X1386Y210D02*
X1425Y210D01*
X1458Y210D02*
X1495Y210D01*
X1528Y210D02*
X1571Y210D01*
X1692Y210D02*
X1700Y210D01*
X1741Y210D02*
X1778Y210D01*
X1807Y210D02*
X1850Y210D01*
X1878Y210D02*
X1925Y210D01*
X249Y209D02*
X296Y209D01*
X335Y209D02*
X352Y209D01*
X391Y209D02*
X437Y209D01*
X551Y209D02*
X560Y209D01*
X603Y209D02*
X650Y209D01*
X674Y209D02*
X721Y209D01*
X744Y209D02*
X792Y209D01*
X889Y209D02*
X921Y209D01*
X960Y209D02*
X1004Y209D01*
X1033Y209D02*
X1070Y209D01*
X1098Y209D02*
X1107Y209D01*
X1111Y209D02*
X1142Y209D01*
X1169Y209D02*
X1212Y209D01*
X1239Y209D02*
X1248Y209D01*
X1259Y209D02*
X1268Y209D01*
X1280Y209D02*
X1289Y209D01*
X1316Y209D02*
X1353Y209D01*
X1387Y209D02*
X1424Y209D01*
X1457Y209D02*
X1495Y209D01*
X1529Y209D02*
X1571Y209D01*
X1692Y209D02*
X1700Y209D01*
X1741Y209D02*
X1778Y209D01*
X1806Y209D02*
X1849Y209D01*
X1877Y209D02*
X1925Y209D01*
X249Y208D02*
X296Y208D01*
X335Y208D02*
X352Y208D01*
X391Y208D02*
X437Y208D01*
X551Y208D02*
X560Y208D01*
X603Y208D02*
X650Y208D01*
X675Y208D02*
X720Y208D01*
X744Y208D02*
X792Y208D01*
X889Y208D02*
X920Y208D01*
X960Y208D02*
X1003Y208D01*
X1032Y208D02*
X1070Y208D01*
X1098Y208D02*
X1107Y208D01*
X1113Y208D02*
X1141Y208D01*
X1169Y208D02*
X1178Y208D01*
X1180Y208D02*
X1210Y208D01*
X1239Y208D02*
X1248Y208D01*
X1259Y208D02*
X1268Y208D01*
X1280Y208D02*
X1289Y208D01*
X1317Y208D02*
X1352Y208D01*
X1388Y208D02*
X1423Y208D01*
X1457Y208D02*
X1495Y208D01*
X1530Y208D02*
X1571Y208D01*
X1692Y208D02*
X1700Y208D01*
X1740Y208D02*
X1778Y208D01*
X1806Y208D02*
X1848Y208D01*
X1877Y208D02*
X1925Y208D01*
X249Y207D02*
X296Y207D01*
X336Y207D02*
X351Y207D01*
X392Y207D02*
X436Y207D01*
X551Y207D02*
X560Y207D01*
X603Y207D02*
X650Y207D01*
X675Y207D02*
X719Y207D01*
X744Y207D02*
X792Y207D01*
X890Y207D02*
X920Y207D01*
X961Y207D02*
X1001Y207D01*
X1032Y207D02*
X1070Y207D01*
X1098Y207D02*
X1107Y207D01*
X1115Y207D02*
X1141Y207D01*
X1169Y207D02*
X1178Y207D01*
X1181Y207D02*
X1209Y207D01*
X1239Y207D02*
X1248Y207D01*
X1259Y207D02*
X1268Y207D01*
X1280Y207D02*
X1288Y207D01*
X1318Y207D02*
X1351Y207D01*
X1389Y207D02*
X1422Y207D01*
X1457Y207D02*
X1495Y207D01*
X1531Y207D02*
X1571Y207D01*
X1692Y207D02*
X1700Y207D01*
X1740Y207D02*
X1778Y207D01*
X1806Y207D02*
X1847Y207D01*
X1877Y207D02*
X1925Y207D01*
X249Y206D02*
X296Y206D01*
X336Y206D02*
X351Y206D01*
X393Y206D02*
X435Y206D01*
X552Y206D02*
X560Y206D01*
X603Y206D02*
X650Y206D01*
X676Y206D02*
X719Y206D01*
X744Y206D02*
X792Y206D01*
X891Y206D02*
X918Y206D01*
X962Y206D02*
X1000Y206D01*
X1033Y206D02*
X1070Y206D01*
X1099Y206D02*
X1107Y206D01*
X1116Y206D02*
X1139Y206D01*
X1169Y206D02*
X1178Y206D01*
X1183Y206D02*
X1208Y206D01*
X1239Y206D02*
X1248Y206D01*
X1260Y206D02*
X1268Y206D01*
X1280Y206D02*
X1288Y206D01*
X1320Y206D02*
X1350Y206D01*
X1391Y206D02*
X1420Y206D01*
X1457Y206D02*
X1495Y206D01*
X1532Y206D02*
X1571Y206D01*
X1692Y206D02*
X1700Y206D01*
X1741Y206D02*
X1778Y206D01*
X1807Y206D02*
X1845Y206D01*
X1877Y206D02*
X1925Y206D01*
X249Y205D02*
X296Y205D01*
X337Y205D02*
X350Y205D01*
X394Y205D02*
X434Y205D01*
X552Y205D02*
X559Y205D01*
X603Y205D02*
X650Y205D01*
X677Y205D02*
X718Y205D01*
X745Y205D02*
X792Y205D01*
X893Y205D02*
X917Y205D01*
X964Y205D02*
X998Y205D01*
X1033Y205D02*
X1070Y205D01*
X1099Y205D02*
X1106Y205D01*
X1118Y205D02*
X1138Y205D01*
X1169Y205D02*
X1178Y205D01*
X1184Y205D02*
X1207Y205D01*
X1240Y205D02*
X1247Y205D01*
X1260Y205D02*
X1267Y205D01*
X1280Y205D02*
X1288Y205D01*
X1321Y205D02*
X1348Y205D01*
X1392Y205D02*
X1419Y205D01*
X1458Y205D02*
X1494Y205D01*
X1534Y205D02*
X1571Y205D01*
X1692Y205D02*
X1700Y205D01*
X1741Y205D02*
X1778Y205D01*
X1807Y205D02*
X1844Y205D01*
X1878Y205D02*
X1925Y205D01*
X250Y204D02*
X295Y204D01*
X337Y204D02*
X349Y204D01*
X395Y204D02*
X433Y204D01*
X553Y204D02*
X558Y204D01*
X604Y204D02*
X649Y204D01*
X679Y204D02*
X716Y204D01*
X746Y204D02*
X792Y204D01*
X895Y204D02*
X915Y204D01*
X966Y204D02*
X996Y204D01*
X1034Y204D02*
X1069Y204D01*
X1100Y204D02*
X1105Y204D01*
X1120Y204D02*
X1136Y204D01*
X1169Y204D02*
X1178Y204D01*
X1186Y204D02*
X1205Y204D01*
X1241Y204D02*
X1246Y204D01*
X1261Y204D02*
X1267Y204D01*
X1281Y204D02*
X1287Y204D01*
X1323Y204D02*
X1346Y204D01*
X1394Y204D02*
X1417Y204D01*
X1459Y204D02*
X1494Y204D01*
X1536Y204D02*
X1571Y204D01*
X1693Y204D02*
X1699Y204D01*
X1742Y204D02*
X1777Y204D01*
X1808Y204D02*
X1842Y204D01*
X1879Y204D02*
X1925Y204D01*
X252Y203D02*
X293Y203D01*
X339Y203D02*
X348Y203D01*
X398Y203D02*
X431Y203D01*
X555Y203D02*
X557Y203D01*
X606Y203D02*
X647Y203D01*
X681Y203D02*
X714Y203D01*
X748Y203D02*
X792Y203D01*
X898Y203D02*
X912Y203D01*
X969Y203D02*
X993Y203D01*
X1036Y203D02*
X1067Y203D01*
X1102Y203D02*
X1104Y203D01*
X1123Y203D02*
X1133Y203D01*
X1169Y203D02*
X1178Y203D01*
X1189Y203D02*
X1202Y203D01*
X1242Y203D02*
X1245Y203D01*
X1263Y203D02*
X1265Y203D01*
X1283Y203D02*
X1285Y203D01*
X1326Y203D02*
X1343Y203D01*
X1397Y203D02*
X1414Y203D01*
X1461Y203D02*
X1492Y203D01*
X1540Y203D02*
X1571Y203D01*
X1695Y203D02*
X1697Y203D01*
X1744Y203D02*
X1775Y203D01*
X1810Y203D02*
X1839Y203D01*
X1880Y203D02*
X1925Y203D01*
X1169Y202D02*
X1178Y202D01*
X1169Y201D02*
X1178Y201D01*
X1169Y200D02*
X1178Y200D01*
X1169Y199D02*
X1178Y199D01*
X1169Y198D02*
X1178Y198D01*
X1169Y197D02*
X1178Y197D01*
X1169Y196D02*
X1178Y196D01*
X1169Y195D02*
X1178Y195D01*
X1169Y194D02*
X1178Y194D01*
X1169Y193D02*
X1178Y193D01*
X1169Y192D02*
X1178Y192D01*
X1169Y191D02*
X1178Y191D01*
X1169Y190D02*
X1178Y190D01*
X1169Y189D02*
X1178Y189D01*
X1169Y188D02*
X1178Y188D01*
X1169Y187D02*
X1178Y187D01*
X1169Y186D02*
X1178Y186D01*
X1169Y185D02*
X1178Y185D01*
X1170Y184D02*
X1177Y184D01*
X1171Y183D02*
X1176Y183D01*
X1173Y182D02*
X1174Y182D01*
D02*
G04 End of Silk0*
M02*